%TF.GenerationSoftware,KiCad,Pcbnew,7.0.7*%
%TF.CreationDate,2023-08-27T17:08:45+10:00*%
%TF.ProjectId,PowerSupply,506f7765-7253-4757-9070-6c792e6b6963,rev?*%
%TF.SameCoordinates,Original*%
%TF.FileFunction,Legend,Top*%
%TF.FilePolarity,Positive*%
%FSLAX46Y46*%
G04 Gerber Fmt 4.6, Leading zero omitted, Abs format (unit mm)*
G04 Created by KiCad (PCBNEW 7.0.7) date 2023-08-27 17:08:45*
%MOMM*%
%LPD*%
G01*
G04 APERTURE LIST*
%ADD10C,0.150000*%
%ADD11C,0.120000*%
G04 APERTURE END LIST*
D10*
X166128095Y-120884819D02*
X166128095Y-121694342D01*
X166128095Y-121694342D02*
X166175714Y-121789580D01*
X166175714Y-121789580D02*
X166223333Y-121837200D01*
X166223333Y-121837200D02*
X166318571Y-121884819D01*
X166318571Y-121884819D02*
X166509047Y-121884819D01*
X166509047Y-121884819D02*
X166604285Y-121837200D01*
X166604285Y-121837200D02*
X166651904Y-121789580D01*
X166651904Y-121789580D02*
X166699523Y-121694342D01*
X166699523Y-121694342D02*
X166699523Y-120884819D01*
X167128095Y-120980057D02*
X167175714Y-120932438D01*
X167175714Y-120932438D02*
X167270952Y-120884819D01*
X167270952Y-120884819D02*
X167509047Y-120884819D01*
X167509047Y-120884819D02*
X167604285Y-120932438D01*
X167604285Y-120932438D02*
X167651904Y-120980057D01*
X167651904Y-120980057D02*
X167699523Y-121075295D01*
X167699523Y-121075295D02*
X167699523Y-121170533D01*
X167699523Y-121170533D02*
X167651904Y-121313390D01*
X167651904Y-121313390D02*
X167080476Y-121884819D01*
X167080476Y-121884819D02*
X167699523Y-121884819D01*
X181363333Y-89684819D02*
X181030000Y-89208628D01*
X180791905Y-89684819D02*
X180791905Y-88684819D01*
X180791905Y-88684819D02*
X181172857Y-88684819D01*
X181172857Y-88684819D02*
X181268095Y-88732438D01*
X181268095Y-88732438D02*
X181315714Y-88780057D01*
X181315714Y-88780057D02*
X181363333Y-88875295D01*
X181363333Y-88875295D02*
X181363333Y-89018152D01*
X181363333Y-89018152D02*
X181315714Y-89113390D01*
X181315714Y-89113390D02*
X181268095Y-89161009D01*
X181268095Y-89161009D02*
X181172857Y-89208628D01*
X181172857Y-89208628D02*
X180791905Y-89208628D01*
X182315714Y-89684819D02*
X181744286Y-89684819D01*
X182030000Y-89684819D02*
X182030000Y-88684819D01*
X182030000Y-88684819D02*
X181934762Y-88827676D01*
X181934762Y-88827676D02*
X181839524Y-88922914D01*
X181839524Y-88922914D02*
X181744286Y-88970533D01*
X135053333Y-120459580D02*
X135005714Y-120507200D01*
X135005714Y-120507200D02*
X134862857Y-120554819D01*
X134862857Y-120554819D02*
X134767619Y-120554819D01*
X134767619Y-120554819D02*
X134624762Y-120507200D01*
X134624762Y-120507200D02*
X134529524Y-120411961D01*
X134529524Y-120411961D02*
X134481905Y-120316723D01*
X134481905Y-120316723D02*
X134434286Y-120126247D01*
X134434286Y-120126247D02*
X134434286Y-119983390D01*
X134434286Y-119983390D02*
X134481905Y-119792914D01*
X134481905Y-119792914D02*
X134529524Y-119697676D01*
X134529524Y-119697676D02*
X134624762Y-119602438D01*
X134624762Y-119602438D02*
X134767619Y-119554819D01*
X134767619Y-119554819D02*
X134862857Y-119554819D01*
X134862857Y-119554819D02*
X135005714Y-119602438D01*
X135005714Y-119602438D02*
X135053333Y-119650057D01*
X135958095Y-119554819D02*
X135481905Y-119554819D01*
X135481905Y-119554819D02*
X135434286Y-120031009D01*
X135434286Y-120031009D02*
X135481905Y-119983390D01*
X135481905Y-119983390D02*
X135577143Y-119935771D01*
X135577143Y-119935771D02*
X135815238Y-119935771D01*
X135815238Y-119935771D02*
X135910476Y-119983390D01*
X135910476Y-119983390D02*
X135958095Y-120031009D01*
X135958095Y-120031009D02*
X136005714Y-120126247D01*
X136005714Y-120126247D02*
X136005714Y-120364342D01*
X136005714Y-120364342D02*
X135958095Y-120459580D01*
X135958095Y-120459580D02*
X135910476Y-120507200D01*
X135910476Y-120507200D02*
X135815238Y-120554819D01*
X135815238Y-120554819D02*
X135577143Y-120554819D01*
X135577143Y-120554819D02*
X135481905Y-120507200D01*
X135481905Y-120507200D02*
X135434286Y-120459580D01*
X174331905Y-93634819D02*
X174331905Y-92634819D01*
X174331905Y-92634819D02*
X174570000Y-92634819D01*
X174570000Y-92634819D02*
X174712857Y-92682438D01*
X174712857Y-92682438D02*
X174808095Y-92777676D01*
X174808095Y-92777676D02*
X174855714Y-92872914D01*
X174855714Y-92872914D02*
X174903333Y-93063390D01*
X174903333Y-93063390D02*
X174903333Y-93206247D01*
X174903333Y-93206247D02*
X174855714Y-93396723D01*
X174855714Y-93396723D02*
X174808095Y-93491961D01*
X174808095Y-93491961D02*
X174712857Y-93587200D01*
X174712857Y-93587200D02*
X174570000Y-93634819D01*
X174570000Y-93634819D02*
X174331905Y-93634819D01*
X175236667Y-92634819D02*
X175855714Y-92634819D01*
X175855714Y-92634819D02*
X175522381Y-93015771D01*
X175522381Y-93015771D02*
X175665238Y-93015771D01*
X175665238Y-93015771D02*
X175760476Y-93063390D01*
X175760476Y-93063390D02*
X175808095Y-93111009D01*
X175808095Y-93111009D02*
X175855714Y-93206247D01*
X175855714Y-93206247D02*
X175855714Y-93444342D01*
X175855714Y-93444342D02*
X175808095Y-93539580D01*
X175808095Y-93539580D02*
X175760476Y-93587200D01*
X175760476Y-93587200D02*
X175665238Y-93634819D01*
X175665238Y-93634819D02*
X175379524Y-93634819D01*
X175379524Y-93634819D02*
X175284286Y-93587200D01*
X175284286Y-93587200D02*
X175236667Y-93539580D01*
X170394761Y-94604819D02*
X169918571Y-94604819D01*
X169918571Y-94604819D02*
X169870952Y-95081009D01*
X169870952Y-95081009D02*
X169918571Y-95033390D01*
X169918571Y-95033390D02*
X170013809Y-94985771D01*
X170013809Y-94985771D02*
X170251904Y-94985771D01*
X170251904Y-94985771D02*
X170347142Y-95033390D01*
X170347142Y-95033390D02*
X170394761Y-95081009D01*
X170394761Y-95081009D02*
X170442380Y-95176247D01*
X170442380Y-95176247D02*
X170442380Y-95414342D01*
X170442380Y-95414342D02*
X170394761Y-95509580D01*
X170394761Y-95509580D02*
X170347142Y-95557200D01*
X170347142Y-95557200D02*
X170251904Y-95604819D01*
X170251904Y-95604819D02*
X170013809Y-95604819D01*
X170013809Y-95604819D02*
X169918571Y-95557200D01*
X169918571Y-95557200D02*
X169870952Y-95509580D01*
X170728095Y-94604819D02*
X171061428Y-95604819D01*
X171061428Y-95604819D02*
X171394761Y-94604819D01*
X172680476Y-94604819D02*
X172870952Y-94604819D01*
X172870952Y-94604819D02*
X172966190Y-94652438D01*
X172966190Y-94652438D02*
X173061428Y-94747676D01*
X173061428Y-94747676D02*
X173109047Y-94938152D01*
X173109047Y-94938152D02*
X173109047Y-95271485D01*
X173109047Y-95271485D02*
X173061428Y-95461961D01*
X173061428Y-95461961D02*
X172966190Y-95557200D01*
X172966190Y-95557200D02*
X172870952Y-95604819D01*
X172870952Y-95604819D02*
X172680476Y-95604819D01*
X172680476Y-95604819D02*
X172585238Y-95557200D01*
X172585238Y-95557200D02*
X172490000Y-95461961D01*
X172490000Y-95461961D02*
X172442381Y-95271485D01*
X172442381Y-95271485D02*
X172442381Y-94938152D01*
X172442381Y-94938152D02*
X172490000Y-94747676D01*
X172490000Y-94747676D02*
X172585238Y-94652438D01*
X172585238Y-94652438D02*
X172680476Y-94604819D01*
X173537619Y-95604819D02*
X173537619Y-94604819D01*
X174109047Y-95604819D02*
X173680476Y-95033390D01*
X174109047Y-94604819D02*
X173537619Y-95176247D01*
X168273333Y-116304819D02*
X167940000Y-115828628D01*
X167701905Y-116304819D02*
X167701905Y-115304819D01*
X167701905Y-115304819D02*
X168082857Y-115304819D01*
X168082857Y-115304819D02*
X168178095Y-115352438D01*
X168178095Y-115352438D02*
X168225714Y-115400057D01*
X168225714Y-115400057D02*
X168273333Y-115495295D01*
X168273333Y-115495295D02*
X168273333Y-115638152D01*
X168273333Y-115638152D02*
X168225714Y-115733390D01*
X168225714Y-115733390D02*
X168178095Y-115781009D01*
X168178095Y-115781009D02*
X168082857Y-115828628D01*
X168082857Y-115828628D02*
X167701905Y-115828628D01*
X168654286Y-115400057D02*
X168701905Y-115352438D01*
X168701905Y-115352438D02*
X168797143Y-115304819D01*
X168797143Y-115304819D02*
X169035238Y-115304819D01*
X169035238Y-115304819D02*
X169130476Y-115352438D01*
X169130476Y-115352438D02*
X169178095Y-115400057D01*
X169178095Y-115400057D02*
X169225714Y-115495295D01*
X169225714Y-115495295D02*
X169225714Y-115590533D01*
X169225714Y-115590533D02*
X169178095Y-115733390D01*
X169178095Y-115733390D02*
X168606667Y-116304819D01*
X168606667Y-116304819D02*
X169225714Y-116304819D01*
X135053333Y-104429580D02*
X135005714Y-104477200D01*
X135005714Y-104477200D02*
X134862857Y-104524819D01*
X134862857Y-104524819D02*
X134767619Y-104524819D01*
X134767619Y-104524819D02*
X134624762Y-104477200D01*
X134624762Y-104477200D02*
X134529524Y-104381961D01*
X134529524Y-104381961D02*
X134481905Y-104286723D01*
X134481905Y-104286723D02*
X134434286Y-104096247D01*
X134434286Y-104096247D02*
X134434286Y-103953390D01*
X134434286Y-103953390D02*
X134481905Y-103762914D01*
X134481905Y-103762914D02*
X134529524Y-103667676D01*
X134529524Y-103667676D02*
X134624762Y-103572438D01*
X134624762Y-103572438D02*
X134767619Y-103524819D01*
X134767619Y-103524819D02*
X134862857Y-103524819D01*
X134862857Y-103524819D02*
X135005714Y-103572438D01*
X135005714Y-103572438D02*
X135053333Y-103620057D01*
X136005714Y-104524819D02*
X135434286Y-104524819D01*
X135720000Y-104524819D02*
X135720000Y-103524819D01*
X135720000Y-103524819D02*
X135624762Y-103667676D01*
X135624762Y-103667676D02*
X135529524Y-103762914D01*
X135529524Y-103762914D02*
X135434286Y-103810533D01*
X173424761Y-126300057D02*
X173329523Y-126252438D01*
X173329523Y-126252438D02*
X173234285Y-126157200D01*
X173234285Y-126157200D02*
X173091428Y-126014342D01*
X173091428Y-126014342D02*
X172996190Y-125966723D01*
X172996190Y-125966723D02*
X172900952Y-125966723D01*
X172948571Y-126204819D02*
X172853333Y-126157200D01*
X172853333Y-126157200D02*
X172758095Y-126061961D01*
X172758095Y-126061961D02*
X172710476Y-125871485D01*
X172710476Y-125871485D02*
X172710476Y-125538152D01*
X172710476Y-125538152D02*
X172758095Y-125347676D01*
X172758095Y-125347676D02*
X172853333Y-125252438D01*
X172853333Y-125252438D02*
X172948571Y-125204819D01*
X172948571Y-125204819D02*
X173139047Y-125204819D01*
X173139047Y-125204819D02*
X173234285Y-125252438D01*
X173234285Y-125252438D02*
X173329523Y-125347676D01*
X173329523Y-125347676D02*
X173377142Y-125538152D01*
X173377142Y-125538152D02*
X173377142Y-125871485D01*
X173377142Y-125871485D02*
X173329523Y-126061961D01*
X173329523Y-126061961D02*
X173234285Y-126157200D01*
X173234285Y-126157200D02*
X173139047Y-126204819D01*
X173139047Y-126204819D02*
X172948571Y-126204819D01*
X174329523Y-126204819D02*
X173758095Y-126204819D01*
X174043809Y-126204819D02*
X174043809Y-125204819D01*
X174043809Y-125204819D02*
X173948571Y-125347676D01*
X173948571Y-125347676D02*
X173853333Y-125442914D01*
X173853333Y-125442914D02*
X173758095Y-125490533D01*
X148283333Y-116919580D02*
X148235714Y-116967200D01*
X148235714Y-116967200D02*
X148092857Y-117014819D01*
X148092857Y-117014819D02*
X147997619Y-117014819D01*
X147997619Y-117014819D02*
X147854762Y-116967200D01*
X147854762Y-116967200D02*
X147759524Y-116871961D01*
X147759524Y-116871961D02*
X147711905Y-116776723D01*
X147711905Y-116776723D02*
X147664286Y-116586247D01*
X147664286Y-116586247D02*
X147664286Y-116443390D01*
X147664286Y-116443390D02*
X147711905Y-116252914D01*
X147711905Y-116252914D02*
X147759524Y-116157676D01*
X147759524Y-116157676D02*
X147854762Y-116062438D01*
X147854762Y-116062438D02*
X147997619Y-116014819D01*
X147997619Y-116014819D02*
X148092857Y-116014819D01*
X148092857Y-116014819D02*
X148235714Y-116062438D01*
X148235714Y-116062438D02*
X148283333Y-116110057D01*
X148616667Y-116014819D02*
X149283333Y-116014819D01*
X149283333Y-116014819D02*
X148854762Y-117014819D01*
X168383333Y-92489580D02*
X168335714Y-92537200D01*
X168335714Y-92537200D02*
X168192857Y-92584819D01*
X168192857Y-92584819D02*
X168097619Y-92584819D01*
X168097619Y-92584819D02*
X167954762Y-92537200D01*
X167954762Y-92537200D02*
X167859524Y-92441961D01*
X167859524Y-92441961D02*
X167811905Y-92346723D01*
X167811905Y-92346723D02*
X167764286Y-92156247D01*
X167764286Y-92156247D02*
X167764286Y-92013390D01*
X167764286Y-92013390D02*
X167811905Y-91822914D01*
X167811905Y-91822914D02*
X167859524Y-91727676D01*
X167859524Y-91727676D02*
X167954762Y-91632438D01*
X167954762Y-91632438D02*
X168097619Y-91584819D01*
X168097619Y-91584819D02*
X168192857Y-91584819D01*
X168192857Y-91584819D02*
X168335714Y-91632438D01*
X168335714Y-91632438D02*
X168383333Y-91680057D01*
X168716667Y-91584819D02*
X169335714Y-91584819D01*
X169335714Y-91584819D02*
X169002381Y-91965771D01*
X169002381Y-91965771D02*
X169145238Y-91965771D01*
X169145238Y-91965771D02*
X169240476Y-92013390D01*
X169240476Y-92013390D02*
X169288095Y-92061009D01*
X169288095Y-92061009D02*
X169335714Y-92156247D01*
X169335714Y-92156247D02*
X169335714Y-92394342D01*
X169335714Y-92394342D02*
X169288095Y-92489580D01*
X169288095Y-92489580D02*
X169240476Y-92537200D01*
X169240476Y-92537200D02*
X169145238Y-92584819D01*
X169145238Y-92584819D02*
X168859524Y-92584819D01*
X168859524Y-92584819D02*
X168764286Y-92537200D01*
X168764286Y-92537200D02*
X168716667Y-92489580D01*
X164313333Y-116859580D02*
X164265714Y-116907200D01*
X164265714Y-116907200D02*
X164122857Y-116954819D01*
X164122857Y-116954819D02*
X164027619Y-116954819D01*
X164027619Y-116954819D02*
X163884762Y-116907200D01*
X163884762Y-116907200D02*
X163789524Y-116811961D01*
X163789524Y-116811961D02*
X163741905Y-116716723D01*
X163741905Y-116716723D02*
X163694286Y-116526247D01*
X163694286Y-116526247D02*
X163694286Y-116383390D01*
X163694286Y-116383390D02*
X163741905Y-116192914D01*
X163741905Y-116192914D02*
X163789524Y-116097676D01*
X163789524Y-116097676D02*
X163884762Y-116002438D01*
X163884762Y-116002438D02*
X164027619Y-115954819D01*
X164027619Y-115954819D02*
X164122857Y-115954819D01*
X164122857Y-115954819D02*
X164265714Y-116002438D01*
X164265714Y-116002438D02*
X164313333Y-116050057D01*
X165170476Y-115954819D02*
X164980000Y-115954819D01*
X164980000Y-115954819D02*
X164884762Y-116002438D01*
X164884762Y-116002438D02*
X164837143Y-116050057D01*
X164837143Y-116050057D02*
X164741905Y-116192914D01*
X164741905Y-116192914D02*
X164694286Y-116383390D01*
X164694286Y-116383390D02*
X164694286Y-116764342D01*
X164694286Y-116764342D02*
X164741905Y-116859580D01*
X164741905Y-116859580D02*
X164789524Y-116907200D01*
X164789524Y-116907200D02*
X164884762Y-116954819D01*
X164884762Y-116954819D02*
X165075238Y-116954819D01*
X165075238Y-116954819D02*
X165170476Y-116907200D01*
X165170476Y-116907200D02*
X165218095Y-116859580D01*
X165218095Y-116859580D02*
X165265714Y-116764342D01*
X165265714Y-116764342D02*
X165265714Y-116526247D01*
X165265714Y-116526247D02*
X165218095Y-116431009D01*
X165218095Y-116431009D02*
X165170476Y-116383390D01*
X165170476Y-116383390D02*
X165075238Y-116335771D01*
X165075238Y-116335771D02*
X164884762Y-116335771D01*
X164884762Y-116335771D02*
X164789524Y-116383390D01*
X164789524Y-116383390D02*
X164741905Y-116431009D01*
X164741905Y-116431009D02*
X164694286Y-116526247D01*
X174161905Y-89764819D02*
X174161905Y-88764819D01*
X174161905Y-88764819D02*
X174400000Y-88764819D01*
X174400000Y-88764819D02*
X174542857Y-88812438D01*
X174542857Y-88812438D02*
X174638095Y-88907676D01*
X174638095Y-88907676D02*
X174685714Y-89002914D01*
X174685714Y-89002914D02*
X174733333Y-89193390D01*
X174733333Y-89193390D02*
X174733333Y-89336247D01*
X174733333Y-89336247D02*
X174685714Y-89526723D01*
X174685714Y-89526723D02*
X174638095Y-89621961D01*
X174638095Y-89621961D02*
X174542857Y-89717200D01*
X174542857Y-89717200D02*
X174400000Y-89764819D01*
X174400000Y-89764819D02*
X174161905Y-89764819D01*
X175685714Y-89764819D02*
X175114286Y-89764819D01*
X175400000Y-89764819D02*
X175400000Y-88764819D01*
X175400000Y-88764819D02*
X175304762Y-88907676D01*
X175304762Y-88907676D02*
X175209524Y-89002914D01*
X175209524Y-89002914D02*
X175114286Y-89050533D01*
X169886190Y-87974819D02*
X169314762Y-87974819D01*
X169600476Y-87974819D02*
X169600476Y-86974819D01*
X169600476Y-86974819D02*
X169505238Y-87117676D01*
X169505238Y-87117676D02*
X169410000Y-87212914D01*
X169410000Y-87212914D02*
X169314762Y-87260533D01*
X170267143Y-87070057D02*
X170314762Y-87022438D01*
X170314762Y-87022438D02*
X170410000Y-86974819D01*
X170410000Y-86974819D02*
X170648095Y-86974819D01*
X170648095Y-86974819D02*
X170743333Y-87022438D01*
X170743333Y-87022438D02*
X170790952Y-87070057D01*
X170790952Y-87070057D02*
X170838571Y-87165295D01*
X170838571Y-87165295D02*
X170838571Y-87260533D01*
X170838571Y-87260533D02*
X170790952Y-87403390D01*
X170790952Y-87403390D02*
X170219524Y-87974819D01*
X170219524Y-87974819D02*
X170838571Y-87974819D01*
X171124286Y-86974819D02*
X171457619Y-87974819D01*
X171457619Y-87974819D02*
X171790952Y-86974819D01*
X173076667Y-86974819D02*
X173267143Y-86974819D01*
X173267143Y-86974819D02*
X173362381Y-87022438D01*
X173362381Y-87022438D02*
X173457619Y-87117676D01*
X173457619Y-87117676D02*
X173505238Y-87308152D01*
X173505238Y-87308152D02*
X173505238Y-87641485D01*
X173505238Y-87641485D02*
X173457619Y-87831961D01*
X173457619Y-87831961D02*
X173362381Y-87927200D01*
X173362381Y-87927200D02*
X173267143Y-87974819D01*
X173267143Y-87974819D02*
X173076667Y-87974819D01*
X173076667Y-87974819D02*
X172981429Y-87927200D01*
X172981429Y-87927200D02*
X172886191Y-87831961D01*
X172886191Y-87831961D02*
X172838572Y-87641485D01*
X172838572Y-87641485D02*
X172838572Y-87308152D01*
X172838572Y-87308152D02*
X172886191Y-87117676D01*
X172886191Y-87117676D02*
X172981429Y-87022438D01*
X172981429Y-87022438D02*
X173076667Y-86974819D01*
X173933810Y-87974819D02*
X173933810Y-86974819D01*
X174505238Y-87974819D02*
X174076667Y-87403390D01*
X174505238Y-86974819D02*
X173933810Y-87546247D01*
X181343333Y-93614819D02*
X181010000Y-93138628D01*
X180771905Y-93614819D02*
X180771905Y-92614819D01*
X180771905Y-92614819D02*
X181152857Y-92614819D01*
X181152857Y-92614819D02*
X181248095Y-92662438D01*
X181248095Y-92662438D02*
X181295714Y-92710057D01*
X181295714Y-92710057D02*
X181343333Y-92805295D01*
X181343333Y-92805295D02*
X181343333Y-92948152D01*
X181343333Y-92948152D02*
X181295714Y-93043390D01*
X181295714Y-93043390D02*
X181248095Y-93091009D01*
X181248095Y-93091009D02*
X181152857Y-93138628D01*
X181152857Y-93138628D02*
X180771905Y-93138628D01*
X181676667Y-92614819D02*
X182295714Y-92614819D01*
X182295714Y-92614819D02*
X181962381Y-92995771D01*
X181962381Y-92995771D02*
X182105238Y-92995771D01*
X182105238Y-92995771D02*
X182200476Y-93043390D01*
X182200476Y-93043390D02*
X182248095Y-93091009D01*
X182248095Y-93091009D02*
X182295714Y-93186247D01*
X182295714Y-93186247D02*
X182295714Y-93424342D01*
X182295714Y-93424342D02*
X182248095Y-93519580D01*
X182248095Y-93519580D02*
X182200476Y-93567200D01*
X182200476Y-93567200D02*
X182105238Y-93614819D01*
X182105238Y-93614819D02*
X181819524Y-93614819D01*
X181819524Y-93614819D02*
X181724286Y-93567200D01*
X181724286Y-93567200D02*
X181676667Y-93519580D01*
X152818095Y-86104819D02*
X152818095Y-86914342D01*
X152818095Y-86914342D02*
X152865714Y-87009580D01*
X152865714Y-87009580D02*
X152913333Y-87057200D01*
X152913333Y-87057200D02*
X153008571Y-87104819D01*
X153008571Y-87104819D02*
X153199047Y-87104819D01*
X153199047Y-87104819D02*
X153294285Y-87057200D01*
X153294285Y-87057200D02*
X153341904Y-87009580D01*
X153341904Y-87009580D02*
X153389523Y-86914342D01*
X153389523Y-86914342D02*
X153389523Y-86104819D01*
X154389523Y-87104819D02*
X153818095Y-87104819D01*
X154103809Y-87104819D02*
X154103809Y-86104819D01*
X154103809Y-86104819D02*
X154008571Y-86247676D01*
X154008571Y-86247676D02*
X153913333Y-86342914D01*
X153913333Y-86342914D02*
X153818095Y-86390533D01*
X85113095Y-96329819D02*
X85684523Y-96329819D01*
X85398809Y-97329819D02*
X85398809Y-96329819D01*
X86589285Y-97329819D02*
X86255952Y-96853628D01*
X86017857Y-97329819D02*
X86017857Y-96329819D01*
X86017857Y-96329819D02*
X86398809Y-96329819D01*
X86398809Y-96329819D02*
X86494047Y-96377438D01*
X86494047Y-96377438D02*
X86541666Y-96425057D01*
X86541666Y-96425057D02*
X86589285Y-96520295D01*
X86589285Y-96520295D02*
X86589285Y-96663152D01*
X86589285Y-96663152D02*
X86541666Y-96758390D01*
X86541666Y-96758390D02*
X86494047Y-96806009D01*
X86494047Y-96806009D02*
X86398809Y-96853628D01*
X86398809Y-96853628D02*
X86017857Y-96853628D01*
X87541666Y-97329819D02*
X86970238Y-97329819D01*
X87255952Y-97329819D02*
X87255952Y-96329819D01*
X87255952Y-96329819D02*
X87160714Y-96472676D01*
X87160714Y-96472676D02*
X87065476Y-96567914D01*
X87065476Y-96567914D02*
X86970238Y-96615533D01*
X70985588Y-84994819D02*
X70414160Y-84994819D01*
X70699874Y-84994819D02*
X70699874Y-83994819D01*
X70699874Y-83994819D02*
X70604636Y-84137676D01*
X70604636Y-84137676D02*
X70509398Y-84232914D01*
X70509398Y-84232914D02*
X70414160Y-84280533D01*
X71366541Y-84090057D02*
X71414160Y-84042438D01*
X71414160Y-84042438D02*
X71509398Y-83994819D01*
X71509398Y-83994819D02*
X71747493Y-83994819D01*
X71747493Y-83994819D02*
X71842731Y-84042438D01*
X71842731Y-84042438D02*
X71890350Y-84090057D01*
X71890350Y-84090057D02*
X71937969Y-84185295D01*
X71937969Y-84185295D02*
X71937969Y-84280533D01*
X71937969Y-84280533D02*
X71890350Y-84423390D01*
X71890350Y-84423390D02*
X71318922Y-84994819D01*
X71318922Y-84994819D02*
X71937969Y-84994819D01*
X72557017Y-83994819D02*
X72652255Y-83994819D01*
X72652255Y-83994819D02*
X72747493Y-84042438D01*
X72747493Y-84042438D02*
X72795112Y-84090057D01*
X72795112Y-84090057D02*
X72842731Y-84185295D01*
X72842731Y-84185295D02*
X72890350Y-84375771D01*
X72890350Y-84375771D02*
X72890350Y-84613866D01*
X72890350Y-84613866D02*
X72842731Y-84804342D01*
X72842731Y-84804342D02*
X72795112Y-84899580D01*
X72795112Y-84899580D02*
X72747493Y-84947200D01*
X72747493Y-84947200D02*
X72652255Y-84994819D01*
X72652255Y-84994819D02*
X72557017Y-84994819D01*
X72557017Y-84994819D02*
X72461779Y-84947200D01*
X72461779Y-84947200D02*
X72414160Y-84899580D01*
X72414160Y-84899580D02*
X72366541Y-84804342D01*
X72366541Y-84804342D02*
X72318922Y-84613866D01*
X72318922Y-84613866D02*
X72318922Y-84375771D01*
X72318922Y-84375771D02*
X72366541Y-84185295D01*
X72366541Y-84185295D02*
X72414160Y-84090057D01*
X72414160Y-84090057D02*
X72461779Y-84042438D01*
X72461779Y-84042438D02*
X72557017Y-83994819D01*
X73176065Y-83994819D02*
X73509398Y-84994819D01*
X73509398Y-84994819D02*
X73842731Y-83994819D01*
X118485588Y-131244819D02*
X117914160Y-131244819D01*
X118199874Y-131244819D02*
X118199874Y-130244819D01*
X118199874Y-130244819D02*
X118104636Y-130387676D01*
X118104636Y-130387676D02*
X118009398Y-130482914D01*
X118009398Y-130482914D02*
X117914160Y-130530533D01*
X118866541Y-130340057D02*
X118914160Y-130292438D01*
X118914160Y-130292438D02*
X119009398Y-130244819D01*
X119009398Y-130244819D02*
X119247493Y-130244819D01*
X119247493Y-130244819D02*
X119342731Y-130292438D01*
X119342731Y-130292438D02*
X119390350Y-130340057D01*
X119390350Y-130340057D02*
X119437969Y-130435295D01*
X119437969Y-130435295D02*
X119437969Y-130530533D01*
X119437969Y-130530533D02*
X119390350Y-130673390D01*
X119390350Y-130673390D02*
X118818922Y-131244819D01*
X118818922Y-131244819D02*
X119437969Y-131244819D01*
X119723684Y-130244819D02*
X120057017Y-131244819D01*
X120057017Y-131244819D02*
X120390350Y-130244819D01*
X71235588Y-131994819D02*
X70664160Y-131994819D01*
X70949874Y-131994819D02*
X70949874Y-130994819D01*
X70949874Y-130994819D02*
X70854636Y-131137676D01*
X70854636Y-131137676D02*
X70759398Y-131232914D01*
X70759398Y-131232914D02*
X70664160Y-131280533D01*
X71616541Y-131090057D02*
X71664160Y-131042438D01*
X71664160Y-131042438D02*
X71759398Y-130994819D01*
X71759398Y-130994819D02*
X71997493Y-130994819D01*
X71997493Y-130994819D02*
X72092731Y-131042438D01*
X72092731Y-131042438D02*
X72140350Y-131090057D01*
X72140350Y-131090057D02*
X72187969Y-131185295D01*
X72187969Y-131185295D02*
X72187969Y-131280533D01*
X72187969Y-131280533D02*
X72140350Y-131423390D01*
X72140350Y-131423390D02*
X71568922Y-131994819D01*
X71568922Y-131994819D02*
X72187969Y-131994819D01*
X72807017Y-130994819D02*
X72902255Y-130994819D01*
X72902255Y-130994819D02*
X72997493Y-131042438D01*
X72997493Y-131042438D02*
X73045112Y-131090057D01*
X73045112Y-131090057D02*
X73092731Y-131185295D01*
X73092731Y-131185295D02*
X73140350Y-131375771D01*
X73140350Y-131375771D02*
X73140350Y-131613866D01*
X73140350Y-131613866D02*
X73092731Y-131804342D01*
X73092731Y-131804342D02*
X73045112Y-131899580D01*
X73045112Y-131899580D02*
X72997493Y-131947200D01*
X72997493Y-131947200D02*
X72902255Y-131994819D01*
X72902255Y-131994819D02*
X72807017Y-131994819D01*
X72807017Y-131994819D02*
X72711779Y-131947200D01*
X72711779Y-131947200D02*
X72664160Y-131899580D01*
X72664160Y-131899580D02*
X72616541Y-131804342D01*
X72616541Y-131804342D02*
X72568922Y-131613866D01*
X72568922Y-131613866D02*
X72568922Y-131375771D01*
X72568922Y-131375771D02*
X72616541Y-131185295D01*
X72616541Y-131185295D02*
X72664160Y-131090057D01*
X72664160Y-131090057D02*
X72711779Y-131042438D01*
X72711779Y-131042438D02*
X72807017Y-130994819D01*
X73426065Y-130994819D02*
X73759398Y-131994819D01*
X73759398Y-131994819D02*
X74092731Y-130994819D01*
X70902255Y-75994819D02*
X70997493Y-75994819D01*
X70997493Y-75994819D02*
X71092731Y-76042438D01*
X71092731Y-76042438D02*
X71140350Y-76090057D01*
X71140350Y-76090057D02*
X71187969Y-76185295D01*
X71187969Y-76185295D02*
X71235588Y-76375771D01*
X71235588Y-76375771D02*
X71235588Y-76613866D01*
X71235588Y-76613866D02*
X71187969Y-76804342D01*
X71187969Y-76804342D02*
X71140350Y-76899580D01*
X71140350Y-76899580D02*
X71092731Y-76947200D01*
X71092731Y-76947200D02*
X70997493Y-76994819D01*
X70997493Y-76994819D02*
X70902255Y-76994819D01*
X70902255Y-76994819D02*
X70807017Y-76947200D01*
X70807017Y-76947200D02*
X70759398Y-76899580D01*
X70759398Y-76899580D02*
X70711779Y-76804342D01*
X70711779Y-76804342D02*
X70664160Y-76613866D01*
X70664160Y-76613866D02*
X70664160Y-76375771D01*
X70664160Y-76375771D02*
X70711779Y-76185295D01*
X70711779Y-76185295D02*
X70759398Y-76090057D01*
X70759398Y-76090057D02*
X70807017Y-76042438D01*
X70807017Y-76042438D02*
X70902255Y-75994819D01*
X71521303Y-75994819D02*
X71854636Y-76994819D01*
X71854636Y-76994819D02*
X72187969Y-75994819D01*
X70902255Y-122994819D02*
X70997493Y-122994819D01*
X70997493Y-122994819D02*
X71092731Y-123042438D01*
X71092731Y-123042438D02*
X71140350Y-123090057D01*
X71140350Y-123090057D02*
X71187969Y-123185295D01*
X71187969Y-123185295D02*
X71235588Y-123375771D01*
X71235588Y-123375771D02*
X71235588Y-123613866D01*
X71235588Y-123613866D02*
X71187969Y-123804342D01*
X71187969Y-123804342D02*
X71140350Y-123899580D01*
X71140350Y-123899580D02*
X71092731Y-123947200D01*
X71092731Y-123947200D02*
X70997493Y-123994819D01*
X70997493Y-123994819D02*
X70902255Y-123994819D01*
X70902255Y-123994819D02*
X70807017Y-123947200D01*
X70807017Y-123947200D02*
X70759398Y-123899580D01*
X70759398Y-123899580D02*
X70711779Y-123804342D01*
X70711779Y-123804342D02*
X70664160Y-123613866D01*
X70664160Y-123613866D02*
X70664160Y-123375771D01*
X70664160Y-123375771D02*
X70711779Y-123185295D01*
X70711779Y-123185295D02*
X70759398Y-123090057D01*
X70759398Y-123090057D02*
X70807017Y-123042438D01*
X70807017Y-123042438D02*
X70902255Y-122994819D01*
X71521303Y-122994819D02*
X71854636Y-123994819D01*
X71854636Y-123994819D02*
X72187969Y-122994819D01*
X119902255Y-121744819D02*
X119997493Y-121744819D01*
X119997493Y-121744819D02*
X120092731Y-121792438D01*
X120092731Y-121792438D02*
X120140350Y-121840057D01*
X120140350Y-121840057D02*
X120187969Y-121935295D01*
X120187969Y-121935295D02*
X120235588Y-122125771D01*
X120235588Y-122125771D02*
X120235588Y-122363866D01*
X120235588Y-122363866D02*
X120187969Y-122554342D01*
X120187969Y-122554342D02*
X120140350Y-122649580D01*
X120140350Y-122649580D02*
X120092731Y-122697200D01*
X120092731Y-122697200D02*
X119997493Y-122744819D01*
X119997493Y-122744819D02*
X119902255Y-122744819D01*
X119902255Y-122744819D02*
X119807017Y-122697200D01*
X119807017Y-122697200D02*
X119759398Y-122649580D01*
X119759398Y-122649580D02*
X119711779Y-122554342D01*
X119711779Y-122554342D02*
X119664160Y-122363866D01*
X119664160Y-122363866D02*
X119664160Y-122125771D01*
X119664160Y-122125771D02*
X119711779Y-121935295D01*
X119711779Y-121935295D02*
X119759398Y-121840057D01*
X119759398Y-121840057D02*
X119807017Y-121792438D01*
X119807017Y-121792438D02*
X119902255Y-121744819D01*
X120521303Y-121744819D02*
X120854636Y-122744819D01*
X120854636Y-122744819D02*
X121187969Y-121744819D01*
X68414160Y-103090057D02*
X68461779Y-103042438D01*
X68461779Y-103042438D02*
X68557017Y-102994819D01*
X68557017Y-102994819D02*
X68795112Y-102994819D01*
X68795112Y-102994819D02*
X68890350Y-103042438D01*
X68890350Y-103042438D02*
X68937969Y-103090057D01*
X68937969Y-103090057D02*
X68985588Y-103185295D01*
X68985588Y-103185295D02*
X68985588Y-103280533D01*
X68985588Y-103280533D02*
X68937969Y-103423390D01*
X68937969Y-103423390D02*
X68366541Y-103994819D01*
X68366541Y-103994819D02*
X68985588Y-103994819D01*
X69842731Y-103328152D02*
X69842731Y-103994819D01*
X69604636Y-102947200D02*
X69366541Y-103661485D01*
X69366541Y-103661485D02*
X69985588Y-103661485D01*
X70557017Y-102994819D02*
X70652255Y-102994819D01*
X70652255Y-102994819D02*
X70747493Y-103042438D01*
X70747493Y-103042438D02*
X70795112Y-103090057D01*
X70795112Y-103090057D02*
X70842731Y-103185295D01*
X70842731Y-103185295D02*
X70890350Y-103375771D01*
X70890350Y-103375771D02*
X70890350Y-103613866D01*
X70890350Y-103613866D02*
X70842731Y-103804342D01*
X70842731Y-103804342D02*
X70795112Y-103899580D01*
X70795112Y-103899580D02*
X70747493Y-103947200D01*
X70747493Y-103947200D02*
X70652255Y-103994819D01*
X70652255Y-103994819D02*
X70557017Y-103994819D01*
X70557017Y-103994819D02*
X70461779Y-103947200D01*
X70461779Y-103947200D02*
X70414160Y-103899580D01*
X70414160Y-103899580D02*
X70366541Y-103804342D01*
X70366541Y-103804342D02*
X70318922Y-103613866D01*
X70318922Y-103613866D02*
X70318922Y-103375771D01*
X70318922Y-103375771D02*
X70366541Y-103185295D01*
X70366541Y-103185295D02*
X70414160Y-103090057D01*
X70414160Y-103090057D02*
X70461779Y-103042438D01*
X70461779Y-103042438D02*
X70557017Y-102994819D01*
X71176065Y-102994819D02*
X71509398Y-103994819D01*
X71509398Y-103994819D02*
X71842731Y-102994819D01*
X72937970Y-103994819D02*
X72937970Y-102994819D01*
X72937970Y-102994819D02*
X73318922Y-102994819D01*
X73318922Y-102994819D02*
X73414160Y-103042438D01*
X73414160Y-103042438D02*
X73461779Y-103090057D01*
X73461779Y-103090057D02*
X73509398Y-103185295D01*
X73509398Y-103185295D02*
X73509398Y-103328152D01*
X73509398Y-103328152D02*
X73461779Y-103423390D01*
X73461779Y-103423390D02*
X73414160Y-103471009D01*
X73414160Y-103471009D02*
X73318922Y-103518628D01*
X73318922Y-103518628D02*
X72937970Y-103518628D01*
X73937970Y-103994819D02*
X73937970Y-103328152D01*
X73937970Y-103518628D02*
X73985589Y-103423390D01*
X73985589Y-103423390D02*
X74033208Y-103375771D01*
X74033208Y-103375771D02*
X74128446Y-103328152D01*
X74128446Y-103328152D02*
X74223684Y-103328152D01*
X74557018Y-103994819D02*
X74557018Y-103328152D01*
X74557018Y-102994819D02*
X74509399Y-103042438D01*
X74509399Y-103042438D02*
X74557018Y-103090057D01*
X74557018Y-103090057D02*
X74604637Y-103042438D01*
X74604637Y-103042438D02*
X74557018Y-102994819D01*
X74557018Y-102994819D02*
X74557018Y-103090057D01*
X75033208Y-103994819D02*
X75033208Y-103328152D01*
X75033208Y-103423390D02*
X75080827Y-103375771D01*
X75080827Y-103375771D02*
X75176065Y-103328152D01*
X75176065Y-103328152D02*
X75318922Y-103328152D01*
X75318922Y-103328152D02*
X75414160Y-103375771D01*
X75414160Y-103375771D02*
X75461779Y-103471009D01*
X75461779Y-103471009D02*
X75461779Y-103994819D01*
X75461779Y-103471009D02*
X75509398Y-103375771D01*
X75509398Y-103375771D02*
X75604636Y-103328152D01*
X75604636Y-103328152D02*
X75747493Y-103328152D01*
X75747493Y-103328152D02*
X75842732Y-103375771D01*
X75842732Y-103375771D02*
X75890351Y-103471009D01*
X75890351Y-103471009D02*
X75890351Y-103994819D01*
X76795112Y-103994819D02*
X76795112Y-103471009D01*
X76795112Y-103471009D02*
X76747493Y-103375771D01*
X76747493Y-103375771D02*
X76652255Y-103328152D01*
X76652255Y-103328152D02*
X76461779Y-103328152D01*
X76461779Y-103328152D02*
X76366541Y-103375771D01*
X76795112Y-103947200D02*
X76699874Y-103994819D01*
X76699874Y-103994819D02*
X76461779Y-103994819D01*
X76461779Y-103994819D02*
X76366541Y-103947200D01*
X76366541Y-103947200D02*
X76318922Y-103851961D01*
X76318922Y-103851961D02*
X76318922Y-103756723D01*
X76318922Y-103756723D02*
X76366541Y-103661485D01*
X76366541Y-103661485D02*
X76461779Y-103613866D01*
X76461779Y-103613866D02*
X76699874Y-103613866D01*
X76699874Y-103613866D02*
X76795112Y-103566247D01*
X77271303Y-103994819D02*
X77271303Y-103328152D01*
X77271303Y-103518628D02*
X77318922Y-103423390D01*
X77318922Y-103423390D02*
X77366541Y-103375771D01*
X77366541Y-103375771D02*
X77461779Y-103328152D01*
X77461779Y-103328152D02*
X77557017Y-103328152D01*
X77795113Y-103328152D02*
X78033208Y-103994819D01*
X78271303Y-103328152D02*
X78033208Y-103994819D01*
X78033208Y-103994819D02*
X77937970Y-104232914D01*
X77937970Y-104232914D02*
X77890351Y-104280533D01*
X77890351Y-104280533D02*
X77795113Y-104328152D01*
X113485588Y-103994819D02*
X112914160Y-103994819D01*
X113199874Y-103994819D02*
X113199874Y-102994819D01*
X113199874Y-102994819D02*
X113104636Y-103137676D01*
X113104636Y-103137676D02*
X113009398Y-103232914D01*
X113009398Y-103232914D02*
X112914160Y-103280533D01*
X113866541Y-103090057D02*
X113914160Y-103042438D01*
X113914160Y-103042438D02*
X114009398Y-102994819D01*
X114009398Y-102994819D02*
X114247493Y-102994819D01*
X114247493Y-102994819D02*
X114342731Y-103042438D01*
X114342731Y-103042438D02*
X114390350Y-103090057D01*
X114390350Y-103090057D02*
X114437969Y-103185295D01*
X114437969Y-103185295D02*
X114437969Y-103280533D01*
X114437969Y-103280533D02*
X114390350Y-103423390D01*
X114390350Y-103423390D02*
X113818922Y-103994819D01*
X113818922Y-103994819D02*
X114437969Y-103994819D01*
X114723684Y-102994819D02*
X115057017Y-103994819D01*
X115057017Y-103994819D02*
X115390350Y-102994819D01*
X116437970Y-103947200D02*
X116580827Y-103994819D01*
X116580827Y-103994819D02*
X116818922Y-103994819D01*
X116818922Y-103994819D02*
X116914160Y-103947200D01*
X116914160Y-103947200D02*
X116961779Y-103899580D01*
X116961779Y-103899580D02*
X117009398Y-103804342D01*
X117009398Y-103804342D02*
X117009398Y-103709104D01*
X117009398Y-103709104D02*
X116961779Y-103613866D01*
X116961779Y-103613866D02*
X116914160Y-103566247D01*
X116914160Y-103566247D02*
X116818922Y-103518628D01*
X116818922Y-103518628D02*
X116628446Y-103471009D01*
X116628446Y-103471009D02*
X116533208Y-103423390D01*
X116533208Y-103423390D02*
X116485589Y-103375771D01*
X116485589Y-103375771D02*
X116437970Y-103280533D01*
X116437970Y-103280533D02*
X116437970Y-103185295D01*
X116437970Y-103185295D02*
X116485589Y-103090057D01*
X116485589Y-103090057D02*
X116533208Y-103042438D01*
X116533208Y-103042438D02*
X116628446Y-102994819D01*
X116628446Y-102994819D02*
X116866541Y-102994819D01*
X116866541Y-102994819D02*
X117009398Y-103042438D01*
X117818922Y-103947200D02*
X117723684Y-103994819D01*
X117723684Y-103994819D02*
X117533208Y-103994819D01*
X117533208Y-103994819D02*
X117437970Y-103947200D01*
X117437970Y-103947200D02*
X117390351Y-103851961D01*
X117390351Y-103851961D02*
X117390351Y-103471009D01*
X117390351Y-103471009D02*
X117437970Y-103375771D01*
X117437970Y-103375771D02*
X117533208Y-103328152D01*
X117533208Y-103328152D02*
X117723684Y-103328152D01*
X117723684Y-103328152D02*
X117818922Y-103375771D01*
X117818922Y-103375771D02*
X117866541Y-103471009D01*
X117866541Y-103471009D02*
X117866541Y-103566247D01*
X117866541Y-103566247D02*
X117390351Y-103661485D01*
X118723684Y-103947200D02*
X118628446Y-103994819D01*
X118628446Y-103994819D02*
X118437970Y-103994819D01*
X118437970Y-103994819D02*
X118342732Y-103947200D01*
X118342732Y-103947200D02*
X118295113Y-103899580D01*
X118295113Y-103899580D02*
X118247494Y-103804342D01*
X118247494Y-103804342D02*
X118247494Y-103518628D01*
X118247494Y-103518628D02*
X118295113Y-103423390D01*
X118295113Y-103423390D02*
X118342732Y-103375771D01*
X118342732Y-103375771D02*
X118437970Y-103328152D01*
X118437970Y-103328152D02*
X118628446Y-103328152D01*
X118628446Y-103328152D02*
X118723684Y-103375771D01*
X119295113Y-103994819D02*
X119199875Y-103947200D01*
X119199875Y-103947200D02*
X119152256Y-103899580D01*
X119152256Y-103899580D02*
X119104637Y-103804342D01*
X119104637Y-103804342D02*
X119104637Y-103518628D01*
X119104637Y-103518628D02*
X119152256Y-103423390D01*
X119152256Y-103423390D02*
X119199875Y-103375771D01*
X119199875Y-103375771D02*
X119295113Y-103328152D01*
X119295113Y-103328152D02*
X119437970Y-103328152D01*
X119437970Y-103328152D02*
X119533208Y-103375771D01*
X119533208Y-103375771D02*
X119580827Y-103423390D01*
X119580827Y-103423390D02*
X119628446Y-103518628D01*
X119628446Y-103518628D02*
X119628446Y-103804342D01*
X119628446Y-103804342D02*
X119580827Y-103899580D01*
X119580827Y-103899580D02*
X119533208Y-103947200D01*
X119533208Y-103947200D02*
X119437970Y-103994819D01*
X119437970Y-103994819D02*
X119295113Y-103994819D01*
X120057018Y-103328152D02*
X120057018Y-103994819D01*
X120057018Y-103423390D02*
X120104637Y-103375771D01*
X120104637Y-103375771D02*
X120199875Y-103328152D01*
X120199875Y-103328152D02*
X120342732Y-103328152D01*
X120342732Y-103328152D02*
X120437970Y-103375771D01*
X120437970Y-103375771D02*
X120485589Y-103471009D01*
X120485589Y-103471009D02*
X120485589Y-103994819D01*
X121390351Y-103994819D02*
X121390351Y-102994819D01*
X121390351Y-103947200D02*
X121295113Y-103994819D01*
X121295113Y-103994819D02*
X121104637Y-103994819D01*
X121104637Y-103994819D02*
X121009399Y-103947200D01*
X121009399Y-103947200D02*
X120961780Y-103899580D01*
X120961780Y-103899580D02*
X120914161Y-103804342D01*
X120914161Y-103804342D02*
X120914161Y-103518628D01*
X120914161Y-103518628D02*
X120961780Y-103423390D01*
X120961780Y-103423390D02*
X121009399Y-103375771D01*
X121009399Y-103375771D02*
X121104637Y-103328152D01*
X121104637Y-103328152D02*
X121295113Y-103328152D01*
X121295113Y-103328152D02*
X121390351Y-103375771D01*
X122295113Y-103994819D02*
X122295113Y-103471009D01*
X122295113Y-103471009D02*
X122247494Y-103375771D01*
X122247494Y-103375771D02*
X122152256Y-103328152D01*
X122152256Y-103328152D02*
X121961780Y-103328152D01*
X121961780Y-103328152D02*
X121866542Y-103375771D01*
X122295113Y-103947200D02*
X122199875Y-103994819D01*
X122199875Y-103994819D02*
X121961780Y-103994819D01*
X121961780Y-103994819D02*
X121866542Y-103947200D01*
X121866542Y-103947200D02*
X121818923Y-103851961D01*
X121818923Y-103851961D02*
X121818923Y-103756723D01*
X121818923Y-103756723D02*
X121866542Y-103661485D01*
X121866542Y-103661485D02*
X121961780Y-103613866D01*
X121961780Y-103613866D02*
X122199875Y-103613866D01*
X122199875Y-103613866D02*
X122295113Y-103566247D01*
X122771304Y-103994819D02*
X122771304Y-103328152D01*
X122771304Y-103518628D02*
X122818923Y-103423390D01*
X122818923Y-103423390D02*
X122866542Y-103375771D01*
X122866542Y-103375771D02*
X122961780Y-103328152D01*
X122961780Y-103328152D02*
X123057018Y-103328152D01*
X123295114Y-103328152D02*
X123533209Y-103994819D01*
X123771304Y-103328152D02*
X123533209Y-103994819D01*
X123533209Y-103994819D02*
X123437971Y-104232914D01*
X123437971Y-104232914D02*
X123390352Y-104280533D01*
X123390352Y-104280533D02*
X123295114Y-104328152D01*
X118902255Y-77244819D02*
X118997493Y-77244819D01*
X118997493Y-77244819D02*
X119092731Y-77292438D01*
X119092731Y-77292438D02*
X119140350Y-77340057D01*
X119140350Y-77340057D02*
X119187969Y-77435295D01*
X119187969Y-77435295D02*
X119235588Y-77625771D01*
X119235588Y-77625771D02*
X119235588Y-77863866D01*
X119235588Y-77863866D02*
X119187969Y-78054342D01*
X119187969Y-78054342D02*
X119140350Y-78149580D01*
X119140350Y-78149580D02*
X119092731Y-78197200D01*
X119092731Y-78197200D02*
X118997493Y-78244819D01*
X118997493Y-78244819D02*
X118902255Y-78244819D01*
X118902255Y-78244819D02*
X118807017Y-78197200D01*
X118807017Y-78197200D02*
X118759398Y-78149580D01*
X118759398Y-78149580D02*
X118711779Y-78054342D01*
X118711779Y-78054342D02*
X118664160Y-77863866D01*
X118664160Y-77863866D02*
X118664160Y-77625771D01*
X118664160Y-77625771D02*
X118711779Y-77435295D01*
X118711779Y-77435295D02*
X118759398Y-77340057D01*
X118759398Y-77340057D02*
X118807017Y-77292438D01*
X118807017Y-77292438D02*
X118902255Y-77244819D01*
X119521303Y-77244819D02*
X119854636Y-78244819D01*
X119854636Y-78244819D02*
X120187969Y-77244819D01*
X118485588Y-85994819D02*
X117914160Y-85994819D01*
X118199874Y-85994819D02*
X118199874Y-84994819D01*
X118199874Y-84994819D02*
X118104636Y-85137676D01*
X118104636Y-85137676D02*
X118009398Y-85232914D01*
X118009398Y-85232914D02*
X117914160Y-85280533D01*
X118866541Y-85090057D02*
X118914160Y-85042438D01*
X118914160Y-85042438D02*
X119009398Y-84994819D01*
X119009398Y-84994819D02*
X119247493Y-84994819D01*
X119247493Y-84994819D02*
X119342731Y-85042438D01*
X119342731Y-85042438D02*
X119390350Y-85090057D01*
X119390350Y-85090057D02*
X119437969Y-85185295D01*
X119437969Y-85185295D02*
X119437969Y-85280533D01*
X119437969Y-85280533D02*
X119390350Y-85423390D01*
X119390350Y-85423390D02*
X118818922Y-85994819D01*
X118818922Y-85994819D02*
X119437969Y-85994819D01*
X119723684Y-84994819D02*
X120057017Y-85994819D01*
X120057017Y-85994819D02*
X120390350Y-84994819D01*
X61199580Y-113656666D02*
X61247200Y-113704285D01*
X61247200Y-113704285D02*
X61294819Y-113847142D01*
X61294819Y-113847142D02*
X61294819Y-113942380D01*
X61294819Y-113942380D02*
X61247200Y-114085237D01*
X61247200Y-114085237D02*
X61151961Y-114180475D01*
X61151961Y-114180475D02*
X61056723Y-114228094D01*
X61056723Y-114228094D02*
X60866247Y-114275713D01*
X60866247Y-114275713D02*
X60723390Y-114275713D01*
X60723390Y-114275713D02*
X60532914Y-114228094D01*
X60532914Y-114228094D02*
X60437676Y-114180475D01*
X60437676Y-114180475D02*
X60342438Y-114085237D01*
X60342438Y-114085237D02*
X60294819Y-113942380D01*
X60294819Y-113942380D02*
X60294819Y-113847142D01*
X60294819Y-113847142D02*
X60342438Y-113704285D01*
X60342438Y-113704285D02*
X60390057Y-113656666D01*
X60628152Y-112799523D02*
X61294819Y-112799523D01*
X60247200Y-113037618D02*
X60961485Y-113275713D01*
X60961485Y-113275713D02*
X60961485Y-112656666D01*
X140211905Y-88314819D02*
X140211905Y-87314819D01*
X140211905Y-87314819D02*
X140450000Y-87314819D01*
X140450000Y-87314819D02*
X140592857Y-87362438D01*
X140592857Y-87362438D02*
X140688095Y-87457676D01*
X140688095Y-87457676D02*
X140735714Y-87552914D01*
X140735714Y-87552914D02*
X140783333Y-87743390D01*
X140783333Y-87743390D02*
X140783333Y-87886247D01*
X140783333Y-87886247D02*
X140735714Y-88076723D01*
X140735714Y-88076723D02*
X140688095Y-88171961D01*
X140688095Y-88171961D02*
X140592857Y-88267200D01*
X140592857Y-88267200D02*
X140450000Y-88314819D01*
X140450000Y-88314819D02*
X140211905Y-88314819D01*
X141164286Y-87410057D02*
X141211905Y-87362438D01*
X141211905Y-87362438D02*
X141307143Y-87314819D01*
X141307143Y-87314819D02*
X141545238Y-87314819D01*
X141545238Y-87314819D02*
X141640476Y-87362438D01*
X141640476Y-87362438D02*
X141688095Y-87410057D01*
X141688095Y-87410057D02*
X141735714Y-87505295D01*
X141735714Y-87505295D02*
X141735714Y-87600533D01*
X141735714Y-87600533D02*
X141688095Y-87743390D01*
X141688095Y-87743390D02*
X141116667Y-88314819D01*
X141116667Y-88314819D02*
X141735714Y-88314819D01*
X155350833Y-90409580D02*
X155303214Y-90457200D01*
X155303214Y-90457200D02*
X155160357Y-90504819D01*
X155160357Y-90504819D02*
X155065119Y-90504819D01*
X155065119Y-90504819D02*
X154922262Y-90457200D01*
X154922262Y-90457200D02*
X154827024Y-90361961D01*
X154827024Y-90361961D02*
X154779405Y-90266723D01*
X154779405Y-90266723D02*
X154731786Y-90076247D01*
X154731786Y-90076247D02*
X154731786Y-89933390D01*
X154731786Y-89933390D02*
X154779405Y-89742914D01*
X154779405Y-89742914D02*
X154827024Y-89647676D01*
X154827024Y-89647676D02*
X154922262Y-89552438D01*
X154922262Y-89552438D02*
X155065119Y-89504819D01*
X155065119Y-89504819D02*
X155160357Y-89504819D01*
X155160357Y-89504819D02*
X155303214Y-89552438D01*
X155303214Y-89552438D02*
X155350833Y-89600057D01*
X155731786Y-89600057D02*
X155779405Y-89552438D01*
X155779405Y-89552438D02*
X155874643Y-89504819D01*
X155874643Y-89504819D02*
X156112738Y-89504819D01*
X156112738Y-89504819D02*
X156207976Y-89552438D01*
X156207976Y-89552438D02*
X156255595Y-89600057D01*
X156255595Y-89600057D02*
X156303214Y-89695295D01*
X156303214Y-89695295D02*
X156303214Y-89790533D01*
X156303214Y-89790533D02*
X156255595Y-89933390D01*
X156255595Y-89933390D02*
X155684167Y-90504819D01*
X155684167Y-90504819D02*
X156303214Y-90504819D01*
X49024819Y-93053333D02*
X49739104Y-93053333D01*
X49739104Y-93053333D02*
X49881961Y-93100952D01*
X49881961Y-93100952D02*
X49977200Y-93196190D01*
X49977200Y-93196190D02*
X50024819Y-93339047D01*
X50024819Y-93339047D02*
X50024819Y-93434285D01*
X49120057Y-92624761D02*
X49072438Y-92577142D01*
X49072438Y-92577142D02*
X49024819Y-92481904D01*
X49024819Y-92481904D02*
X49024819Y-92243809D01*
X49024819Y-92243809D02*
X49072438Y-92148571D01*
X49072438Y-92148571D02*
X49120057Y-92100952D01*
X49120057Y-92100952D02*
X49215295Y-92053333D01*
X49215295Y-92053333D02*
X49310533Y-92053333D01*
X49310533Y-92053333D02*
X49453390Y-92100952D01*
X49453390Y-92100952D02*
X50024819Y-92672380D01*
X50024819Y-92672380D02*
X50024819Y-92053333D01*
X140171905Y-120654819D02*
X140171905Y-119654819D01*
X140171905Y-119654819D02*
X140410000Y-119654819D01*
X140410000Y-119654819D02*
X140552857Y-119702438D01*
X140552857Y-119702438D02*
X140648095Y-119797676D01*
X140648095Y-119797676D02*
X140695714Y-119892914D01*
X140695714Y-119892914D02*
X140743333Y-120083390D01*
X140743333Y-120083390D02*
X140743333Y-120226247D01*
X140743333Y-120226247D02*
X140695714Y-120416723D01*
X140695714Y-120416723D02*
X140648095Y-120511961D01*
X140648095Y-120511961D02*
X140552857Y-120607200D01*
X140552857Y-120607200D02*
X140410000Y-120654819D01*
X140410000Y-120654819D02*
X140171905Y-120654819D01*
X141600476Y-119988152D02*
X141600476Y-120654819D01*
X141362381Y-119607200D02*
X141124286Y-120321485D01*
X141124286Y-120321485D02*
X141743333Y-120321485D01*
X182054819Y-103953333D02*
X182769104Y-103953333D01*
X182769104Y-103953333D02*
X182911961Y-104000952D01*
X182911961Y-104000952D02*
X183007200Y-104096190D01*
X183007200Y-104096190D02*
X183054819Y-104239047D01*
X183054819Y-104239047D02*
X183054819Y-104334285D01*
X183054819Y-102953333D02*
X183054819Y-103524761D01*
X183054819Y-103239047D02*
X182054819Y-103239047D01*
X182054819Y-103239047D02*
X182197676Y-103334285D01*
X182197676Y-103334285D02*
X182292914Y-103429523D01*
X182292914Y-103429523D02*
X182340533Y-103524761D01*
D11*
%TO.C,U2*%
X165010000Y-124730000D02*
X165010000Y-120089000D01*
X165010000Y-124730000D02*
X154770000Y-124730000D01*
X165010000Y-123220000D02*
X154770000Y-123220000D01*
X165010000Y-120089000D02*
X154770000Y-120089000D01*
X161740000Y-124730000D02*
X161740000Y-123220000D01*
X158039000Y-124730000D02*
X158039000Y-123220000D01*
X154770000Y-124730000D02*
X154770000Y-120089000D01*
%TO.C,R1*%
X178072936Y-88515000D02*
X178527064Y-88515000D01*
X178072936Y-89985000D02*
X178527064Y-89985000D01*
%TO.C,C5*%
X142304569Y-116065000D02*
X141004569Y-116065000D01*
X141654569Y-116715000D02*
X141654569Y-115415000D01*
X135220000Y-118930000D02*
X135220000Y-105770000D01*
X135180000Y-118930000D02*
X135180000Y-105770000D01*
X135140000Y-118930000D02*
X135140000Y-105770000D01*
X135100000Y-118929000D02*
X135100000Y-105771000D01*
X135060000Y-118929000D02*
X135060000Y-105771000D01*
X135020000Y-118927000D02*
X135020000Y-105773000D01*
X134980000Y-118926000D02*
X134980000Y-105774000D01*
X134940000Y-118925000D02*
X134940000Y-105775000D01*
X134900000Y-118923000D02*
X134900000Y-105777000D01*
X134860000Y-118921000D02*
X134860000Y-105779000D01*
X134820000Y-118918000D02*
X134820000Y-105782000D01*
X134780000Y-118916000D02*
X134780000Y-105784000D01*
X134740000Y-118913000D02*
X134740000Y-105787000D01*
X134700000Y-118910000D02*
X134700000Y-105790000D01*
X134660000Y-118907000D02*
X134660000Y-105793000D01*
X134620000Y-118903000D02*
X134620000Y-105797000D01*
X134580000Y-118899000D02*
X134580000Y-105801000D01*
X134540000Y-118895000D02*
X134540000Y-105805000D01*
X134499000Y-118891000D02*
X134499000Y-105809000D01*
X134459000Y-118887000D02*
X134459000Y-105813000D01*
X134419000Y-118882000D02*
X134419000Y-105818000D01*
X134379000Y-118877000D02*
X134379000Y-105823000D01*
X134339000Y-118872000D02*
X134339000Y-105828000D01*
X134299000Y-118866000D02*
X134299000Y-105834000D01*
X134259000Y-118861000D02*
X134259000Y-105839000D01*
X134219000Y-118855000D02*
X134219000Y-105845000D01*
X134179000Y-118848000D02*
X134179000Y-105852000D01*
X134139000Y-118842000D02*
X134139000Y-113790000D01*
X134139000Y-110910000D02*
X134139000Y-105858000D01*
X134099000Y-118835000D02*
X134099000Y-113790000D01*
X134099000Y-110910000D02*
X134099000Y-105865000D01*
X134059000Y-118828000D02*
X134059000Y-113790000D01*
X134059000Y-110910000D02*
X134059000Y-105872000D01*
X134019000Y-118821000D02*
X134019000Y-113790000D01*
X134019000Y-110910000D02*
X134019000Y-105879000D01*
X133979000Y-118813000D02*
X133979000Y-113790000D01*
X133979000Y-110910000D02*
X133979000Y-105887000D01*
X133939000Y-118806000D02*
X133939000Y-113790000D01*
X133939000Y-110910000D02*
X133939000Y-105894000D01*
X133899000Y-118798000D02*
X133899000Y-113790000D01*
X133899000Y-110910000D02*
X133899000Y-105902000D01*
X133859000Y-118789000D02*
X133859000Y-113790000D01*
X133859000Y-110910000D02*
X133859000Y-105911000D01*
X133819000Y-118781000D02*
X133819000Y-113790000D01*
X133819000Y-110910000D02*
X133819000Y-105919000D01*
X133779000Y-118772000D02*
X133779000Y-113790000D01*
X133779000Y-110910000D02*
X133779000Y-105928000D01*
X133739000Y-118763000D02*
X133739000Y-113790000D01*
X133739000Y-110910000D02*
X133739000Y-105937000D01*
X133699000Y-118754000D02*
X133699000Y-113790000D01*
X133699000Y-110910000D02*
X133699000Y-105946000D01*
X133659000Y-118744000D02*
X133659000Y-113790000D01*
X133659000Y-110910000D02*
X133659000Y-105956000D01*
X133619000Y-118734000D02*
X133619000Y-113790000D01*
X133619000Y-110910000D02*
X133619000Y-105966000D01*
X133579000Y-118724000D02*
X133579000Y-113790000D01*
X133579000Y-110910000D02*
X133579000Y-105976000D01*
X133539000Y-118714000D02*
X133539000Y-113790000D01*
X133539000Y-110910000D02*
X133539000Y-105986000D01*
X133499000Y-118703000D02*
X133499000Y-113790000D01*
X133499000Y-110910000D02*
X133499000Y-105997000D01*
X133459000Y-118692000D02*
X133459000Y-113790000D01*
X133459000Y-110910000D02*
X133459000Y-106008000D01*
X133419000Y-118681000D02*
X133419000Y-113790000D01*
X133419000Y-110910000D02*
X133419000Y-106019000D01*
X133379000Y-118670000D02*
X133379000Y-113790000D01*
X133379000Y-110910000D02*
X133379000Y-106030000D01*
X133339000Y-118658000D02*
X133339000Y-113790000D01*
X133339000Y-110910000D02*
X133339000Y-106042000D01*
X133299000Y-118646000D02*
X133299000Y-113790000D01*
X133299000Y-110910000D02*
X133299000Y-106054000D01*
X133259000Y-118634000D02*
X133259000Y-113790000D01*
X133259000Y-110910000D02*
X133259000Y-106066000D01*
X133219000Y-118621000D02*
X133219000Y-113790000D01*
X133219000Y-110910000D02*
X133219000Y-106079000D01*
X133179000Y-118608000D02*
X133179000Y-113790000D01*
X133179000Y-110910000D02*
X133179000Y-106092000D01*
X133139000Y-118595000D02*
X133139000Y-113790000D01*
X133139000Y-110910000D02*
X133139000Y-106105000D01*
X133099000Y-118582000D02*
X133099000Y-113790000D01*
X133099000Y-110910000D02*
X133099000Y-106118000D01*
X133059000Y-118568000D02*
X133059000Y-113790000D01*
X133059000Y-110910000D02*
X133059000Y-106132000D01*
X133019000Y-118554000D02*
X133019000Y-113790000D01*
X133019000Y-110910000D02*
X133019000Y-106146000D01*
X132979000Y-118540000D02*
X132979000Y-113790000D01*
X132979000Y-110910000D02*
X132979000Y-106160000D01*
X132939000Y-118525000D02*
X132939000Y-113790000D01*
X132939000Y-110910000D02*
X132939000Y-106175000D01*
X132899000Y-118511000D02*
X132899000Y-113790000D01*
X132899000Y-110910000D02*
X132899000Y-106189000D01*
X132859000Y-118496000D02*
X132859000Y-113790000D01*
X132859000Y-110910000D02*
X132859000Y-106204000D01*
X132819000Y-118480000D02*
X132819000Y-113790000D01*
X132819000Y-110910000D02*
X132819000Y-106220000D01*
X132779000Y-118464000D02*
X132779000Y-113790000D01*
X132779000Y-110910000D02*
X132779000Y-106236000D01*
X132739000Y-118448000D02*
X132739000Y-113790000D01*
X132739000Y-110910000D02*
X132739000Y-106252000D01*
X132699000Y-118432000D02*
X132699000Y-113790000D01*
X132699000Y-110910000D02*
X132699000Y-106268000D01*
X132659000Y-118415000D02*
X132659000Y-113790000D01*
X132659000Y-110910000D02*
X132659000Y-106285000D01*
X132619000Y-118399000D02*
X132619000Y-113790000D01*
X132619000Y-110910000D02*
X132619000Y-106301000D01*
X132579000Y-118381000D02*
X132579000Y-113790000D01*
X132579000Y-110910000D02*
X132579000Y-106319000D01*
X132539000Y-118364000D02*
X132539000Y-113790000D01*
X132539000Y-110910000D02*
X132539000Y-106336000D01*
X132499000Y-118346000D02*
X132499000Y-113790000D01*
X132499000Y-110910000D02*
X132499000Y-106354000D01*
X132459000Y-118328000D02*
X132459000Y-113790000D01*
X132459000Y-110910000D02*
X132459000Y-106372000D01*
X132419000Y-118309000D02*
X132419000Y-113790000D01*
X132419000Y-110910000D02*
X132419000Y-106391000D01*
X132379000Y-118290000D02*
X132379000Y-113790000D01*
X132379000Y-110910000D02*
X132379000Y-106410000D01*
X132339000Y-118271000D02*
X132339000Y-113790000D01*
X132339000Y-110910000D02*
X132339000Y-106429000D01*
X132299000Y-118252000D02*
X132299000Y-113790000D01*
X132299000Y-110910000D02*
X132299000Y-106448000D01*
X132259000Y-118232000D02*
X132259000Y-113790000D01*
X132259000Y-110910000D02*
X132259000Y-106468000D01*
X132219000Y-118212000D02*
X132219000Y-113790000D01*
X132219000Y-110910000D02*
X132219000Y-106488000D01*
X132179000Y-118191000D02*
X132179000Y-113790000D01*
X132179000Y-110910000D02*
X132179000Y-106509000D01*
X132139000Y-118170000D02*
X132139000Y-113790000D01*
X132139000Y-110910000D02*
X132139000Y-106530000D01*
X132099000Y-118149000D02*
X132099000Y-113790000D01*
X132099000Y-110910000D02*
X132099000Y-106551000D01*
X132059000Y-118128000D02*
X132059000Y-113790000D01*
X132059000Y-110910000D02*
X132059000Y-106572000D01*
X132019000Y-118106000D02*
X132019000Y-113790000D01*
X132019000Y-110910000D02*
X132019000Y-106594000D01*
X131979000Y-118083000D02*
X131979000Y-113790000D01*
X131979000Y-110910000D02*
X131979000Y-106617000D01*
X131939000Y-118061000D02*
X131939000Y-113790000D01*
X131939000Y-110910000D02*
X131939000Y-106639000D01*
X131899000Y-118038000D02*
X131899000Y-113790000D01*
X131899000Y-110910000D02*
X131899000Y-106662000D01*
X131859000Y-118014000D02*
X131859000Y-113790000D01*
X131859000Y-110910000D02*
X131859000Y-106686000D01*
X131819000Y-117991000D02*
X131819000Y-113790000D01*
X131819000Y-110910000D02*
X131819000Y-106709000D01*
X131779000Y-117967000D02*
X131779000Y-113790000D01*
X131779000Y-110910000D02*
X131779000Y-106733000D01*
X131739000Y-117942000D02*
X131739000Y-113790000D01*
X131739000Y-110910000D02*
X131739000Y-106758000D01*
X131699000Y-117917000D02*
X131699000Y-113790000D01*
X131699000Y-110910000D02*
X131699000Y-106783000D01*
X131659000Y-117892000D02*
X131659000Y-113790000D01*
X131659000Y-110910000D02*
X131659000Y-106808000D01*
X131619000Y-117866000D02*
X131619000Y-113790000D01*
X131619000Y-110910000D02*
X131619000Y-106834000D01*
X131579000Y-117840000D02*
X131579000Y-113790000D01*
X131579000Y-110910000D02*
X131579000Y-106860000D01*
X131539000Y-117813000D02*
X131539000Y-113790000D01*
X131539000Y-110910000D02*
X131539000Y-106887000D01*
X131499000Y-117786000D02*
X131499000Y-113790000D01*
X131499000Y-110910000D02*
X131499000Y-106914000D01*
X131459000Y-117759000D02*
X131459000Y-113790000D01*
X131459000Y-110910000D02*
X131459000Y-106941000D01*
X131419000Y-117731000D02*
X131419000Y-113790000D01*
X131419000Y-110910000D02*
X131419000Y-106969000D01*
X131379000Y-117703000D02*
X131379000Y-113790000D01*
X131379000Y-110910000D02*
X131379000Y-106997000D01*
X131339000Y-117674000D02*
X131339000Y-113790000D01*
X131339000Y-110910000D02*
X131339000Y-107026000D01*
X131299000Y-117645000D02*
X131299000Y-113790000D01*
X131299000Y-110910000D02*
X131299000Y-107055000D01*
X131259000Y-117615000D02*
X131259000Y-107085000D01*
X131219000Y-117585000D02*
X131219000Y-107115000D01*
X131179000Y-117555000D02*
X131179000Y-107145000D01*
X131139000Y-117524000D02*
X131139000Y-107176000D01*
X131099000Y-117492000D02*
X131099000Y-107208000D01*
X131059000Y-117460000D02*
X131059000Y-107240000D01*
X131019000Y-117428000D02*
X131019000Y-107272000D01*
X130979000Y-117394000D02*
X130979000Y-107306000D01*
X130939000Y-117361000D02*
X130939000Y-107339000D01*
X130899000Y-117327000D02*
X130899000Y-107373000D01*
X130859000Y-117292000D02*
X130859000Y-107408000D01*
X130819000Y-117257000D02*
X130819000Y-107443000D01*
X130779000Y-117221000D02*
X130779000Y-107479000D01*
X130739000Y-117184000D02*
X130739000Y-107516000D01*
X130699000Y-117147000D02*
X130699000Y-107553000D01*
X130659000Y-117110000D02*
X130659000Y-107590000D01*
X130619000Y-117071000D02*
X130619000Y-107629000D01*
X130579000Y-117032000D02*
X130579000Y-107668000D01*
X130539000Y-116993000D02*
X130539000Y-107707000D01*
X130499000Y-116952000D02*
X130499000Y-107748000D01*
X130459000Y-116911000D02*
X130459000Y-107789000D01*
X130419000Y-116869000D02*
X130419000Y-107831000D01*
X130379000Y-116827000D02*
X130379000Y-107873000D01*
X130339000Y-116784000D02*
X130339000Y-107916000D01*
X130299000Y-116740000D02*
X130299000Y-107960000D01*
X130259000Y-116695000D02*
X130259000Y-108005000D01*
X130219000Y-116649000D02*
X130219000Y-108051000D01*
X130179000Y-116603000D02*
X130179000Y-108097000D01*
X130139000Y-116555000D02*
X130139000Y-108145000D01*
X130099000Y-116507000D02*
X130099000Y-108193000D01*
X130059000Y-116458000D02*
X130059000Y-108242000D01*
X130019000Y-116407000D02*
X130019000Y-108293000D01*
X129979000Y-116356000D02*
X129979000Y-108344000D01*
X129939000Y-116304000D02*
X129939000Y-108396000D01*
X129899000Y-116250000D02*
X129899000Y-108450000D01*
X129859000Y-116196000D02*
X129859000Y-108504000D01*
X129819000Y-116140000D02*
X129819000Y-108560000D01*
X129779000Y-116083000D02*
X129779000Y-108617000D01*
X129739000Y-116025000D02*
X129739000Y-108675000D01*
X129699000Y-115965000D02*
X129699000Y-108735000D01*
X129659000Y-115904000D02*
X129659000Y-108796000D01*
X129619000Y-115841000D02*
X129619000Y-108859000D01*
X129579000Y-115777000D02*
X129579000Y-108923000D01*
X129539000Y-115711000D02*
X129539000Y-108989000D01*
X129499000Y-115643000D02*
X129499000Y-109057000D01*
X129459000Y-115573000D02*
X129459000Y-109127000D01*
X129419000Y-115502000D02*
X129419000Y-109198000D01*
X129379000Y-115428000D02*
X129379000Y-109272000D01*
X129339000Y-115352000D02*
X129339000Y-109348000D01*
X129299000Y-115273000D02*
X129299000Y-109427000D01*
X129259000Y-115192000D02*
X129259000Y-109508000D01*
X129219000Y-115108000D02*
X129219000Y-109592000D01*
X129179000Y-115020000D02*
X129179000Y-109680000D01*
X129139000Y-114929000D02*
X129139000Y-109771000D01*
X129099000Y-114834000D02*
X129099000Y-109866000D01*
X129059000Y-114735000D02*
X129059000Y-109965000D01*
X129019000Y-114631000D02*
X129019000Y-110069000D01*
X128979000Y-114521000D02*
X128979000Y-110179000D01*
X128939000Y-114405000D02*
X128939000Y-110295000D01*
X128899000Y-114281000D02*
X128899000Y-110419000D01*
X128859000Y-114148000D02*
X128859000Y-110552000D01*
X128819000Y-114003000D02*
X128819000Y-110697000D01*
X128779000Y-113844000D02*
X128779000Y-110856000D01*
X128739000Y-113665000D02*
X128739000Y-111035000D01*
X128699000Y-113457000D02*
X128699000Y-111243000D01*
X128659000Y-113200000D02*
X128659000Y-111500000D01*
X128619000Y-112825000D02*
X128619000Y-111875000D01*
X141840000Y-112350000D02*
G75*
G03*
X141840000Y-112350000I-6620000J0D01*
G01*
%TO.C,D3*%
X173625000Y-94090000D02*
X173625000Y-92170000D01*
X173625000Y-92170000D02*
X170940000Y-92170000D01*
X170940000Y-94090000D02*
X173625000Y-94090000D01*
%TO.C,R2*%
X171282936Y-114140000D02*
X175637064Y-114140000D01*
X171282936Y-117560000D02*
X175637064Y-117560000D01*
%TO.C,C1*%
X142304569Y-100035000D02*
X141004569Y-100035000D01*
X141654569Y-100685000D02*
X141654569Y-99385000D01*
X135220000Y-102900000D02*
X135220000Y-89740000D01*
X135180000Y-102900000D02*
X135180000Y-89740000D01*
X135140000Y-102900000D02*
X135140000Y-89740000D01*
X135100000Y-102899000D02*
X135100000Y-89741000D01*
X135060000Y-102899000D02*
X135060000Y-89741000D01*
X135020000Y-102897000D02*
X135020000Y-89743000D01*
X134980000Y-102896000D02*
X134980000Y-89744000D01*
X134940000Y-102895000D02*
X134940000Y-89745000D01*
X134900000Y-102893000D02*
X134900000Y-89747000D01*
X134860000Y-102891000D02*
X134860000Y-89749000D01*
X134820000Y-102888000D02*
X134820000Y-89752000D01*
X134780000Y-102886000D02*
X134780000Y-89754000D01*
X134740000Y-102883000D02*
X134740000Y-89757000D01*
X134700000Y-102880000D02*
X134700000Y-89760000D01*
X134660000Y-102877000D02*
X134660000Y-89763000D01*
X134620000Y-102873000D02*
X134620000Y-89767000D01*
X134580000Y-102869000D02*
X134580000Y-89771000D01*
X134540000Y-102865000D02*
X134540000Y-89775000D01*
X134499000Y-102861000D02*
X134499000Y-89779000D01*
X134459000Y-102857000D02*
X134459000Y-89783000D01*
X134419000Y-102852000D02*
X134419000Y-89788000D01*
X134379000Y-102847000D02*
X134379000Y-89793000D01*
X134339000Y-102842000D02*
X134339000Y-89798000D01*
X134299000Y-102836000D02*
X134299000Y-89804000D01*
X134259000Y-102831000D02*
X134259000Y-89809000D01*
X134219000Y-102825000D02*
X134219000Y-89815000D01*
X134179000Y-102818000D02*
X134179000Y-89822000D01*
X134139000Y-102812000D02*
X134139000Y-97760000D01*
X134139000Y-94880000D02*
X134139000Y-89828000D01*
X134099000Y-102805000D02*
X134099000Y-97760000D01*
X134099000Y-94880000D02*
X134099000Y-89835000D01*
X134059000Y-102798000D02*
X134059000Y-97760000D01*
X134059000Y-94880000D02*
X134059000Y-89842000D01*
X134019000Y-102791000D02*
X134019000Y-97760000D01*
X134019000Y-94880000D02*
X134019000Y-89849000D01*
X133979000Y-102783000D02*
X133979000Y-97760000D01*
X133979000Y-94880000D02*
X133979000Y-89857000D01*
X133939000Y-102776000D02*
X133939000Y-97760000D01*
X133939000Y-94880000D02*
X133939000Y-89864000D01*
X133899000Y-102768000D02*
X133899000Y-97760000D01*
X133899000Y-94880000D02*
X133899000Y-89872000D01*
X133859000Y-102759000D02*
X133859000Y-97760000D01*
X133859000Y-94880000D02*
X133859000Y-89881000D01*
X133819000Y-102751000D02*
X133819000Y-97760000D01*
X133819000Y-94880000D02*
X133819000Y-89889000D01*
X133779000Y-102742000D02*
X133779000Y-97760000D01*
X133779000Y-94880000D02*
X133779000Y-89898000D01*
X133739000Y-102733000D02*
X133739000Y-97760000D01*
X133739000Y-94880000D02*
X133739000Y-89907000D01*
X133699000Y-102724000D02*
X133699000Y-97760000D01*
X133699000Y-94880000D02*
X133699000Y-89916000D01*
X133659000Y-102714000D02*
X133659000Y-97760000D01*
X133659000Y-94880000D02*
X133659000Y-89926000D01*
X133619000Y-102704000D02*
X133619000Y-97760000D01*
X133619000Y-94880000D02*
X133619000Y-89936000D01*
X133579000Y-102694000D02*
X133579000Y-97760000D01*
X133579000Y-94880000D02*
X133579000Y-89946000D01*
X133539000Y-102684000D02*
X133539000Y-97760000D01*
X133539000Y-94880000D02*
X133539000Y-89956000D01*
X133499000Y-102673000D02*
X133499000Y-97760000D01*
X133499000Y-94880000D02*
X133499000Y-89967000D01*
X133459000Y-102662000D02*
X133459000Y-97760000D01*
X133459000Y-94880000D02*
X133459000Y-89978000D01*
X133419000Y-102651000D02*
X133419000Y-97760000D01*
X133419000Y-94880000D02*
X133419000Y-89989000D01*
X133379000Y-102640000D02*
X133379000Y-97760000D01*
X133379000Y-94880000D02*
X133379000Y-90000000D01*
X133339000Y-102628000D02*
X133339000Y-97760000D01*
X133339000Y-94880000D02*
X133339000Y-90012000D01*
X133299000Y-102616000D02*
X133299000Y-97760000D01*
X133299000Y-94880000D02*
X133299000Y-90024000D01*
X133259000Y-102604000D02*
X133259000Y-97760000D01*
X133259000Y-94880000D02*
X133259000Y-90036000D01*
X133219000Y-102591000D02*
X133219000Y-97760000D01*
X133219000Y-94880000D02*
X133219000Y-90049000D01*
X133179000Y-102578000D02*
X133179000Y-97760000D01*
X133179000Y-94880000D02*
X133179000Y-90062000D01*
X133139000Y-102565000D02*
X133139000Y-97760000D01*
X133139000Y-94880000D02*
X133139000Y-90075000D01*
X133099000Y-102552000D02*
X133099000Y-97760000D01*
X133099000Y-94880000D02*
X133099000Y-90088000D01*
X133059000Y-102538000D02*
X133059000Y-97760000D01*
X133059000Y-94880000D02*
X133059000Y-90102000D01*
X133019000Y-102524000D02*
X133019000Y-97760000D01*
X133019000Y-94880000D02*
X133019000Y-90116000D01*
X132979000Y-102510000D02*
X132979000Y-97760000D01*
X132979000Y-94880000D02*
X132979000Y-90130000D01*
X132939000Y-102495000D02*
X132939000Y-97760000D01*
X132939000Y-94880000D02*
X132939000Y-90145000D01*
X132899000Y-102481000D02*
X132899000Y-97760000D01*
X132899000Y-94880000D02*
X132899000Y-90159000D01*
X132859000Y-102466000D02*
X132859000Y-97760000D01*
X132859000Y-94880000D02*
X132859000Y-90174000D01*
X132819000Y-102450000D02*
X132819000Y-97760000D01*
X132819000Y-94880000D02*
X132819000Y-90190000D01*
X132779000Y-102434000D02*
X132779000Y-97760000D01*
X132779000Y-94880000D02*
X132779000Y-90206000D01*
X132739000Y-102418000D02*
X132739000Y-97760000D01*
X132739000Y-94880000D02*
X132739000Y-90222000D01*
X132699000Y-102402000D02*
X132699000Y-97760000D01*
X132699000Y-94880000D02*
X132699000Y-90238000D01*
X132659000Y-102385000D02*
X132659000Y-97760000D01*
X132659000Y-94880000D02*
X132659000Y-90255000D01*
X132619000Y-102369000D02*
X132619000Y-97760000D01*
X132619000Y-94880000D02*
X132619000Y-90271000D01*
X132579000Y-102351000D02*
X132579000Y-97760000D01*
X132579000Y-94880000D02*
X132579000Y-90289000D01*
X132539000Y-102334000D02*
X132539000Y-97760000D01*
X132539000Y-94880000D02*
X132539000Y-90306000D01*
X132499000Y-102316000D02*
X132499000Y-97760000D01*
X132499000Y-94880000D02*
X132499000Y-90324000D01*
X132459000Y-102298000D02*
X132459000Y-97760000D01*
X132459000Y-94880000D02*
X132459000Y-90342000D01*
X132419000Y-102279000D02*
X132419000Y-97760000D01*
X132419000Y-94880000D02*
X132419000Y-90361000D01*
X132379000Y-102260000D02*
X132379000Y-97760000D01*
X132379000Y-94880000D02*
X132379000Y-90380000D01*
X132339000Y-102241000D02*
X132339000Y-97760000D01*
X132339000Y-94880000D02*
X132339000Y-90399000D01*
X132299000Y-102222000D02*
X132299000Y-97760000D01*
X132299000Y-94880000D02*
X132299000Y-90418000D01*
X132259000Y-102202000D02*
X132259000Y-97760000D01*
X132259000Y-94880000D02*
X132259000Y-90438000D01*
X132219000Y-102182000D02*
X132219000Y-97760000D01*
X132219000Y-94880000D02*
X132219000Y-90458000D01*
X132179000Y-102161000D02*
X132179000Y-97760000D01*
X132179000Y-94880000D02*
X132179000Y-90479000D01*
X132139000Y-102140000D02*
X132139000Y-97760000D01*
X132139000Y-94880000D02*
X132139000Y-90500000D01*
X132099000Y-102119000D02*
X132099000Y-97760000D01*
X132099000Y-94880000D02*
X132099000Y-90521000D01*
X132059000Y-102098000D02*
X132059000Y-97760000D01*
X132059000Y-94880000D02*
X132059000Y-90542000D01*
X132019000Y-102076000D02*
X132019000Y-97760000D01*
X132019000Y-94880000D02*
X132019000Y-90564000D01*
X131979000Y-102053000D02*
X131979000Y-97760000D01*
X131979000Y-94880000D02*
X131979000Y-90587000D01*
X131939000Y-102031000D02*
X131939000Y-97760000D01*
X131939000Y-94880000D02*
X131939000Y-90609000D01*
X131899000Y-102008000D02*
X131899000Y-97760000D01*
X131899000Y-94880000D02*
X131899000Y-90632000D01*
X131859000Y-101984000D02*
X131859000Y-97760000D01*
X131859000Y-94880000D02*
X131859000Y-90656000D01*
X131819000Y-101961000D02*
X131819000Y-97760000D01*
X131819000Y-94880000D02*
X131819000Y-90679000D01*
X131779000Y-101937000D02*
X131779000Y-97760000D01*
X131779000Y-94880000D02*
X131779000Y-90703000D01*
X131739000Y-101912000D02*
X131739000Y-97760000D01*
X131739000Y-94880000D02*
X131739000Y-90728000D01*
X131699000Y-101887000D02*
X131699000Y-97760000D01*
X131699000Y-94880000D02*
X131699000Y-90753000D01*
X131659000Y-101862000D02*
X131659000Y-97760000D01*
X131659000Y-94880000D02*
X131659000Y-90778000D01*
X131619000Y-101836000D02*
X131619000Y-97760000D01*
X131619000Y-94880000D02*
X131619000Y-90804000D01*
X131579000Y-101810000D02*
X131579000Y-97760000D01*
X131579000Y-94880000D02*
X131579000Y-90830000D01*
X131539000Y-101783000D02*
X131539000Y-97760000D01*
X131539000Y-94880000D02*
X131539000Y-90857000D01*
X131499000Y-101756000D02*
X131499000Y-97760000D01*
X131499000Y-94880000D02*
X131499000Y-90884000D01*
X131459000Y-101729000D02*
X131459000Y-97760000D01*
X131459000Y-94880000D02*
X131459000Y-90911000D01*
X131419000Y-101701000D02*
X131419000Y-97760000D01*
X131419000Y-94880000D02*
X131419000Y-90939000D01*
X131379000Y-101673000D02*
X131379000Y-97760000D01*
X131379000Y-94880000D02*
X131379000Y-90967000D01*
X131339000Y-101644000D02*
X131339000Y-97760000D01*
X131339000Y-94880000D02*
X131339000Y-90996000D01*
X131299000Y-101615000D02*
X131299000Y-97760000D01*
X131299000Y-94880000D02*
X131299000Y-91025000D01*
X131259000Y-101585000D02*
X131259000Y-91055000D01*
X131219000Y-101555000D02*
X131219000Y-91085000D01*
X131179000Y-101525000D02*
X131179000Y-91115000D01*
X131139000Y-101494000D02*
X131139000Y-91146000D01*
X131099000Y-101462000D02*
X131099000Y-91178000D01*
X131059000Y-101430000D02*
X131059000Y-91210000D01*
X131019000Y-101398000D02*
X131019000Y-91242000D01*
X130979000Y-101364000D02*
X130979000Y-91276000D01*
X130939000Y-101331000D02*
X130939000Y-91309000D01*
X130899000Y-101297000D02*
X130899000Y-91343000D01*
X130859000Y-101262000D02*
X130859000Y-91378000D01*
X130819000Y-101227000D02*
X130819000Y-91413000D01*
X130779000Y-101191000D02*
X130779000Y-91449000D01*
X130739000Y-101154000D02*
X130739000Y-91486000D01*
X130699000Y-101117000D02*
X130699000Y-91523000D01*
X130659000Y-101080000D02*
X130659000Y-91560000D01*
X130619000Y-101041000D02*
X130619000Y-91599000D01*
X130579000Y-101002000D02*
X130579000Y-91638000D01*
X130539000Y-100963000D02*
X130539000Y-91677000D01*
X130499000Y-100922000D02*
X130499000Y-91718000D01*
X130459000Y-100881000D02*
X130459000Y-91759000D01*
X130419000Y-100839000D02*
X130419000Y-91801000D01*
X130379000Y-100797000D02*
X130379000Y-91843000D01*
X130339000Y-100754000D02*
X130339000Y-91886000D01*
X130299000Y-100710000D02*
X130299000Y-91930000D01*
X130259000Y-100665000D02*
X130259000Y-91975000D01*
X130219000Y-100619000D02*
X130219000Y-92021000D01*
X130179000Y-100573000D02*
X130179000Y-92067000D01*
X130139000Y-100525000D02*
X130139000Y-92115000D01*
X130099000Y-100477000D02*
X130099000Y-92163000D01*
X130059000Y-100428000D02*
X130059000Y-92212000D01*
X130019000Y-100377000D02*
X130019000Y-92263000D01*
X129979000Y-100326000D02*
X129979000Y-92314000D01*
X129939000Y-100274000D02*
X129939000Y-92366000D01*
X129899000Y-100220000D02*
X129899000Y-92420000D01*
X129859000Y-100166000D02*
X129859000Y-92474000D01*
X129819000Y-100110000D02*
X129819000Y-92530000D01*
X129779000Y-100053000D02*
X129779000Y-92587000D01*
X129739000Y-99995000D02*
X129739000Y-92645000D01*
X129699000Y-99935000D02*
X129699000Y-92705000D01*
X129659000Y-99874000D02*
X129659000Y-92766000D01*
X129619000Y-99811000D02*
X129619000Y-92829000D01*
X129579000Y-99747000D02*
X129579000Y-92893000D01*
X129539000Y-99681000D02*
X129539000Y-92959000D01*
X129499000Y-99613000D02*
X129499000Y-93027000D01*
X129459000Y-99543000D02*
X129459000Y-93097000D01*
X129419000Y-99472000D02*
X129419000Y-93168000D01*
X129379000Y-99398000D02*
X129379000Y-93242000D01*
X129339000Y-99322000D02*
X129339000Y-93318000D01*
X129299000Y-99243000D02*
X129299000Y-93397000D01*
X129259000Y-99162000D02*
X129259000Y-93478000D01*
X129219000Y-99078000D02*
X129219000Y-93562000D01*
X129179000Y-98990000D02*
X129179000Y-93650000D01*
X129139000Y-98899000D02*
X129139000Y-93741000D01*
X129099000Y-98804000D02*
X129099000Y-93836000D01*
X129059000Y-98705000D02*
X129059000Y-93935000D01*
X129019000Y-98601000D02*
X129019000Y-94039000D01*
X128979000Y-98491000D02*
X128979000Y-94149000D01*
X128939000Y-98375000D02*
X128939000Y-94265000D01*
X128899000Y-98251000D02*
X128899000Y-94389000D01*
X128859000Y-98118000D02*
X128859000Y-94522000D01*
X128819000Y-97973000D02*
X128819000Y-94667000D01*
X128779000Y-97814000D02*
X128779000Y-94826000D01*
X128739000Y-97635000D02*
X128739000Y-95005000D01*
X128699000Y-97427000D02*
X128699000Y-95213000D01*
X128659000Y-97170000D02*
X128659000Y-95470000D01*
X128619000Y-96795000D02*
X128619000Y-95845000D01*
X141840000Y-96320000D02*
G75*
G03*
X141840000Y-96320000I-6620000J0D01*
G01*
%TO.C,Q1*%
X178640000Y-124750000D02*
X178640000Y-120109000D01*
X178640000Y-124750000D02*
X168400000Y-124750000D01*
X178640000Y-123240000D02*
X168400000Y-123240000D01*
X178640000Y-120109000D02*
X168400000Y-120109000D01*
X175370000Y-124750000D02*
X175370000Y-123240000D01*
X171669000Y-124750000D02*
X171669000Y-123240000D01*
X168400000Y-124750000D02*
X168400000Y-120109000D01*
%TO.C,C7*%
X150405000Y-114835000D02*
X151030000Y-114835000D01*
X150717500Y-114522500D02*
X150717500Y-115147500D01*
X151270000Y-114824437D02*
X151270000Y-115460000D01*
X151270000Y-114824437D02*
X152334437Y-113760000D01*
X151270000Y-118215563D02*
X151270000Y-117580000D01*
X151270000Y-118215563D02*
X152334437Y-119280000D01*
X152334437Y-113760000D02*
X156790000Y-113760000D01*
X152334437Y-119280000D02*
X156790000Y-119280000D01*
X156790000Y-113760000D02*
X156790000Y-115460000D01*
X156790000Y-119280000D02*
X156790000Y-117580000D01*
%TO.C,C3*%
X166885000Y-93795000D02*
X166260000Y-93795000D01*
X166572500Y-94107500D02*
X166572500Y-93482500D01*
X166020000Y-93805563D02*
X166020000Y-93170000D01*
X166020000Y-93805563D02*
X164955563Y-94870000D01*
X166020000Y-90414437D02*
X166020000Y-91050000D01*
X166020000Y-90414437D02*
X164955563Y-89350000D01*
X164955563Y-94870000D02*
X160500000Y-94870000D01*
X164955563Y-89350000D02*
X160500000Y-89350000D01*
X160500000Y-94870000D02*
X160500000Y-93170000D01*
X160500000Y-89350000D02*
X160500000Y-91050000D01*
%TO.C,C6*%
X163340000Y-117435000D02*
X163340000Y-115565000D01*
X163340000Y-115565000D02*
X159430000Y-115565000D01*
X159430000Y-117435000D02*
X163340000Y-117435000D01*
%TO.C,D1*%
X173605000Y-90280000D02*
X173605000Y-88360000D01*
X173605000Y-88360000D02*
X170920000Y-88360000D01*
X170920000Y-90280000D02*
X173605000Y-90280000D01*
%TO.C,R3*%
X178092936Y-92395000D02*
X178547064Y-92395000D01*
X178092936Y-93865000D02*
X178547064Y-93865000D01*
%TO.C,U1*%
X155110000Y-83375000D02*
X155110000Y-88016000D01*
X155110000Y-83375000D02*
X165350000Y-83375000D01*
X155110000Y-84885000D02*
X165350000Y-84885000D01*
X155110000Y-88016000D02*
X165350000Y-88016000D01*
X158380000Y-83375000D02*
X158380000Y-84885000D01*
X162081000Y-83375000D02*
X162081000Y-84885000D01*
X165350000Y-83375000D02*
X165350000Y-88016000D01*
%TO.C,TR1*%
X63875000Y-72625000D02*
X63875000Y-135625000D01*
X63875000Y-72625000D02*
X126875000Y-72625000D01*
X63875000Y-135625000D02*
X126875000Y-135625000D01*
X126875000Y-135625000D02*
X126875000Y-72625000D01*
%TO.C,C4*%
X59710000Y-104370000D02*
X54470000Y-104370000D01*
X59710000Y-104370000D02*
X59710000Y-122610000D01*
X54470000Y-104370000D02*
X54470000Y-122610000D01*
X59710000Y-122610000D02*
X54470000Y-122610000D01*
%TO.C,D2*%
X129750000Y-83360000D02*
X131250000Y-83360000D01*
X129750000Y-86960000D02*
X129750000Y-83360000D01*
X132950000Y-86960000D02*
X132950000Y-86460000D01*
X135250000Y-83360000D02*
X136750000Y-83360000D01*
X139950000Y-83360000D02*
X141850000Y-83360000D01*
X144950000Y-83360000D02*
X146950000Y-83360000D01*
X150050000Y-83360000D02*
X152050000Y-83360000D01*
X152050000Y-83360000D02*
X152050000Y-86960000D01*
X152050000Y-86960000D02*
X129750000Y-86960000D01*
%TO.C,C2*%
X154147500Y-90995000D02*
X154147500Y-89125000D01*
X154147500Y-89125000D02*
X150237500Y-89125000D01*
X150237500Y-90995000D02*
X154147500Y-90995000D01*
%TO.C,J2*%
X54370000Y-98680000D02*
X58370000Y-98680000D01*
X50660000Y-98390000D02*
X50660000Y-96110000D01*
X60630000Y-98390000D02*
X50660000Y-98390000D01*
X60630000Y-98390000D02*
X60630000Y-87050000D01*
X61630000Y-98390000D02*
X60630000Y-98390000D01*
X50660000Y-96110000D02*
X51060000Y-96110000D01*
X51060000Y-96110000D02*
X51060000Y-93410000D01*
X50660000Y-93410000D02*
X50660000Y-87050000D01*
X51060000Y-93410000D02*
X50660000Y-93410000D01*
X50660000Y-87050000D02*
X61630000Y-87050000D01*
X61630000Y-87050000D02*
X61630000Y-98390000D01*
%TO.C,D4*%
X152110000Y-124700000D02*
X150610000Y-124700000D01*
X152110000Y-121100000D02*
X152110000Y-124700000D01*
X148910000Y-121100000D02*
X148910000Y-121600000D01*
X146610000Y-124700000D02*
X145110000Y-124700000D01*
X141910000Y-124700000D02*
X140010000Y-124700000D01*
X136910000Y-124700000D02*
X134910000Y-124700000D01*
X131810000Y-124700000D02*
X129810000Y-124700000D01*
X129810000Y-124700000D02*
X129810000Y-121100000D01*
X129810000Y-121100000D02*
X152110000Y-121100000D01*
%TO.C,J1*%
X184100000Y-111270000D02*
X202400000Y-111270000D01*
X194600000Y-111270000D02*
X194600000Y-95970000D01*
X202400000Y-111270000D02*
X202400000Y-95970000D01*
X198600000Y-110620000D02*
X198600000Y-106620000D01*
X184100000Y-110120000D02*
X184100000Y-111270000D01*
X196600000Y-108620000D02*
X200600000Y-108620000D01*
X198600000Y-105620000D02*
X198600000Y-101620000D01*
X184100000Y-104870000D02*
X184100000Y-107195000D01*
X196600000Y-103620000D02*
X200600000Y-103620000D01*
X198600000Y-100620000D02*
X198600000Y-96620000D01*
X184100000Y-99870000D02*
X184100000Y-102370000D01*
X196600000Y-98620000D02*
X200600000Y-98620000D01*
X184100000Y-95970000D02*
X184100000Y-97370000D01*
X202400000Y-95970000D02*
X184100000Y-95970000D01*
X200600000Y-108620000D02*
G75*
G03*
X200600000Y-108620000I-2000000J0D01*
G01*
X200600000Y-103620000D02*
G75*
G03*
X200600000Y-103620000I-2000000J0D01*
G01*
X200600000Y-98620000D02*
G75*
G03*
X200600000Y-98620000I-2000000J0D01*
G01*
%TD*%
M02*
