%TF.GenerationSoftware,KiCad,Pcbnew,7.0.7*%
%TF.CreationDate,2023-08-27T17:08:45+10:00*%
%TF.ProjectId,PowerSupply,506f7765-7253-4757-9070-6c792e6b6963,rev?*%
%TF.SameCoordinates,Original*%
%TF.FileFunction,Copper,L2,Bot*%
%TF.FilePolarity,Positive*%
%FSLAX46Y46*%
G04 Gerber Fmt 4.6, Leading zero omitted, Abs format (unit mm)*
G04 Created by KiCad (PCBNEW 7.0.7) date 2023-08-27 17:08:45*
%MOMM*%
%LPD*%
G01*
G04 APERTURE LIST*
G04 Aperture macros list*
%AMRoundRect*
0 Rectangle with rounded corners*
0 $1 Rounding radius*
0 $2 $3 $4 $5 $6 $7 $8 $9 X,Y pos of 4 corners*
0 Add a 4 corners polygon primitive as box body*
4,1,4,$2,$3,$4,$5,$6,$7,$8,$9,$2,$3,0*
0 Add four circle primitives for the rounded corners*
1,1,$1+$1,$2,$3*
1,1,$1+$1,$4,$5*
1,1,$1+$1,$6,$7*
1,1,$1+$1,$8,$9*
0 Add four rect primitives between the rounded corners*
20,1,$1+$1,$2,$3,$4,$5,0*
20,1,$1+$1,$4,$5,$6,$7,0*
20,1,$1+$1,$6,$7,$8,$9,0*
20,1,$1+$1,$8,$9,$2,$3,0*%
G04 Aperture macros list end*
%TA.AperFunction,ComponentPad*%
%ADD10R,1.905000X2.000000*%
%TD*%
%TA.AperFunction,ComponentPad*%
%ADD11O,1.905000X2.000000*%
%TD*%
%TA.AperFunction,ComponentPad*%
%ADD12R,2.400000X2.400000*%
%TD*%
%TA.AperFunction,ComponentPad*%
%ADD13C,2.400000*%
%TD*%
%TA.AperFunction,ComponentPad*%
%ADD14C,3.500000*%
%TD*%
%TA.AperFunction,ComponentPad*%
%ADD15R,3.200000X3.200000*%
%TD*%
%TA.AperFunction,ComponentPad*%
%ADD16C,3.200000*%
%TD*%
%TA.AperFunction,ComponentPad*%
%ADD17RoundRect,0.250000X1.850000X-1.330000X1.850000X1.330000X-1.850000X1.330000X-1.850000X-1.330000X0*%
%TD*%
%TA.AperFunction,ComponentPad*%
%ADD18O,4.200000X3.160000*%
%TD*%
%TA.AperFunction,ComponentPad*%
%ADD19RoundRect,0.316092X1.183908X-0.783908X1.183908X0.783908X-1.183908X0.783908X-1.183908X-0.783908X0*%
%TD*%
%TA.AperFunction,ComponentPad*%
%ADD20O,3.000000X2.200000*%
%TD*%
%TA.AperFunction,ViaPad*%
%ADD21C,2.000000*%
%TD*%
%TA.AperFunction,ViaPad*%
%ADD22C,1.200000*%
%TD*%
%TA.AperFunction,Conductor*%
%ADD23C,1.500000*%
%TD*%
G04 APERTURE END LIST*
D10*
%TO.P,U2,1,IN*%
%TO.N,Net-(Q1-B)*%
X162430000Y-121460000D03*
D11*
%TO.P,U2,2,GND*%
%TO.N,GNDA*%
X159890000Y-121460000D03*
%TO.P,U2,3,OUT*%
%TO.N,+5V*%
X157350000Y-121460000D03*
%TD*%
D12*
%TO.P,C5,1*%
%TO.N,Net-(D4-+)*%
X137720000Y-112350000D03*
D13*
%TO.P,C5,2*%
%TO.N,GNDA*%
X132720000Y-112350000D03*
%TD*%
D12*
%TO.P,C1,1*%
%TO.N,Net-(D2-+)*%
X137720000Y-96320000D03*
D13*
%TO.P,C1,2*%
%TO.N,GNDA*%
X132720000Y-96320000D03*
%TD*%
D10*
%TO.P,Q1,1,B*%
%TO.N,Net-(Q1-B)*%
X176060000Y-121480000D03*
D11*
%TO.P,Q1,2,C*%
%TO.N,+5V*%
X173520000Y-121480000D03*
%TO.P,Q1,3,E*%
%TO.N,Net-(D4-+)*%
X170980000Y-121480000D03*
%TD*%
D10*
%TO.P,U1,1,IN*%
%TO.N,Net-(D2-+)*%
X157690000Y-86645000D03*
D11*
%TO.P,U1,2,GND*%
%TO.N,GNDA*%
X160230000Y-86645000D03*
%TO.P,U1,3,OUT*%
%TO.N,+12V*%
X162770000Y-86645000D03*
%TD*%
D14*
%TO.P,TR1,1*%
%TO.N,/Active*%
X67375000Y-76625000D03*
%TO.P,TR1,2*%
%TO.N,Net-(TR1-Pad2)*%
X67375000Y-84625000D03*
%TO.P,TR1,3*%
X67375000Y-123625000D03*
%TO.P,TR1,4*%
%TO.N,/Neutral*%
X67375000Y-131625000D03*
%TO.P,TR1,5*%
%TO.N,Net-(D4-Pad2)*%
X123375000Y-130625000D03*
%TO.P,TR1,6*%
%TO.N,Net-(D4-Pad3)*%
X123375000Y-122625000D03*
%TO.P,TR1,7*%
%TO.N,Net-(D2-Pad2)*%
X123375000Y-85625000D03*
%TO.P,TR1,8*%
%TO.N,Net-(D2-Pad3)*%
X123375000Y-77625000D03*
%TD*%
D13*
%TO.P,C4,1*%
%TO.N,/Active*%
X57090000Y-105990000D03*
%TO.P,C4,2*%
%TO.N,/Neutral*%
X57090000Y-120990000D03*
%TD*%
D15*
%TO.P,D2,1,+*%
%TO.N,Net-(D2-+)*%
X133250000Y-84560000D03*
D16*
%TO.P,D2,2*%
%TO.N,Net-(D2-Pad2)*%
X138330000Y-84560000D03*
%TO.P,D2,3*%
%TO.N,Net-(D2-Pad3)*%
X143410000Y-84560000D03*
%TO.P,D2,4,-*%
%TO.N,GNDA*%
X148490000Y-84560000D03*
%TD*%
D17*
%TO.P,J2,1,Pin_1*%
%TO.N,/Neutral*%
X56370000Y-96680000D03*
D18*
%TO.P,J2,2,Pin_2*%
%TO.N,unconnected-(J2-Pin_2-Pad2)*%
X56370000Y-92720000D03*
%TO.P,J2,3,Pin_3*%
%TO.N,/Active*%
X56370000Y-88760000D03*
%TD*%
D15*
%TO.P,D4,1,+*%
%TO.N,Net-(D4-+)*%
X148610000Y-123500000D03*
D16*
%TO.P,D4,2*%
%TO.N,Net-(D4-Pad2)*%
X143530000Y-123500000D03*
%TO.P,D4,3*%
%TO.N,Net-(D4-Pad3)*%
X138450000Y-123500000D03*
%TO.P,D4,4,-*%
%TO.N,GNDA*%
X133370000Y-123500000D03*
%TD*%
D19*
%TO.P,J1,1,Pin_1*%
%TO.N,GNDA*%
X185100000Y-108620000D03*
D20*
%TO.P,J1,2,Pin_2*%
%TO.N,+5V*%
X185100000Y-103620000D03*
%TO.P,J1,3,Pin_3*%
%TO.N,+12V*%
X185100000Y-98620000D03*
%TD*%
D21*
%TO.N,GNDA*%
X148140000Y-90090000D03*
D22*
X179212500Y-91130000D03*
%TD*%
D23*
%TO.N,Net-(Q1-B)*%
X164240000Y-126540000D02*
X174170000Y-126540000D01*
X162430000Y-124730000D02*
X164240000Y-126540000D01*
X162430000Y-121460000D02*
X162430000Y-124730000D01*
X174170000Y-126540000D02*
X176060000Y-124650000D01*
X176060000Y-124650000D02*
X176060000Y-121480000D01*
%TD*%
%TA.AperFunction,Conductor*%
%TO.N,GNDA*%
G36*
X191042838Y-68079685D02*
G01*
X191088593Y-68132489D01*
X191099799Y-68184200D01*
X190990200Y-136046084D01*
X190970407Y-136113092D01*
X190917529Y-136158761D01*
X190866084Y-136169884D01*
X126873956Y-136110115D01*
X126806935Y-136090368D01*
X126761230Y-136037521D01*
X126750072Y-135986045D01*
X126757411Y-123499999D01*
X131265093Y-123499999D01*
X131284697Y-123786618D01*
X131284698Y-123786619D01*
X131343145Y-124067885D01*
X131343150Y-124067902D01*
X131439355Y-124338595D01*
X131571527Y-124593677D01*
X131571531Y-124593683D01*
X131716868Y-124799578D01*
X132543389Y-123973056D01*
X132604712Y-123939571D01*
X132674403Y-123944555D01*
X132730337Y-123986426D01*
X132736059Y-123994758D01*
X132740577Y-124001948D01*
X132868052Y-124129423D01*
X132875229Y-124133933D01*
X132921522Y-124186264D01*
X132932173Y-124255317D01*
X132903801Y-124319166D01*
X132896942Y-124326609D01*
X132072198Y-125151352D01*
X132156145Y-125219648D01*
X132401607Y-125368917D01*
X132665108Y-125483371D01*
X132941737Y-125560879D01*
X132941744Y-125560880D01*
X133226355Y-125600000D01*
X133513645Y-125600000D01*
X133798255Y-125560880D01*
X133798262Y-125560879D01*
X134074891Y-125483371D01*
X134338392Y-125368917D01*
X134583851Y-125219650D01*
X134583866Y-125219640D01*
X134667799Y-125151352D01*
X133843057Y-124326610D01*
X133809572Y-124265287D01*
X133814556Y-124195595D01*
X133856428Y-124139662D01*
X133864769Y-124133934D01*
X133867807Y-124132025D01*
X133871948Y-124129423D01*
X133999423Y-124001948D01*
X134003933Y-123994769D01*
X134056267Y-123948476D01*
X134125320Y-123937826D01*
X134189169Y-123966200D01*
X134196610Y-123973057D01*
X135023130Y-124799577D01*
X135168472Y-124593676D01*
X135300644Y-124338595D01*
X135396849Y-124067902D01*
X135396854Y-124067885D01*
X135455301Y-123786619D01*
X135455302Y-123786618D01*
X135474906Y-123500000D01*
X136344592Y-123500000D01*
X136364201Y-123786680D01*
X136422666Y-124068034D01*
X136422667Y-124068037D01*
X136518894Y-124338793D01*
X136518893Y-124338793D01*
X136651098Y-124593935D01*
X136816812Y-124828700D01*
X136901923Y-124919830D01*
X137012947Y-125038708D01*
X137235853Y-125220055D01*
X137479740Y-125368367D01*
X137481382Y-125369365D01*
X137668237Y-125450526D01*
X137744942Y-125483844D01*
X138021642Y-125561371D01*
X138259694Y-125594091D01*
X138306321Y-125600500D01*
X138306322Y-125600500D01*
X138593679Y-125600500D01*
X138640306Y-125594091D01*
X138878358Y-125561371D01*
X139155058Y-125483844D01*
X139268015Y-125434779D01*
X139418617Y-125369365D01*
X139418620Y-125369363D01*
X139418625Y-125369361D01*
X139664147Y-125220055D01*
X139887053Y-125038708D01*
X140083189Y-124828698D01*
X140248901Y-124593936D01*
X140381104Y-124338797D01*
X140477334Y-124068032D01*
X140535798Y-123786686D01*
X140555408Y-123500000D01*
X141424592Y-123500000D01*
X141444201Y-123786680D01*
X141502666Y-124068034D01*
X141502667Y-124068037D01*
X141598894Y-124338793D01*
X141598893Y-124338793D01*
X141731098Y-124593935D01*
X141896812Y-124828700D01*
X141981923Y-124919830D01*
X142092947Y-125038708D01*
X142315853Y-125220055D01*
X142559740Y-125368367D01*
X142561382Y-125369365D01*
X142748237Y-125450526D01*
X142824942Y-125483844D01*
X143101642Y-125561371D01*
X143339694Y-125594091D01*
X143386321Y-125600500D01*
X143386322Y-125600500D01*
X143673679Y-125600500D01*
X143720306Y-125594091D01*
X143958358Y-125561371D01*
X144235058Y-125483844D01*
X144348015Y-125434779D01*
X144498617Y-125369365D01*
X144498620Y-125369363D01*
X144498625Y-125369361D01*
X144744147Y-125220055D01*
X144832875Y-125147870D01*
X146509500Y-125147870D01*
X146509501Y-125147876D01*
X146515908Y-125207483D01*
X146566202Y-125342328D01*
X146566206Y-125342335D01*
X146652452Y-125457544D01*
X146652455Y-125457547D01*
X146767664Y-125543793D01*
X146767671Y-125543797D01*
X146902517Y-125594091D01*
X146902516Y-125594091D01*
X146909444Y-125594835D01*
X146962127Y-125600500D01*
X150257872Y-125600499D01*
X150317483Y-125594091D01*
X150452331Y-125543796D01*
X150567546Y-125457546D01*
X150653796Y-125342331D01*
X150704091Y-125207483D01*
X150710500Y-125147873D01*
X150710499Y-121852128D01*
X150705299Y-121803757D01*
X150704091Y-121792516D01*
X150653797Y-121657671D01*
X150653793Y-121657664D01*
X150586369Y-121567598D01*
X155897000Y-121567598D01*
X155911904Y-121747472D01*
X155971017Y-121980905D01*
X156060837Y-122185675D01*
X156067745Y-122201422D01*
X156199449Y-122403010D01*
X156362537Y-122580171D01*
X156516494Y-122700000D01*
X156552022Y-122727653D01*
X156552561Y-122728072D01*
X156717894Y-122817546D01*
X156763478Y-122842215D01*
X156764336Y-122842679D01*
X156875545Y-122880857D01*
X156992083Y-122920865D01*
X156992085Y-122920865D01*
X156992087Y-122920866D01*
X157229601Y-122960500D01*
X157229602Y-122960500D01*
X157470398Y-122960500D01*
X157470399Y-122960500D01*
X157707913Y-122920866D01*
X157935664Y-122842679D01*
X158147439Y-122728072D01*
X158337463Y-122580171D01*
X158500551Y-122403010D01*
X158516489Y-122378613D01*
X158569631Y-122333258D01*
X158638862Y-122323831D01*
X158702199Y-122353330D01*
X158724106Y-122378611D01*
X158739846Y-122402703D01*
X158739851Y-122402710D01*
X158902873Y-122579797D01*
X158902883Y-122579806D01*
X159092831Y-122727649D01*
X159092840Y-122727655D01*
X159304531Y-122842215D01*
X159304545Y-122842221D01*
X159532207Y-122920379D01*
X159640000Y-122938366D01*
X159640000Y-122124652D01*
X159659685Y-122057613D01*
X159712489Y-122011858D01*
X159781647Y-122001914D01*
X159797447Y-122005248D01*
X159814404Y-122010000D01*
X159814406Y-122010000D01*
X159927622Y-122010000D01*
X159999116Y-122000173D01*
X160068210Y-122010545D01*
X160120729Y-122056627D01*
X160140000Y-122123018D01*
X160140000Y-122938365D01*
X160247792Y-122920379D01*
X160475454Y-122842221D01*
X160475468Y-122842215D01*
X160687159Y-122727655D01*
X160687162Y-122727653D01*
X160829746Y-122616675D01*
X160894740Y-122591032D01*
X160963280Y-122604598D01*
X161013605Y-122653066D01*
X161022091Y-122671196D01*
X161033701Y-122702326D01*
X161033706Y-122702335D01*
X161119952Y-122817544D01*
X161119953Y-122817545D01*
X161129810Y-122824924D01*
X161171682Y-122880857D01*
X161179500Y-122924191D01*
X161179500Y-124656293D01*
X161179110Y-124663231D01*
X161176792Y-124683804D01*
X161174762Y-124701823D01*
X161174761Y-124701831D01*
X161179359Y-124770013D01*
X161179500Y-124774186D01*
X161179500Y-124786156D01*
X161183277Y-124828124D01*
X161189903Y-124926407D01*
X161189903Y-124926412D01*
X161190972Y-124930652D01*
X161194230Y-124949824D01*
X161194623Y-124954190D01*
X161202857Y-124984024D01*
X161220835Y-125049165D01*
X161244904Y-125144683D01*
X161246357Y-125147883D01*
X161246715Y-125148670D01*
X161253340Y-125166944D01*
X161254504Y-125171162D01*
X161254507Y-125171170D01*
X161297253Y-125259935D01*
X161337993Y-125349626D01*
X161337994Y-125349629D01*
X161340483Y-125353221D01*
X161350269Y-125370026D01*
X161352166Y-125373965D01*
X161352174Y-125373979D01*
X161410078Y-125453676D01*
X161466180Y-125534655D01*
X161469273Y-125537748D01*
X161481907Y-125552539D01*
X161484478Y-125556078D01*
X161484481Y-125556081D01*
X161555679Y-125624153D01*
X163303642Y-127372116D01*
X163308279Y-127377304D01*
X163332492Y-127407666D01*
X163383967Y-127452639D01*
X163387000Y-127455474D01*
X163395469Y-127463943D01*
X163395478Y-127463951D01*
X163421316Y-127485522D01*
X163427819Y-127490951D01*
X163502004Y-127555765D01*
X163505753Y-127558005D01*
X163521622Y-127569264D01*
X163524980Y-127572067D01*
X163524983Y-127572070D01*
X163605618Y-127617823D01*
X163610673Y-127620691D01*
X163695236Y-127671215D01*
X163699322Y-127672748D01*
X163716956Y-127680997D01*
X163720756Y-127683154D01*
X163813755Y-127715695D01*
X163905976Y-127750307D01*
X163910266Y-127751085D01*
X163929094Y-127756055D01*
X163933218Y-127757498D01*
X164030539Y-127772912D01*
X164051098Y-127776643D01*
X164127451Y-127790500D01*
X164127453Y-127790500D01*
X164131822Y-127790500D01*
X164151220Y-127792026D01*
X164155541Y-127792711D01*
X164254048Y-127790500D01*
X174096293Y-127790500D01*
X174103231Y-127790889D01*
X174141827Y-127795238D01*
X174141829Y-127795237D01*
X174141830Y-127795238D01*
X174159586Y-127794040D01*
X174210032Y-127790639D01*
X174214188Y-127790500D01*
X174226147Y-127790500D01*
X174226155Y-127790500D01*
X174268123Y-127786722D01*
X174366412Y-127780096D01*
X174370646Y-127779028D01*
X174389841Y-127775767D01*
X174394188Y-127775377D01*
X174489165Y-127749164D01*
X174584683Y-127725096D01*
X174588655Y-127723291D01*
X174606962Y-127716654D01*
X174611170Y-127715493D01*
X174699935Y-127672746D01*
X174789626Y-127632007D01*
X174793220Y-127629516D01*
X174810035Y-127619724D01*
X174813973Y-127617829D01*
X174893676Y-127559921D01*
X174974654Y-127503820D01*
X174977743Y-127500730D01*
X174992545Y-127488088D01*
X174996078Y-127485522D01*
X175064153Y-127414320D01*
X176892127Y-125586345D01*
X176897287Y-125581733D01*
X176927666Y-125557508D01*
X176972632Y-125506039D01*
X176975478Y-125502995D01*
X176983945Y-125494529D01*
X177010960Y-125462171D01*
X177075765Y-125387996D01*
X177078004Y-125384248D01*
X177089266Y-125368374D01*
X177092069Y-125365018D01*
X177140696Y-125279317D01*
X177191215Y-125194764D01*
X177192747Y-125190680D01*
X177200999Y-125173040D01*
X177203154Y-125169245D01*
X177235698Y-125076237D01*
X177270307Y-124984024D01*
X177271085Y-124979735D01*
X177276057Y-124960896D01*
X177277498Y-124956782D01*
X177292912Y-124859460D01*
X177303780Y-124799577D01*
X177310500Y-124762550D01*
X177310500Y-124758175D01*
X177312027Y-124738777D01*
X177312710Y-124734464D01*
X177312711Y-124734459D01*
X177310500Y-124635952D01*
X177310500Y-122944190D01*
X177330185Y-122877152D01*
X177360190Y-122844924D01*
X177370046Y-122837546D01*
X177456296Y-122722331D01*
X177506591Y-122587483D01*
X177513000Y-122527873D01*
X177513000Y-121527763D01*
X185145787Y-121527763D01*
X185175413Y-121797013D01*
X185175415Y-121797024D01*
X185243542Y-122057613D01*
X185243928Y-122059088D01*
X185349870Y-122308390D01*
X185483818Y-122527872D01*
X185490979Y-122539605D01*
X185490986Y-122539615D01*
X185664253Y-122747819D01*
X185664259Y-122747824D01*
X185812734Y-122880857D01*
X185865998Y-122928582D01*
X186091910Y-123078044D01*
X186337176Y-123193020D01*
X186337183Y-123193022D01*
X186337185Y-123193023D01*
X186596557Y-123271057D01*
X186596564Y-123271058D01*
X186596569Y-123271060D01*
X186864561Y-123310500D01*
X186864566Y-123310500D01*
X187067636Y-123310500D01*
X187119133Y-123306730D01*
X187270156Y-123295677D01*
X187382758Y-123270593D01*
X187534546Y-123236782D01*
X187534548Y-123236781D01*
X187534553Y-123236780D01*
X187787558Y-123140014D01*
X188023777Y-123007441D01*
X188238177Y-122841888D01*
X188426186Y-122646881D01*
X188583799Y-122426579D01*
X188679634Y-122240179D01*
X188707649Y-122185690D01*
X188707651Y-122185684D01*
X188707656Y-122185675D01*
X188795118Y-121929305D01*
X188844319Y-121662933D01*
X188854212Y-121392235D01*
X188824586Y-121122982D01*
X188756072Y-120860912D01*
X188650130Y-120611610D01*
X188509018Y-120380390D01*
X188482615Y-120348663D01*
X188335746Y-120172180D01*
X188335740Y-120172175D01*
X188134002Y-119991418D01*
X187908092Y-119841957D01*
X187908090Y-119841956D01*
X187662824Y-119726980D01*
X187662819Y-119726978D01*
X187662814Y-119726976D01*
X187403442Y-119648942D01*
X187403428Y-119648939D01*
X187287791Y-119631921D01*
X187135439Y-119609500D01*
X186932369Y-119609500D01*
X186932364Y-119609500D01*
X186729844Y-119624323D01*
X186729831Y-119624325D01*
X186465453Y-119683217D01*
X186465446Y-119683220D01*
X186212439Y-119779987D01*
X185976226Y-119912557D01*
X185761822Y-120078112D01*
X185573822Y-120273109D01*
X185573816Y-120273116D01*
X185416202Y-120493419D01*
X185416199Y-120493424D01*
X185292350Y-120734309D01*
X185292343Y-120734327D01*
X185204884Y-120990685D01*
X185204881Y-120990699D01*
X185155681Y-121257068D01*
X185155680Y-121257075D01*
X185145787Y-121527763D01*
X177513000Y-121527763D01*
X177512999Y-120432128D01*
X177506591Y-120372517D01*
X177501858Y-120359828D01*
X177456297Y-120237671D01*
X177456293Y-120237664D01*
X177370047Y-120122455D01*
X177370044Y-120122452D01*
X177254835Y-120036206D01*
X177254828Y-120036202D01*
X177119982Y-119985908D01*
X177119983Y-119985908D01*
X177060383Y-119979501D01*
X177060381Y-119979500D01*
X177060373Y-119979500D01*
X177060364Y-119979500D01*
X175059629Y-119979500D01*
X175059623Y-119979501D01*
X175000016Y-119985908D01*
X174865171Y-120036202D01*
X174865164Y-120036206D01*
X174749955Y-120122452D01*
X174749952Y-120122455D01*
X174663706Y-120237664D01*
X174663700Y-120237675D01*
X174652273Y-120268313D01*
X174610402Y-120324247D01*
X174544937Y-120348663D01*
X174476664Y-120333811D01*
X174459930Y-120322832D01*
X174317447Y-120211933D01*
X174317441Y-120211929D01*
X174105665Y-120097321D01*
X174105656Y-120097318D01*
X173877916Y-120019134D01*
X173653181Y-119981633D01*
X173640399Y-119979500D01*
X173399601Y-119979500D01*
X173386819Y-119981633D01*
X173162083Y-120019134D01*
X172934343Y-120097318D01*
X172934334Y-120097321D01*
X172722558Y-120211929D01*
X172643955Y-120273109D01*
X172532537Y-120359829D01*
X172532534Y-120359831D01*
X172532534Y-120359832D01*
X172465986Y-120432123D01*
X172369449Y-120536990D01*
X172353808Y-120560931D01*
X172300661Y-120606287D01*
X172231430Y-120615710D01*
X172168094Y-120586207D01*
X172146192Y-120560931D01*
X172130551Y-120536990D01*
X171967463Y-120359829D01*
X171833358Y-120255451D01*
X171777441Y-120211929D01*
X171565665Y-120097321D01*
X171565656Y-120097318D01*
X171337916Y-120019134D01*
X171113181Y-119981633D01*
X171100399Y-119979500D01*
X170859601Y-119979500D01*
X170846819Y-119981633D01*
X170622083Y-120019134D01*
X170394343Y-120097318D01*
X170394334Y-120097321D01*
X170182558Y-120211929D01*
X170103955Y-120273109D01*
X169992537Y-120359829D01*
X169992534Y-120359831D01*
X169992534Y-120359832D01*
X169829449Y-120536990D01*
X169697743Y-120738581D01*
X169601017Y-120959094D01*
X169541904Y-121192527D01*
X169527000Y-121372402D01*
X169527000Y-121587598D01*
X169541904Y-121767472D01*
X169601017Y-122000905D01*
X169688532Y-122200420D01*
X169697745Y-122221422D01*
X169829449Y-122423010D01*
X169992537Y-122600171D01*
X170123789Y-122702328D01*
X170178197Y-122744676D01*
X170182561Y-122748072D01*
X170394336Y-122862679D01*
X170447287Y-122880857D01*
X170622083Y-122940865D01*
X170622085Y-122940865D01*
X170622087Y-122940866D01*
X170859601Y-122980500D01*
X170859602Y-122980500D01*
X171100398Y-122980500D01*
X171100399Y-122980500D01*
X171337913Y-122940866D01*
X171565664Y-122862679D01*
X171777439Y-122748072D01*
X171967463Y-122600171D01*
X172130551Y-122423010D01*
X172146190Y-122399071D01*
X172199336Y-122353714D01*
X172268567Y-122344290D01*
X172331904Y-122373791D01*
X172353808Y-122399070D01*
X172369449Y-122423010D01*
X172532537Y-122600171D01*
X172663789Y-122702328D01*
X172718197Y-122744676D01*
X172722561Y-122748072D01*
X172934336Y-122862679D01*
X172987287Y-122880857D01*
X173162083Y-122940865D01*
X173162085Y-122940865D01*
X173162087Y-122940866D01*
X173399601Y-122980500D01*
X173399602Y-122980500D01*
X173640398Y-122980500D01*
X173640399Y-122980500D01*
X173877913Y-122940866D01*
X174105664Y-122862679D01*
X174317439Y-122748072D01*
X174459931Y-122637165D01*
X174524923Y-122611524D01*
X174593463Y-122625090D01*
X174643788Y-122673558D01*
X174652274Y-122691687D01*
X174663702Y-122722328D01*
X174663706Y-122722335D01*
X174749952Y-122837544D01*
X174749953Y-122837545D01*
X174749954Y-122837546D01*
X174759810Y-122844924D01*
X174801682Y-122900857D01*
X174809500Y-122944191D01*
X174809500Y-124080663D01*
X174789815Y-124147702D01*
X174773181Y-124168344D01*
X173688345Y-125253181D01*
X173627022Y-125286666D01*
X173600664Y-125289500D01*
X164809336Y-125289500D01*
X164742297Y-125269815D01*
X164721655Y-125253181D01*
X163716819Y-124248344D01*
X163683334Y-124187021D01*
X163680500Y-124160663D01*
X163680500Y-122924191D01*
X163700185Y-122857152D01*
X163730190Y-122824924D01*
X163740046Y-122817546D01*
X163826296Y-122702331D01*
X163876591Y-122567483D01*
X163883000Y-122507873D01*
X163882999Y-120412128D01*
X163876591Y-120352517D01*
X163871994Y-120340193D01*
X163826297Y-120217671D01*
X163826293Y-120217664D01*
X163740047Y-120102455D01*
X163740044Y-120102452D01*
X163624835Y-120016206D01*
X163624828Y-120016202D01*
X163489982Y-119965908D01*
X163489983Y-119965908D01*
X163430383Y-119959501D01*
X163430381Y-119959500D01*
X163430373Y-119959500D01*
X163430364Y-119959500D01*
X161429629Y-119959500D01*
X161429623Y-119959501D01*
X161370016Y-119965908D01*
X161235171Y-120016202D01*
X161235164Y-120016206D01*
X161119955Y-120102452D01*
X161119952Y-120102455D01*
X161033706Y-120217664D01*
X161033702Y-120217671D01*
X161022091Y-120248804D01*
X160980220Y-120304738D01*
X160914756Y-120329155D01*
X160846483Y-120314303D01*
X160829747Y-120303324D01*
X160687168Y-120192350D01*
X160687159Y-120192344D01*
X160475468Y-120077784D01*
X160475454Y-120077778D01*
X160247791Y-119999619D01*
X160140000Y-119981633D01*
X160140000Y-120795347D01*
X160120315Y-120862386D01*
X160067511Y-120908141D01*
X159998353Y-120918085D01*
X159982547Y-120914749D01*
X159965598Y-120910000D01*
X159965596Y-120910000D01*
X159852378Y-120910000D01*
X159852376Y-120910000D01*
X159780884Y-120919826D01*
X159711789Y-120909453D01*
X159659270Y-120863371D01*
X159640000Y-120796981D01*
X159640000Y-119981633D01*
X159639999Y-119981633D01*
X159532208Y-119999619D01*
X159304545Y-120077778D01*
X159304531Y-120077784D01*
X159092840Y-120192344D01*
X159092831Y-120192350D01*
X158902883Y-120340193D01*
X158902873Y-120340202D01*
X158739851Y-120517289D01*
X158739846Y-120517297D01*
X158724104Y-120541390D01*
X158670955Y-120586745D01*
X158601724Y-120596165D01*
X158538389Y-120566660D01*
X158516489Y-120541384D01*
X158500555Y-120516994D01*
X158422429Y-120432127D01*
X158337463Y-120339829D01*
X158173142Y-120211933D01*
X158147441Y-120191929D01*
X157935665Y-120077321D01*
X157935656Y-120077318D01*
X157707916Y-119999134D01*
X157508800Y-119965908D01*
X157470399Y-119959500D01*
X157229601Y-119959500D01*
X157191200Y-119965908D01*
X156992083Y-119999134D01*
X156764343Y-120077318D01*
X156764334Y-120077321D01*
X156552558Y-120191929D01*
X156479486Y-120248804D01*
X156362537Y-120339829D01*
X156362534Y-120339831D01*
X156362534Y-120339832D01*
X156199449Y-120516990D01*
X156067743Y-120718581D01*
X155971017Y-120939094D01*
X155911904Y-121172527D01*
X155897000Y-121352402D01*
X155897000Y-121567598D01*
X150586369Y-121567598D01*
X150567547Y-121542455D01*
X150567544Y-121542452D01*
X150452335Y-121456206D01*
X150452328Y-121456202D01*
X150317482Y-121405908D01*
X150317483Y-121405908D01*
X150257883Y-121399501D01*
X150257881Y-121399500D01*
X150257873Y-121399500D01*
X150257864Y-121399500D01*
X146962129Y-121399500D01*
X146962123Y-121399501D01*
X146902516Y-121405908D01*
X146767671Y-121456202D01*
X146767664Y-121456206D01*
X146652455Y-121542452D01*
X146652452Y-121542455D01*
X146566206Y-121657664D01*
X146566202Y-121657671D01*
X146515908Y-121792517D01*
X146510918Y-121838934D01*
X146509501Y-121852123D01*
X146509500Y-121852135D01*
X146509500Y-125147870D01*
X144832875Y-125147870D01*
X144967053Y-125038708D01*
X145163189Y-124828698D01*
X145328901Y-124593936D01*
X145461104Y-124338797D01*
X145557334Y-124068032D01*
X145615798Y-123786686D01*
X145635408Y-123500000D01*
X145615798Y-123213314D01*
X145557334Y-122931968D01*
X145461105Y-122661206D01*
X145461106Y-122661206D01*
X145328901Y-122406064D01*
X145163187Y-122171299D01*
X145058388Y-122059088D01*
X144967053Y-121961292D01*
X144765133Y-121797018D01*
X144744146Y-121779944D01*
X144498617Y-121630634D01*
X144235063Y-121516158D01*
X144235061Y-121516157D01*
X144235058Y-121516156D01*
X144105578Y-121479877D01*
X143958364Y-121438630D01*
X143958359Y-121438629D01*
X143958358Y-121438629D01*
X143816017Y-121419064D01*
X143673679Y-121399500D01*
X143673678Y-121399500D01*
X143386322Y-121399500D01*
X143386321Y-121399500D01*
X143101642Y-121438629D01*
X143101635Y-121438630D01*
X142893861Y-121496845D01*
X142824942Y-121516156D01*
X142824939Y-121516156D01*
X142824936Y-121516158D01*
X142824935Y-121516158D01*
X142561382Y-121630634D01*
X142315853Y-121779944D01*
X142092950Y-121961289D01*
X141896812Y-122171299D01*
X141731098Y-122406064D01*
X141598894Y-122661206D01*
X141502667Y-122931962D01*
X141502666Y-122931965D01*
X141444201Y-123213319D01*
X141424592Y-123500000D01*
X140555408Y-123500000D01*
X140535798Y-123213314D01*
X140477334Y-122931968D01*
X140381105Y-122661206D01*
X140381106Y-122661206D01*
X140248901Y-122406064D01*
X140083187Y-122171299D01*
X139978388Y-122059088D01*
X139887053Y-121961292D01*
X139685133Y-121797018D01*
X139664146Y-121779944D01*
X139418617Y-121630634D01*
X139155063Y-121516158D01*
X139155061Y-121516157D01*
X139155058Y-121516156D01*
X139025578Y-121479877D01*
X138878364Y-121438630D01*
X138878359Y-121438629D01*
X138878358Y-121438629D01*
X138736018Y-121419064D01*
X138593679Y-121399500D01*
X138593678Y-121399500D01*
X138306322Y-121399500D01*
X138306321Y-121399500D01*
X138021642Y-121438629D01*
X138021635Y-121438630D01*
X137813861Y-121496845D01*
X137744942Y-121516156D01*
X137744939Y-121516156D01*
X137744936Y-121516158D01*
X137744935Y-121516158D01*
X137481382Y-121630634D01*
X137235853Y-121779944D01*
X137012950Y-121961289D01*
X136816812Y-122171299D01*
X136651098Y-122406064D01*
X136518894Y-122661206D01*
X136422667Y-122931962D01*
X136422666Y-122931965D01*
X136364201Y-123213319D01*
X136344592Y-123500000D01*
X135474906Y-123500000D01*
X135455302Y-123213381D01*
X135455301Y-123213380D01*
X135396854Y-122932114D01*
X135396849Y-122932097D01*
X135300644Y-122661404D01*
X135168472Y-122406322D01*
X135168468Y-122406316D01*
X135023131Y-122200421D01*
X135023130Y-122200420D01*
X134196609Y-123026942D01*
X134135286Y-123060427D01*
X134065594Y-123055443D01*
X134009661Y-123013571D01*
X134003942Y-123005244D01*
X133999423Y-122998052D01*
X133871948Y-122870577D01*
X133864764Y-122866063D01*
X133818474Y-122813730D01*
X133807825Y-122744676D01*
X133836200Y-122680828D01*
X133843056Y-122673389D01*
X134667800Y-121848646D01*
X134583854Y-121780351D01*
X134338392Y-121631082D01*
X134074891Y-121516628D01*
X133798262Y-121439120D01*
X133798255Y-121439119D01*
X133513645Y-121400000D01*
X133226355Y-121400000D01*
X132941744Y-121439119D01*
X132941737Y-121439120D01*
X132665108Y-121516628D01*
X132401607Y-121631082D01*
X132156146Y-121780351D01*
X132156144Y-121780352D01*
X132072198Y-121848646D01*
X132896942Y-122673389D01*
X132930427Y-122734712D01*
X132925443Y-122804403D01*
X132883571Y-122860337D01*
X132875236Y-122866062D01*
X132868054Y-122870574D01*
X132740574Y-122998054D01*
X132736062Y-123005236D01*
X132683726Y-123051526D01*
X132614672Y-123062172D01*
X132550825Y-123033795D01*
X132543389Y-123026942D01*
X131716868Y-122200420D01*
X131571524Y-122406328D01*
X131439355Y-122661404D01*
X131343150Y-122932097D01*
X131343145Y-122932114D01*
X131284698Y-123213380D01*
X131284697Y-123213381D01*
X131265093Y-123499999D01*
X126757411Y-123499999D01*
X126763965Y-112350004D01*
X131015233Y-112350004D01*
X131034273Y-112604079D01*
X131090968Y-112852477D01*
X131090973Y-112852494D01*
X131184058Y-113089671D01*
X131184057Y-113089671D01*
X131311457Y-113310332D01*
X131353452Y-113362993D01*
X132038590Y-112677855D01*
X132099913Y-112644370D01*
X132169604Y-112649354D01*
X132224645Y-112690049D01*
X132292074Y-112777924D01*
X132292075Y-112777925D01*
X132379948Y-112845353D01*
X132421150Y-112901781D01*
X132425305Y-112971527D01*
X132392142Y-113031409D01*
X131706813Y-113716737D01*
X131867623Y-113826375D01*
X131867624Y-113826376D01*
X132097176Y-113936921D01*
X132097174Y-113936921D01*
X132340652Y-114012024D01*
X132340658Y-114012026D01*
X132592595Y-114049999D01*
X132592604Y-114050000D01*
X132847396Y-114050000D01*
X132847404Y-114049999D01*
X133099341Y-114012026D01*
X133099347Y-114012024D01*
X133342824Y-113936921D01*
X133572381Y-113826373D01*
X133733185Y-113716737D01*
X133614318Y-113597870D01*
X136019500Y-113597870D01*
X136019501Y-113597876D01*
X136025908Y-113657483D01*
X136076202Y-113792328D01*
X136076206Y-113792335D01*
X136162452Y-113907544D01*
X136162455Y-113907547D01*
X136277664Y-113993793D01*
X136277671Y-113993797D01*
X136412517Y-114044091D01*
X136412516Y-114044091D01*
X136419444Y-114044835D01*
X136472127Y-114050500D01*
X138967872Y-114050499D01*
X139027483Y-114044091D01*
X139162331Y-113993796D01*
X139277546Y-113907546D01*
X139363796Y-113792331D01*
X139414091Y-113657483D01*
X139420500Y-113597873D01*
X139420499Y-111102128D01*
X139414091Y-111042517D01*
X139363796Y-110907669D01*
X139363795Y-110907668D01*
X139363793Y-110907664D01*
X139277547Y-110792455D01*
X139277544Y-110792452D01*
X139162335Y-110706206D01*
X139162328Y-110706202D01*
X139027482Y-110655908D01*
X139027483Y-110655908D01*
X138967883Y-110649501D01*
X138967881Y-110649500D01*
X138967873Y-110649500D01*
X138967864Y-110649500D01*
X136472129Y-110649500D01*
X136472123Y-110649501D01*
X136412516Y-110655908D01*
X136277671Y-110706202D01*
X136277664Y-110706206D01*
X136162455Y-110792452D01*
X136162452Y-110792455D01*
X136076206Y-110907664D01*
X136076202Y-110907671D01*
X136025908Y-111042517D01*
X136019501Y-111102116D01*
X136019501Y-111102123D01*
X136019500Y-111102135D01*
X136019500Y-113597870D01*
X133614318Y-113597870D01*
X133047856Y-113031409D01*
X133014371Y-112970086D01*
X133019355Y-112900395D01*
X133060049Y-112845353D01*
X133147925Y-112777925D01*
X133215354Y-112690048D01*
X133271779Y-112648848D01*
X133341525Y-112644693D01*
X133401409Y-112677856D01*
X134086545Y-113362993D01*
X134128545Y-113310327D01*
X134255941Y-113089671D01*
X134349026Y-112852494D01*
X134349031Y-112852477D01*
X134405726Y-112604079D01*
X134424767Y-112350004D01*
X134424767Y-112349995D01*
X134405726Y-112095920D01*
X134349031Y-111847522D01*
X134349026Y-111847505D01*
X134255941Y-111610328D01*
X134255942Y-111610328D01*
X134128544Y-111389671D01*
X134086545Y-111337005D01*
X133401409Y-112022142D01*
X133340086Y-112055627D01*
X133270394Y-112050643D01*
X133215353Y-112009948D01*
X133147925Y-111922075D01*
X133147925Y-111922074D01*
X133060049Y-111854645D01*
X133018847Y-111798219D01*
X133014692Y-111728473D01*
X133047855Y-111668590D01*
X133733185Y-110983261D01*
X133572377Y-110873624D01*
X133572376Y-110873623D01*
X133342823Y-110763078D01*
X133342825Y-110763078D01*
X133099347Y-110687975D01*
X133099341Y-110687973D01*
X132847404Y-110650000D01*
X132592595Y-110650000D01*
X132340658Y-110687973D01*
X132340652Y-110687975D01*
X132097175Y-110763078D01*
X131867624Y-110873623D01*
X131867616Y-110873628D01*
X131706813Y-110983261D01*
X132392143Y-111668590D01*
X132425628Y-111729913D01*
X132420644Y-111799604D01*
X132379949Y-111854646D01*
X132292075Y-111922074D01*
X132292074Y-111922075D01*
X132224646Y-112009949D01*
X132168218Y-112051151D01*
X132098472Y-112055306D01*
X132038590Y-112022143D01*
X131353453Y-111337006D01*
X131311455Y-111389670D01*
X131184058Y-111610328D01*
X131090973Y-111847505D01*
X131090968Y-111847522D01*
X131034273Y-112095920D01*
X131015233Y-112349995D01*
X131015233Y-112350004D01*
X126763965Y-112350004D01*
X126766305Y-108370000D01*
X183100000Y-108370000D01*
X184231858Y-108370000D01*
X184298897Y-108389685D01*
X184344652Y-108442489D01*
X184355648Y-108501210D01*
X184346171Y-108663904D01*
X184346172Y-108663906D01*
X184356850Y-108724469D01*
X184349105Y-108793908D01*
X184305048Y-108848137D01*
X184238667Y-108869938D01*
X184234734Y-108870000D01*
X183100001Y-108870000D01*
X183100001Y-109449744D01*
X183115426Y-109586652D01*
X183176166Y-109760239D01*
X183274008Y-109915953D01*
X183404046Y-110045991D01*
X183559759Y-110143832D01*
X183733347Y-110204574D01*
X183870256Y-110219999D01*
X184849999Y-110219999D01*
X184850000Y-110219998D01*
X184850000Y-109488348D01*
X184869685Y-109421309D01*
X184922489Y-109375554D01*
X184991647Y-109365610D01*
X185002593Y-109367690D01*
X185012338Y-109370000D01*
X185143677Y-109370000D01*
X185143684Y-109370000D01*
X185211605Y-109362061D01*
X185280475Y-109373829D01*
X185332051Y-109420964D01*
X185350000Y-109485222D01*
X185350000Y-110219999D01*
X186329741Y-110219999D01*
X186329744Y-110219998D01*
X186466652Y-110204573D01*
X186640239Y-110143833D01*
X186795953Y-110045991D01*
X186925991Y-109915953D01*
X187023832Y-109760240D01*
X187084574Y-109586652D01*
X187099999Y-109449743D01*
X187100000Y-109449742D01*
X187100000Y-108870000D01*
X185968142Y-108870000D01*
X185901103Y-108850315D01*
X185855348Y-108797511D01*
X185844352Y-108738790D01*
X185853828Y-108576094D01*
X185853827Y-108576091D01*
X185843150Y-108515531D01*
X185850895Y-108446092D01*
X185894952Y-108391863D01*
X185961333Y-108370062D01*
X185965266Y-108370000D01*
X187099999Y-108370000D01*
X187099999Y-107790259D01*
X187099998Y-107790255D01*
X187084573Y-107653347D01*
X187023833Y-107479760D01*
X186925991Y-107324046D01*
X186795953Y-107194008D01*
X186640240Y-107096167D01*
X186466652Y-107035425D01*
X186329743Y-107020000D01*
X185350000Y-107020000D01*
X185350000Y-107751651D01*
X185330315Y-107818690D01*
X185277511Y-107864445D01*
X185208353Y-107874389D01*
X185197407Y-107872309D01*
X185187663Y-107870000D01*
X185187662Y-107870000D01*
X185056316Y-107870000D01*
X184988394Y-107877939D01*
X184919523Y-107866169D01*
X184867948Y-107819034D01*
X184850000Y-107754777D01*
X184850000Y-107020000D01*
X183870259Y-107020000D01*
X183870255Y-107020001D01*
X183733347Y-107035426D01*
X183559760Y-107096166D01*
X183404046Y-107194008D01*
X183274008Y-107324046D01*
X183176167Y-107479759D01*
X183115425Y-107653347D01*
X183100000Y-107790256D01*
X183100000Y-108370000D01*
X126766305Y-108370000D01*
X126769097Y-103620000D01*
X183094551Y-103620000D01*
X183114317Y-103871151D01*
X183173126Y-104116110D01*
X183269533Y-104348859D01*
X183401160Y-104563653D01*
X183401161Y-104563656D01*
X183401164Y-104563659D01*
X183564776Y-104755224D01*
X183713066Y-104881875D01*
X183756343Y-104918838D01*
X183756346Y-104918839D01*
X183971140Y-105050466D01*
X184203888Y-105146872D01*
X184203889Y-105146873D01*
X184448852Y-105205683D01*
X184604950Y-105217968D01*
X184637116Y-105220500D01*
X184637118Y-105220500D01*
X185562884Y-105220500D01*
X185592518Y-105218167D01*
X185751148Y-105205683D01*
X185996111Y-105146873D01*
X186228859Y-105050466D01*
X186443659Y-104918836D01*
X186635224Y-104755224D01*
X186798836Y-104563659D01*
X186930466Y-104348859D01*
X187026873Y-104116111D01*
X187085683Y-103871148D01*
X187105449Y-103620000D01*
X187085683Y-103368852D01*
X187026873Y-103123889D01*
X186930466Y-102891141D01*
X186930466Y-102891140D01*
X186798839Y-102676346D01*
X186798838Y-102676343D01*
X186761875Y-102633066D01*
X186635224Y-102484776D01*
X186508571Y-102376604D01*
X186443656Y-102321161D01*
X186443653Y-102321160D01*
X186228859Y-102189533D01*
X185996110Y-102093126D01*
X185751150Y-102034317D01*
X185562884Y-102019500D01*
X185562882Y-102019500D01*
X184637118Y-102019500D01*
X184637116Y-102019500D01*
X184448849Y-102034317D01*
X184203889Y-102093126D01*
X183971140Y-102189533D01*
X183756346Y-102321160D01*
X183756343Y-102321161D01*
X183564776Y-102484776D01*
X183401161Y-102676343D01*
X183401160Y-102676346D01*
X183269533Y-102891140D01*
X183173126Y-103123889D01*
X183114317Y-103368848D01*
X183094551Y-103620000D01*
X126769097Y-103620000D01*
X126772036Y-98619999D01*
X183094551Y-98619999D01*
X183114317Y-98871151D01*
X183173126Y-99116110D01*
X183269533Y-99348859D01*
X183401160Y-99563653D01*
X183401161Y-99563656D01*
X183401164Y-99563659D01*
X183564776Y-99755224D01*
X183713066Y-99881875D01*
X183756343Y-99918838D01*
X183756346Y-99918839D01*
X183971140Y-100050466D01*
X184203888Y-100146873D01*
X184203889Y-100146873D01*
X184448852Y-100205683D01*
X184604950Y-100217968D01*
X184637116Y-100220500D01*
X184637118Y-100220500D01*
X185562884Y-100220500D01*
X185592518Y-100218167D01*
X185751148Y-100205683D01*
X185996111Y-100146873D01*
X186228859Y-100050466D01*
X186443659Y-99918836D01*
X186635224Y-99755224D01*
X186798836Y-99563659D01*
X186930466Y-99348859D01*
X187026873Y-99116111D01*
X187085683Y-98871148D01*
X187105449Y-98620000D01*
X187085683Y-98368852D01*
X187026873Y-98123889D01*
X186983841Y-98019999D01*
X186930466Y-97891140D01*
X186798839Y-97676346D01*
X186798838Y-97676343D01*
X186706198Y-97567876D01*
X186635224Y-97484776D01*
X186457509Y-97332993D01*
X186443656Y-97321161D01*
X186443653Y-97321160D01*
X186228859Y-97189533D01*
X185996110Y-97093126D01*
X185751150Y-97034317D01*
X185562884Y-97019500D01*
X185562882Y-97019500D01*
X184637118Y-97019500D01*
X184637116Y-97019500D01*
X184448849Y-97034317D01*
X184203889Y-97093126D01*
X183971140Y-97189533D01*
X183756346Y-97321160D01*
X183756343Y-97321161D01*
X183564776Y-97484776D01*
X183401161Y-97676343D01*
X183401160Y-97676346D01*
X183269533Y-97891140D01*
X183173126Y-98123889D01*
X183114317Y-98368848D01*
X183094551Y-98619999D01*
X126772036Y-98619999D01*
X126773388Y-96320004D01*
X131015233Y-96320004D01*
X131034273Y-96574079D01*
X131090968Y-96822477D01*
X131090973Y-96822494D01*
X131184058Y-97059671D01*
X131184057Y-97059671D01*
X131311457Y-97280332D01*
X131353452Y-97332993D01*
X132038590Y-96647855D01*
X132099913Y-96614370D01*
X132169604Y-96619354D01*
X132224645Y-96660049D01*
X132292074Y-96747924D01*
X132292075Y-96747925D01*
X132379948Y-96815353D01*
X132421150Y-96871781D01*
X132425305Y-96941527D01*
X132392142Y-97001409D01*
X131706813Y-97686737D01*
X131867623Y-97796375D01*
X131867624Y-97796376D01*
X132097176Y-97906921D01*
X132097174Y-97906921D01*
X132340652Y-97982024D01*
X132340658Y-97982026D01*
X132592595Y-98019999D01*
X132592604Y-98020000D01*
X132847396Y-98020000D01*
X132847404Y-98019999D01*
X133099341Y-97982026D01*
X133099347Y-97982024D01*
X133342824Y-97906921D01*
X133572381Y-97796373D01*
X133733185Y-97686737D01*
X133614318Y-97567870D01*
X136019500Y-97567870D01*
X136019501Y-97567876D01*
X136025908Y-97627483D01*
X136076202Y-97762328D01*
X136076206Y-97762335D01*
X136162452Y-97877544D01*
X136162455Y-97877547D01*
X136277664Y-97963793D01*
X136277671Y-97963797D01*
X136412517Y-98014091D01*
X136412516Y-98014091D01*
X136419444Y-98014835D01*
X136472127Y-98020500D01*
X138967872Y-98020499D01*
X139027483Y-98014091D01*
X139162331Y-97963796D01*
X139277546Y-97877546D01*
X139363796Y-97762331D01*
X139414091Y-97627483D01*
X139420500Y-97567873D01*
X139420499Y-95072128D01*
X139414091Y-95012517D01*
X139363796Y-94877669D01*
X139363795Y-94877668D01*
X139363793Y-94877664D01*
X139277547Y-94762455D01*
X139277544Y-94762452D01*
X139162335Y-94676206D01*
X139162328Y-94676202D01*
X139027482Y-94625908D01*
X139027483Y-94625908D01*
X138967883Y-94619501D01*
X138967881Y-94619500D01*
X138967873Y-94619500D01*
X138967864Y-94619500D01*
X136472129Y-94619500D01*
X136472123Y-94619501D01*
X136412516Y-94625908D01*
X136277671Y-94676202D01*
X136277664Y-94676206D01*
X136162455Y-94762452D01*
X136162452Y-94762455D01*
X136076206Y-94877664D01*
X136076202Y-94877671D01*
X136025908Y-95012517D01*
X136019501Y-95072116D01*
X136019501Y-95072123D01*
X136019500Y-95072135D01*
X136019500Y-97567870D01*
X133614318Y-97567870D01*
X133047856Y-97001409D01*
X133014371Y-96940086D01*
X133019355Y-96870395D01*
X133060049Y-96815353D01*
X133147925Y-96747925D01*
X133215354Y-96660048D01*
X133271779Y-96618848D01*
X133341525Y-96614693D01*
X133401409Y-96647856D01*
X134086545Y-97332993D01*
X134128545Y-97280327D01*
X134255941Y-97059671D01*
X134349026Y-96822494D01*
X134349031Y-96822477D01*
X134405726Y-96574079D01*
X134424767Y-96320004D01*
X134424767Y-96319995D01*
X134405726Y-96065920D01*
X134349031Y-95817522D01*
X134349026Y-95817505D01*
X134255941Y-95580328D01*
X134255942Y-95580328D01*
X134128544Y-95359671D01*
X134086545Y-95307005D01*
X133401409Y-95992142D01*
X133340086Y-96025627D01*
X133270394Y-96020643D01*
X133215353Y-95979948D01*
X133147925Y-95892075D01*
X133147924Y-95892074D01*
X133060049Y-95824645D01*
X133018847Y-95768219D01*
X133014692Y-95698473D01*
X133047855Y-95638590D01*
X133733185Y-94953261D01*
X133572377Y-94843624D01*
X133572376Y-94843623D01*
X133342823Y-94733078D01*
X133342825Y-94733078D01*
X133099347Y-94657975D01*
X133099341Y-94657973D01*
X132847404Y-94620000D01*
X132592595Y-94620000D01*
X132340658Y-94657973D01*
X132340652Y-94657975D01*
X132097175Y-94733078D01*
X131867624Y-94843623D01*
X131867616Y-94843628D01*
X131706813Y-94953261D01*
X132392143Y-95638590D01*
X132425628Y-95699913D01*
X132420644Y-95769604D01*
X132379949Y-95824646D01*
X132292075Y-95892074D01*
X132292074Y-95892075D01*
X132224646Y-95979949D01*
X132168218Y-96021151D01*
X132098472Y-96025306D01*
X132038590Y-95992143D01*
X131353453Y-95307006D01*
X131311455Y-95359670D01*
X131184058Y-95580328D01*
X131090973Y-95817505D01*
X131090968Y-95817522D01*
X131034273Y-96065920D01*
X131015233Y-96319995D01*
X131015233Y-96320004D01*
X126773388Y-96320004D01*
X126778459Y-87692870D01*
X156237000Y-87692870D01*
X156237001Y-87692876D01*
X156243408Y-87752483D01*
X156293702Y-87887328D01*
X156293706Y-87887335D01*
X156379952Y-88002544D01*
X156379955Y-88002547D01*
X156495164Y-88088793D01*
X156495171Y-88088797D01*
X156630017Y-88139091D01*
X156630016Y-88139091D01*
X156636944Y-88139835D01*
X156689627Y-88145500D01*
X158690372Y-88145499D01*
X158749983Y-88139091D01*
X158884831Y-88088796D01*
X159000046Y-88002546D01*
X159086296Y-87887331D01*
X159086297Y-87887328D01*
X159086298Y-87887327D01*
X159097907Y-87856199D01*
X159139776Y-87800264D01*
X159205240Y-87775844D01*
X159273513Y-87790694D01*
X159290252Y-87801675D01*
X159432831Y-87912649D01*
X159432840Y-87912655D01*
X159644531Y-88027215D01*
X159644545Y-88027221D01*
X159872207Y-88105379D01*
X159980000Y-88123366D01*
X159980000Y-87309652D01*
X159999685Y-87242613D01*
X160052489Y-87196858D01*
X160121647Y-87186914D01*
X160137447Y-87190248D01*
X160154404Y-87195000D01*
X160154406Y-87195000D01*
X160267622Y-87195000D01*
X160339116Y-87185173D01*
X160408210Y-87195545D01*
X160460729Y-87241627D01*
X160480000Y-87308018D01*
X160480000Y-88123365D01*
X160587792Y-88105379D01*
X160815454Y-88027221D01*
X160815468Y-88027215D01*
X161027159Y-87912655D01*
X161027168Y-87912649D01*
X161217116Y-87764806D01*
X161217126Y-87764797D01*
X161380154Y-87587702D01*
X161380155Y-87587701D01*
X161395891Y-87563616D01*
X161449036Y-87518258D01*
X161518267Y-87508833D01*
X161581604Y-87538333D01*
X161603510Y-87563614D01*
X161619446Y-87588007D01*
X161619448Y-87588009D01*
X161619449Y-87588010D01*
X161782537Y-87765171D01*
X161938908Y-87886879D01*
X161972017Y-87912649D01*
X161972561Y-87913072D01*
X162007330Y-87931888D01*
X162183478Y-88027215D01*
X162184336Y-88027679D01*
X162302598Y-88068278D01*
X162412083Y-88105865D01*
X162412085Y-88105865D01*
X162412087Y-88105866D01*
X162649601Y-88145500D01*
X162649602Y-88145500D01*
X162890398Y-88145500D01*
X162890399Y-88145500D01*
X163127913Y-88105866D01*
X163355664Y-88027679D01*
X163567439Y-87913072D01*
X163757463Y-87765171D01*
X163920551Y-87588010D01*
X164052255Y-87386422D01*
X164148983Y-87165905D01*
X164208095Y-86932476D01*
X164223000Y-86752600D01*
X164223000Y-86617763D01*
X185135787Y-86617763D01*
X185165413Y-86887013D01*
X185165415Y-86887024D01*
X185201208Y-87023934D01*
X185233928Y-87149088D01*
X185339870Y-87398390D01*
X185455405Y-87587701D01*
X185480979Y-87629605D01*
X185480986Y-87629615D01*
X185654253Y-87837819D01*
X185654259Y-87837824D01*
X185709517Y-87887335D01*
X185855998Y-88018582D01*
X186081910Y-88168044D01*
X186327176Y-88283020D01*
X186327183Y-88283022D01*
X186327185Y-88283023D01*
X186586557Y-88361057D01*
X186586564Y-88361058D01*
X186586569Y-88361060D01*
X186854561Y-88400500D01*
X186854566Y-88400500D01*
X187057636Y-88400500D01*
X187109133Y-88396730D01*
X187260156Y-88385677D01*
X187372758Y-88360593D01*
X187524546Y-88326782D01*
X187524548Y-88326781D01*
X187524553Y-88326780D01*
X187777558Y-88230014D01*
X188013777Y-88097441D01*
X188228177Y-87931888D01*
X188416186Y-87736881D01*
X188573799Y-87516579D01*
X188647787Y-87372669D01*
X188697649Y-87275690D01*
X188697651Y-87275684D01*
X188697656Y-87275675D01*
X188785118Y-87019305D01*
X188834319Y-86752933D01*
X188844212Y-86482235D01*
X188814586Y-86212982D01*
X188746072Y-85950912D01*
X188640130Y-85701610D01*
X188499018Y-85470390D01*
X188442662Y-85402671D01*
X188325746Y-85262180D01*
X188325740Y-85262175D01*
X188124002Y-85081418D01*
X187898092Y-84931957D01*
X187898090Y-84931956D01*
X187652824Y-84816980D01*
X187652819Y-84816978D01*
X187652814Y-84816976D01*
X187393442Y-84738942D01*
X187393428Y-84738939D01*
X187277791Y-84721921D01*
X187125439Y-84699500D01*
X186922369Y-84699500D01*
X186922364Y-84699500D01*
X186719844Y-84714323D01*
X186719831Y-84714325D01*
X186455453Y-84773217D01*
X186455446Y-84773220D01*
X186202439Y-84869987D01*
X185966226Y-85002557D01*
X185966224Y-85002558D01*
X185966223Y-85002559D01*
X185909413Y-85046426D01*
X185751822Y-85168112D01*
X185563822Y-85363109D01*
X185563816Y-85363116D01*
X185406202Y-85583419D01*
X185406199Y-85583424D01*
X185282350Y-85824309D01*
X185282343Y-85824327D01*
X185194884Y-86080685D01*
X185194881Y-86080699D01*
X185184705Y-86135791D01*
X185158134Y-86279650D01*
X185145681Y-86347068D01*
X185145680Y-86347075D01*
X185135787Y-86617763D01*
X164223000Y-86617763D01*
X164223000Y-86537400D01*
X164208095Y-86357524D01*
X164148983Y-86124095D01*
X164052255Y-85903578D01*
X163920551Y-85701990D01*
X163757463Y-85524829D01*
X163600505Y-85402664D01*
X163567441Y-85376929D01*
X163355665Y-85262321D01*
X163355656Y-85262318D01*
X163127916Y-85184134D01*
X162928800Y-85150908D01*
X162890399Y-85144500D01*
X162649601Y-85144500D01*
X162611200Y-85150908D01*
X162412083Y-85184134D01*
X162184343Y-85262318D01*
X162184334Y-85262321D01*
X161972558Y-85376929D01*
X161852475Y-85470394D01*
X161782537Y-85524829D01*
X161782534Y-85524831D01*
X161782534Y-85524832D01*
X161619450Y-85701988D01*
X161619446Y-85701994D01*
X161603507Y-85726389D01*
X161550359Y-85771744D01*
X161481127Y-85781165D01*
X161417793Y-85751661D01*
X161395892Y-85726385D01*
X161380154Y-85702296D01*
X161217126Y-85525202D01*
X161217116Y-85525193D01*
X161027168Y-85377350D01*
X161027159Y-85377344D01*
X160815468Y-85262784D01*
X160815454Y-85262778D01*
X160587791Y-85184619D01*
X160480000Y-85166633D01*
X160479999Y-85166633D01*
X160479999Y-85980347D01*
X160460314Y-86047387D01*
X160407510Y-86093141D01*
X160338352Y-86103085D01*
X160322545Y-86099749D01*
X160318837Y-86098710D01*
X160305596Y-86095000D01*
X160192378Y-86095000D01*
X160192376Y-86095000D01*
X160120884Y-86104826D01*
X160051789Y-86094453D01*
X159999270Y-86048371D01*
X159980000Y-85981981D01*
X159980000Y-85166633D01*
X159979999Y-85166633D01*
X159872208Y-85184619D01*
X159644545Y-85262778D01*
X159644531Y-85262784D01*
X159432840Y-85377344D01*
X159432838Y-85377345D01*
X159290252Y-85488325D01*
X159225258Y-85513967D01*
X159156718Y-85500400D01*
X159106393Y-85451932D01*
X159097907Y-85433801D01*
X159086297Y-85402671D01*
X159086293Y-85402664D01*
X159000047Y-85287455D01*
X159000044Y-85287452D01*
X158884835Y-85201206D01*
X158884828Y-85201202D01*
X158749982Y-85150908D01*
X158749983Y-85150908D01*
X158690383Y-85144501D01*
X158690381Y-85144500D01*
X158690373Y-85144500D01*
X158690364Y-85144500D01*
X156689629Y-85144500D01*
X156689623Y-85144501D01*
X156630016Y-85150908D01*
X156495171Y-85201202D01*
X156495164Y-85201206D01*
X156379955Y-85287452D01*
X156379952Y-85287455D01*
X156293706Y-85402664D01*
X156293702Y-85402671D01*
X156243408Y-85537517D01*
X156237001Y-85597116D01*
X156237000Y-85597135D01*
X156237000Y-87692870D01*
X126778459Y-87692870D01*
X126779332Y-86207870D01*
X131149500Y-86207870D01*
X131149501Y-86207876D01*
X131155908Y-86267483D01*
X131206202Y-86402328D01*
X131206206Y-86402335D01*
X131292452Y-86517544D01*
X131292455Y-86517547D01*
X131407664Y-86603793D01*
X131407671Y-86603797D01*
X131542517Y-86654091D01*
X131542516Y-86654091D01*
X131549444Y-86654835D01*
X131602127Y-86660500D01*
X134897872Y-86660499D01*
X134957483Y-86654091D01*
X135092331Y-86603796D01*
X135207546Y-86517546D01*
X135293796Y-86402331D01*
X135344091Y-86267483D01*
X135350500Y-86207873D01*
X135350499Y-84560000D01*
X136224592Y-84560000D01*
X136244201Y-84846680D01*
X136302666Y-85128034D01*
X136302667Y-85128037D01*
X136398894Y-85398793D01*
X136398893Y-85398793D01*
X136531098Y-85653935D01*
X136696812Y-85888700D01*
X136781923Y-85979830D01*
X136892947Y-86098708D01*
X137115853Y-86280055D01*
X137316926Y-86402331D01*
X137361382Y-86429365D01*
X137483103Y-86482235D01*
X137624942Y-86543844D01*
X137901642Y-86621371D01*
X138139694Y-86654091D01*
X138186321Y-86660500D01*
X138186322Y-86660500D01*
X138473679Y-86660500D01*
X138520306Y-86654091D01*
X138758358Y-86621371D01*
X139035058Y-86543844D01*
X139176897Y-86482235D01*
X139298617Y-86429365D01*
X139298620Y-86429363D01*
X139298625Y-86429361D01*
X139544147Y-86280055D01*
X139767053Y-86098708D01*
X139963189Y-85888698D01*
X140128901Y-85653936D01*
X140261104Y-85398797D01*
X140357334Y-85128032D01*
X140415798Y-84846686D01*
X140435408Y-84560000D01*
X141304592Y-84560000D01*
X141324201Y-84846680D01*
X141382666Y-85128034D01*
X141382667Y-85128037D01*
X141478894Y-85398793D01*
X141478893Y-85398793D01*
X141611098Y-85653935D01*
X141776812Y-85888700D01*
X141861923Y-85979830D01*
X141972947Y-86098708D01*
X142195853Y-86280055D01*
X142396926Y-86402331D01*
X142441382Y-86429365D01*
X142563103Y-86482235D01*
X142704942Y-86543844D01*
X142981642Y-86621371D01*
X143219694Y-86654091D01*
X143266321Y-86660500D01*
X143266322Y-86660500D01*
X143553679Y-86660500D01*
X143600306Y-86654091D01*
X143838358Y-86621371D01*
X144115058Y-86543844D01*
X144256897Y-86482235D01*
X144378617Y-86429365D01*
X144378620Y-86429363D01*
X144378625Y-86429361D01*
X144624147Y-86280055D01*
X144847053Y-86098708D01*
X145043189Y-85888698D01*
X145208901Y-85653936D01*
X145341104Y-85398797D01*
X145437334Y-85128032D01*
X145495798Y-84846686D01*
X145515408Y-84560000D01*
X145515408Y-84559999D01*
X146385093Y-84559999D01*
X146404697Y-84846618D01*
X146404698Y-84846619D01*
X146463145Y-85127885D01*
X146463150Y-85127902D01*
X146559355Y-85398595D01*
X146691527Y-85653677D01*
X146691531Y-85653683D01*
X146836868Y-85859578D01*
X147663389Y-85033056D01*
X147724712Y-84999571D01*
X147794403Y-85004555D01*
X147850337Y-85046426D01*
X147856059Y-85054758D01*
X147860577Y-85061948D01*
X147988052Y-85189423D01*
X147995229Y-85193933D01*
X148041522Y-85246264D01*
X148052173Y-85315317D01*
X148023801Y-85379166D01*
X148016942Y-85386609D01*
X147192198Y-86211352D01*
X147276145Y-86279648D01*
X147521607Y-86428917D01*
X147785108Y-86543371D01*
X148061737Y-86620879D01*
X148061744Y-86620880D01*
X148346355Y-86660000D01*
X148633645Y-86660000D01*
X148918255Y-86620880D01*
X148918262Y-86620879D01*
X149194891Y-86543371D01*
X149458392Y-86428917D01*
X149703851Y-86279650D01*
X149703866Y-86279640D01*
X149787799Y-86211352D01*
X148963057Y-85386610D01*
X148929572Y-85325287D01*
X148934556Y-85255595D01*
X148976428Y-85199662D01*
X148984769Y-85193934D01*
X148986351Y-85192939D01*
X148991948Y-85189423D01*
X149119423Y-85061948D01*
X149123933Y-85054769D01*
X149176267Y-85008476D01*
X149245320Y-84997826D01*
X149309169Y-85026200D01*
X149316610Y-85033057D01*
X150143130Y-85859577D01*
X150288472Y-85653676D01*
X150420644Y-85398595D01*
X150516849Y-85127902D01*
X150516854Y-85127885D01*
X150575301Y-84846619D01*
X150575302Y-84846618D01*
X150594906Y-84559999D01*
X150575302Y-84273381D01*
X150575301Y-84273380D01*
X150516854Y-83992114D01*
X150516849Y-83992097D01*
X150420644Y-83721404D01*
X150288472Y-83466322D01*
X150288468Y-83466316D01*
X150143131Y-83260421D01*
X150143130Y-83260420D01*
X149316609Y-84086942D01*
X149255286Y-84120427D01*
X149185594Y-84115443D01*
X149129661Y-84073571D01*
X149123942Y-84065244D01*
X149119423Y-84058052D01*
X148991948Y-83930577D01*
X148984764Y-83926063D01*
X148938474Y-83873730D01*
X148927825Y-83804676D01*
X148956200Y-83740828D01*
X148963056Y-83733389D01*
X149787800Y-82908646D01*
X149703854Y-82840351D01*
X149458392Y-82691082D01*
X149194891Y-82576628D01*
X148918262Y-82499120D01*
X148918255Y-82499119D01*
X148633645Y-82460000D01*
X148346355Y-82460000D01*
X148061744Y-82499119D01*
X148061737Y-82499120D01*
X147785108Y-82576628D01*
X147521607Y-82691082D01*
X147276146Y-82840351D01*
X147276144Y-82840352D01*
X147192198Y-82908646D01*
X148016942Y-83733389D01*
X148050427Y-83794712D01*
X148045443Y-83864403D01*
X148003571Y-83920337D01*
X147995236Y-83926062D01*
X147988054Y-83930574D01*
X147860574Y-84058054D01*
X147856062Y-84065236D01*
X147803726Y-84111526D01*
X147734672Y-84122172D01*
X147670825Y-84093795D01*
X147663389Y-84086942D01*
X146836868Y-83260420D01*
X146691524Y-83466328D01*
X146559355Y-83721404D01*
X146463150Y-83992097D01*
X146463145Y-83992114D01*
X146404698Y-84273380D01*
X146404697Y-84273381D01*
X146385093Y-84559999D01*
X145515408Y-84559999D01*
X145495798Y-84273314D01*
X145437334Y-83991968D01*
X145341105Y-83721206D01*
X145341106Y-83721206D01*
X145208901Y-83466064D01*
X145043187Y-83231299D01*
X144964554Y-83147104D01*
X144847053Y-83021292D01*
X144624147Y-82839945D01*
X144624146Y-82839944D01*
X144378617Y-82690634D01*
X144115063Y-82576158D01*
X144115061Y-82576157D01*
X144115058Y-82576156D01*
X143985578Y-82539877D01*
X143838364Y-82498630D01*
X143838359Y-82498629D01*
X143838358Y-82498629D01*
X143696018Y-82479064D01*
X143553679Y-82459500D01*
X143553678Y-82459500D01*
X143266322Y-82459500D01*
X143266321Y-82459500D01*
X142981642Y-82498629D01*
X142981635Y-82498630D01*
X142773861Y-82556845D01*
X142704942Y-82576156D01*
X142704939Y-82576156D01*
X142704936Y-82576158D01*
X142704935Y-82576158D01*
X142441382Y-82690634D01*
X142195853Y-82839944D01*
X141972950Y-83021289D01*
X141776812Y-83231299D01*
X141611098Y-83466064D01*
X141478894Y-83721206D01*
X141382667Y-83991962D01*
X141382666Y-83991965D01*
X141324201Y-84273319D01*
X141304592Y-84560000D01*
X140435408Y-84560000D01*
X140415798Y-84273314D01*
X140357334Y-83991968D01*
X140261105Y-83721206D01*
X140261106Y-83721206D01*
X140128901Y-83466064D01*
X139963187Y-83231299D01*
X139884554Y-83147104D01*
X139767053Y-83021292D01*
X139544147Y-82839945D01*
X139544146Y-82839944D01*
X139298617Y-82690634D01*
X139035063Y-82576158D01*
X139035061Y-82576157D01*
X139035058Y-82576156D01*
X138905578Y-82539877D01*
X138758364Y-82498630D01*
X138758359Y-82498629D01*
X138758358Y-82498629D01*
X138616017Y-82479064D01*
X138473679Y-82459500D01*
X138473678Y-82459500D01*
X138186322Y-82459500D01*
X138186321Y-82459500D01*
X137901642Y-82498629D01*
X137901635Y-82498630D01*
X137693861Y-82556845D01*
X137624942Y-82576156D01*
X137624939Y-82576156D01*
X137624936Y-82576158D01*
X137624935Y-82576158D01*
X137361382Y-82690634D01*
X137115853Y-82839944D01*
X136892950Y-83021289D01*
X136696812Y-83231299D01*
X136531098Y-83466064D01*
X136398894Y-83721206D01*
X136302667Y-83991962D01*
X136302666Y-83991965D01*
X136244201Y-84273319D01*
X136224592Y-84560000D01*
X135350499Y-84560000D01*
X135350499Y-82912128D01*
X135344091Y-82852517D01*
X135339553Y-82840351D01*
X135293797Y-82717671D01*
X135293793Y-82717664D01*
X135207547Y-82602455D01*
X135207544Y-82602452D01*
X135092335Y-82516206D01*
X135092328Y-82516202D01*
X134957482Y-82465908D01*
X134957483Y-82465908D01*
X134897883Y-82459501D01*
X134897881Y-82459500D01*
X134897873Y-82459500D01*
X134897864Y-82459500D01*
X131602129Y-82459500D01*
X131602123Y-82459501D01*
X131542516Y-82465908D01*
X131407671Y-82516202D01*
X131407664Y-82516206D01*
X131292455Y-82602452D01*
X131292452Y-82602455D01*
X131206206Y-82717664D01*
X131206202Y-82717671D01*
X131155908Y-82852517D01*
X131149874Y-82908646D01*
X131149501Y-82912123D01*
X131149500Y-82912135D01*
X131149500Y-86207870D01*
X126779332Y-86207870D01*
X126789927Y-68183926D01*
X126809651Y-68116899D01*
X126862482Y-68071175D01*
X126913927Y-68060000D01*
X190975799Y-68060000D01*
X191042838Y-68079685D01*
G37*
%TD.AperFunction*%
%TD*%
M02*
