%TF.GenerationSoftware,KiCad,Pcbnew,7.0.7*%
%TF.CreationDate,2023-08-27T17:08:45+10:00*%
%TF.ProjectId,PowerSupply,506f7765-7253-4757-9070-6c792e6b6963,rev?*%
%TF.SameCoordinates,Original*%
%TF.FileFunction,Copper,L1,Top*%
%TF.FilePolarity,Positive*%
%FSLAX46Y46*%
G04 Gerber Fmt 4.6, Leading zero omitted, Abs format (unit mm)*
G04 Created by KiCad (PCBNEW 7.0.7) date 2023-08-27 17:08:45*
%MOMM*%
%LPD*%
G01*
G04 APERTURE LIST*
G04 Aperture macros list*
%AMRoundRect*
0 Rectangle with rounded corners*
0 $1 Rounding radius*
0 $2 $3 $4 $5 $6 $7 $8 $9 X,Y pos of 4 corners*
0 Add a 4 corners polygon primitive as box body*
4,1,4,$2,$3,$4,$5,$6,$7,$8,$9,$2,$3,0*
0 Add four circle primitives for the rounded corners*
1,1,$1+$1,$2,$3*
1,1,$1+$1,$4,$5*
1,1,$1+$1,$6,$7*
1,1,$1+$1,$8,$9*
0 Add four rect primitives between the rounded corners*
20,1,$1+$1,$2,$3,$4,$5,0*
20,1,$1+$1,$4,$5,$6,$7,0*
20,1,$1+$1,$6,$7,$8,$9,0*
20,1,$1+$1,$8,$9,$2,$3,0*%
G04 Aperture macros list end*
%TA.AperFunction,ComponentPad*%
%ADD10R,1.905000X2.000000*%
%TD*%
%TA.AperFunction,ComponentPad*%
%ADD11O,1.905000X2.000000*%
%TD*%
%TA.AperFunction,SMDPad,CuDef*%
%ADD12RoundRect,0.250000X-0.262500X-0.450000X0.262500X-0.450000X0.262500X0.450000X-0.262500X0.450000X0*%
%TD*%
%TA.AperFunction,ComponentPad*%
%ADD13R,2.400000X2.400000*%
%TD*%
%TA.AperFunction,ComponentPad*%
%ADD14C,2.400000*%
%TD*%
%TA.AperFunction,SMDPad,CuDef*%
%ADD15RoundRect,0.243750X0.243750X0.456250X-0.243750X0.456250X-0.243750X-0.456250X0.243750X-0.456250X0*%
%TD*%
%TA.AperFunction,SMDPad,CuDef*%
%ADD16RoundRect,0.250000X-0.362500X-1.425000X0.362500X-1.425000X0.362500X1.425000X-0.362500X1.425000X0*%
%TD*%
%TA.AperFunction,SMDPad,CuDef*%
%ADD17RoundRect,0.250000X-1.250000X-0.550000X1.250000X-0.550000X1.250000X0.550000X-1.250000X0.550000X0*%
%TD*%
%TA.AperFunction,SMDPad,CuDef*%
%ADD18RoundRect,0.250000X1.250000X0.550000X-1.250000X0.550000X-1.250000X-0.550000X1.250000X-0.550000X0*%
%TD*%
%TA.AperFunction,SMDPad,CuDef*%
%ADD19RoundRect,0.250000X0.450000X0.425000X-0.450000X0.425000X-0.450000X-0.425000X0.450000X-0.425000X0*%
%TD*%
%TA.AperFunction,ComponentPad*%
%ADD20C,3.500000*%
%TD*%
%TA.AperFunction,ComponentPad*%
%ADD21R,3.200000X3.200000*%
%TD*%
%TA.AperFunction,ComponentPad*%
%ADD22C,3.200000*%
%TD*%
%TA.AperFunction,ComponentPad*%
%ADD23RoundRect,0.250000X1.850000X-1.330000X1.850000X1.330000X-1.850000X1.330000X-1.850000X-1.330000X0*%
%TD*%
%TA.AperFunction,ComponentPad*%
%ADD24O,4.200000X3.160000*%
%TD*%
%TA.AperFunction,ComponentPad*%
%ADD25RoundRect,0.316092X1.183908X-0.783908X1.183908X0.783908X-1.183908X0.783908X-1.183908X-0.783908X0*%
%TD*%
%TA.AperFunction,ComponentPad*%
%ADD26O,3.000000X2.200000*%
%TD*%
%TA.AperFunction,ViaPad*%
%ADD27C,2.000000*%
%TD*%
%TA.AperFunction,ViaPad*%
%ADD28C,1.200000*%
%TD*%
%TA.AperFunction,Conductor*%
%ADD29C,0.250000*%
%TD*%
%TA.AperFunction,Conductor*%
%ADD30C,2.600000*%
%TD*%
%TA.AperFunction,Conductor*%
%ADD31C,1.500000*%
%TD*%
%TA.AperFunction,Conductor*%
%ADD32C,0.500000*%
%TD*%
%TA.AperFunction,Conductor*%
%ADD33C,3.200000*%
%TD*%
G04 APERTURE END LIST*
D10*
%TO.P,U2,1,IN*%
%TO.N,Net-(Q1-B)*%
X162430000Y-121460000D03*
D11*
%TO.P,U2,2,GND*%
%TO.N,GNDA*%
X159890000Y-121460000D03*
%TO.P,U2,3,OUT*%
%TO.N,+5V*%
X157350000Y-121460000D03*
%TD*%
D12*
%TO.P,R1,1*%
%TO.N,Net-(D1-K)*%
X177387500Y-89250000D03*
%TO.P,R1,2*%
%TO.N,GNDA*%
X179212500Y-89250000D03*
%TD*%
D13*
%TO.P,C5,1*%
%TO.N,Net-(D4-+)*%
X137720000Y-112350000D03*
D14*
%TO.P,C5,2*%
%TO.N,GNDA*%
X132720000Y-112350000D03*
%TD*%
D15*
%TO.P,D3,1,K*%
%TO.N,Net-(D3-K)*%
X172877500Y-93130000D03*
%TO.P,D3,2,A*%
%TO.N,+5V*%
X171002500Y-93130000D03*
%TD*%
D16*
%TO.P,R2,1*%
%TO.N,Net-(D4-+)*%
X170497500Y-115850000D03*
%TO.P,R2,2*%
%TO.N,Net-(Q1-B)*%
X176422500Y-115850000D03*
%TD*%
D13*
%TO.P,C1,1*%
%TO.N,Net-(D2-+)*%
X137720000Y-96320000D03*
D14*
%TO.P,C1,2*%
%TO.N,GNDA*%
X132720000Y-96320000D03*
%TD*%
D10*
%TO.P,Q1,1,B*%
%TO.N,Net-(Q1-B)*%
X176060000Y-121480000D03*
D11*
%TO.P,Q1,2,C*%
%TO.N,+5V*%
X173520000Y-121480000D03*
%TO.P,Q1,3,E*%
%TO.N,Net-(D4-+)*%
X170980000Y-121480000D03*
%TD*%
D17*
%TO.P,C7,1*%
%TO.N,+5V*%
X151830000Y-116520000D03*
%TO.P,C7,2*%
%TO.N,GNDA*%
X156230000Y-116520000D03*
%TD*%
D18*
%TO.P,C3,1*%
%TO.N,+12V*%
X165460000Y-92110000D03*
%TO.P,C3,2*%
%TO.N,GNDA*%
X161060000Y-92110000D03*
%TD*%
D19*
%TO.P,C6,1*%
%TO.N,Net-(Q1-B)*%
X162380000Y-116500000D03*
%TO.P,C6,2*%
%TO.N,GNDA*%
X159680000Y-116500000D03*
%TD*%
D15*
%TO.P,D1,1,K*%
%TO.N,Net-(D1-K)*%
X172857500Y-89320000D03*
%TO.P,D1,2,A*%
%TO.N,+12V*%
X170982500Y-89320000D03*
%TD*%
D12*
%TO.P,R3,1*%
%TO.N,Net-(D3-K)*%
X177407500Y-93130000D03*
%TO.P,R3,2*%
%TO.N,GNDA*%
X179232500Y-93130000D03*
%TD*%
D10*
%TO.P,U1,1,IN*%
%TO.N,Net-(D2-+)*%
X157690000Y-86645000D03*
D11*
%TO.P,U1,2,GND*%
%TO.N,GNDA*%
X160230000Y-86645000D03*
%TO.P,U1,3,OUT*%
%TO.N,+12V*%
X162770000Y-86645000D03*
%TD*%
D20*
%TO.P,TR1,1*%
%TO.N,/Active*%
X67375000Y-76625000D03*
%TO.P,TR1,2*%
%TO.N,Net-(TR1-Pad2)*%
X67375000Y-84625000D03*
%TO.P,TR1,3*%
X67375000Y-123625000D03*
%TO.P,TR1,4*%
%TO.N,/Neutral*%
X67375000Y-131625000D03*
%TO.P,TR1,5*%
%TO.N,Net-(D4-Pad2)*%
X123375000Y-130625000D03*
%TO.P,TR1,6*%
%TO.N,Net-(D4-Pad3)*%
X123375000Y-122625000D03*
%TO.P,TR1,7*%
%TO.N,Net-(D2-Pad2)*%
X123375000Y-85625000D03*
%TO.P,TR1,8*%
%TO.N,Net-(D2-Pad3)*%
X123375000Y-77625000D03*
%TD*%
D14*
%TO.P,C4,1*%
%TO.N,/Active*%
X57090000Y-105990000D03*
%TO.P,C4,2*%
%TO.N,/Neutral*%
X57090000Y-120990000D03*
%TD*%
D21*
%TO.P,D2,1,+*%
%TO.N,Net-(D2-+)*%
X133250000Y-84560000D03*
D22*
%TO.P,D2,2*%
%TO.N,Net-(D2-Pad2)*%
X138330000Y-84560000D03*
%TO.P,D2,3*%
%TO.N,Net-(D2-Pad3)*%
X143410000Y-84560000D03*
%TO.P,D2,4,-*%
%TO.N,GNDA*%
X148490000Y-84560000D03*
%TD*%
D19*
%TO.P,C2,1*%
%TO.N,Net-(D2-+)*%
X153187500Y-90060000D03*
%TO.P,C2,2*%
%TO.N,GNDA*%
X150487500Y-90060000D03*
%TD*%
D23*
%TO.P,J2,1,Pin_1*%
%TO.N,/Neutral*%
X56370000Y-96680000D03*
D24*
%TO.P,J2,2,Pin_2*%
%TO.N,unconnected-(J2-Pin_2-Pad2)*%
X56370000Y-92720000D03*
%TO.P,J2,3,Pin_3*%
%TO.N,/Active*%
X56370000Y-88760000D03*
%TD*%
D21*
%TO.P,D4,1,+*%
%TO.N,Net-(D4-+)*%
X148610000Y-123500000D03*
D22*
%TO.P,D4,2*%
%TO.N,Net-(D4-Pad2)*%
X143530000Y-123500000D03*
%TO.P,D4,3*%
%TO.N,Net-(D4-Pad3)*%
X138450000Y-123500000D03*
%TO.P,D4,4,-*%
%TO.N,GNDA*%
X133370000Y-123500000D03*
%TD*%
D25*
%TO.P,J1,1,Pin_1*%
%TO.N,GNDA*%
X185100000Y-108620000D03*
D26*
%TO.P,J1,2,Pin_2*%
%TO.N,+5V*%
X185100000Y-103620000D03*
%TO.P,J1,3,Pin_3*%
%TO.N,+12V*%
X185100000Y-98620000D03*
%TD*%
D27*
%TO.N,GNDA*%
X148140000Y-90090000D03*
D28*
X179212500Y-91130000D03*
%TD*%
D29*
%TO.N,+5V*%
X187700000Y-103620000D02*
X185100000Y-103620000D01*
X189110000Y-102210000D02*
X187700000Y-103620000D01*
X187740000Y-95580000D02*
X189110000Y-96950000D01*
X189110000Y-96950000D02*
X189110000Y-102210000D01*
X173452500Y-95580000D02*
X187740000Y-95580000D01*
X171002500Y-93130000D02*
X173452500Y-95580000D01*
D30*
%TO.N,+12V*%
X168290000Y-98620000D02*
X185100000Y-98620000D01*
X165460000Y-92110000D02*
X165460000Y-95790000D01*
X165460000Y-95790000D02*
X168290000Y-98620000D01*
D31*
%TO.N,+5V*%
X157040000Y-103620000D02*
X185100000Y-103620000D01*
X151830000Y-108830000D02*
X157040000Y-103620000D01*
X151830000Y-116520000D02*
X151830000Y-108830000D01*
D32*
%TO.N,Net-(D1-K)*%
X177317500Y-89320000D02*
X177387500Y-89250000D01*
X172857500Y-89320000D02*
X177317500Y-89320000D01*
D30*
%TO.N,Net-(D2-+)*%
X157690000Y-86645000D02*
X157690000Y-90050000D01*
X151420000Y-96320000D02*
X137720000Y-96320000D01*
D31*
X153187500Y-90060000D02*
X157680000Y-90060000D01*
D30*
X133250000Y-88420000D02*
X137720000Y-92890000D01*
D31*
X157680000Y-90060000D02*
X157690000Y-90050000D01*
D30*
X133250000Y-84560000D02*
X133250000Y-88420000D01*
X137720000Y-92890000D02*
X137720000Y-96320000D01*
X157690000Y-90050000D02*
X151420000Y-96320000D01*
%TO.N,+12V*%
X165460000Y-89310000D02*
X165460000Y-92110000D01*
D32*
X170982500Y-89320000D02*
X165470000Y-89320000D01*
D30*
X162795000Y-86645000D02*
X165460000Y-89310000D01*
X162770000Y-86645000D02*
X162795000Y-86645000D01*
D32*
X165470000Y-89320000D02*
X165460000Y-89310000D01*
D31*
%TO.N,+5V*%
X151830000Y-118450000D02*
X151830000Y-116520000D01*
X154840000Y-121460000D02*
X151830000Y-118450000D01*
X157350000Y-121460000D02*
X154840000Y-121460000D01*
%TO.N,GNDA*%
X159680000Y-116500000D02*
X159680000Y-121250000D01*
D32*
X179212500Y-89250000D02*
X179212500Y-93110000D01*
D31*
X156230000Y-116520000D02*
X159660000Y-116520000D01*
D32*
X179212500Y-93110000D02*
X179232500Y-93130000D01*
D31*
X161060000Y-92110000D02*
X160230000Y-91280000D01*
X160230000Y-91280000D02*
X160230000Y-86645000D01*
X150487500Y-90060000D02*
X148140000Y-90060000D01*
X159660000Y-116520000D02*
X159680000Y-116500000D01*
X148140000Y-90060000D02*
X148140000Y-90090000D01*
X159680000Y-121250000D02*
X159890000Y-121460000D01*
D30*
%TO.N,Net-(D4-+)*%
X170980000Y-121480000D02*
X170980000Y-116332500D01*
X148610000Y-126490000D02*
X152490000Y-130370000D01*
X170980000Y-116332500D02*
X170497500Y-115850000D01*
X141830000Y-112350000D02*
X148610000Y-119130000D01*
X148610000Y-123500000D02*
X148610000Y-126490000D01*
X152490000Y-130370000D02*
X168230000Y-130370000D01*
X168230000Y-130370000D02*
X170980000Y-127620000D01*
X137720000Y-112350000D02*
X141830000Y-112350000D01*
X148610000Y-119130000D02*
X148610000Y-123500000D01*
X170980000Y-127620000D02*
X170980000Y-121480000D01*
D31*
%TO.N,Net-(Q1-B)*%
X162380000Y-116500000D02*
X162380000Y-121410000D01*
X162380000Y-121410000D02*
X162430000Y-121460000D01*
D30*
X176060000Y-121480000D02*
X176060000Y-116212500D01*
X176060000Y-116212500D02*
X176422500Y-115850000D01*
%TO.N,Net-(D2-Pad2)*%
X136662741Y-80630000D02*
X128370000Y-80630000D01*
X128370000Y-80630000D02*
X123375000Y-85625000D01*
X138330000Y-82297259D02*
X136662741Y-80630000D01*
X138330000Y-84560000D02*
X138330000Y-82297259D01*
%TO.N,Net-(D2-Pad3)*%
X123375000Y-77625000D02*
X139645000Y-77625000D01*
X139645000Y-77625000D02*
X143410000Y-81390000D01*
X143410000Y-81390000D02*
X143410000Y-84560000D01*
D32*
%TO.N,Net-(D3-K)*%
X172877500Y-93130000D02*
X177407500Y-93130000D01*
D30*
%TO.N,Net-(D4-Pad2)*%
X143530000Y-128370000D02*
X143530000Y-123500000D01*
X141275000Y-130625000D02*
X143530000Y-128370000D01*
X123375000Y-130625000D02*
X141275000Y-130625000D01*
%TO.N,Net-(D4-Pad3)*%
X136740000Y-127350000D02*
X138450000Y-125640000D01*
X123375000Y-122625000D02*
X128100000Y-127350000D01*
X138450000Y-125640000D02*
X138450000Y-123500000D01*
X128100000Y-127350000D02*
X136740000Y-127350000D01*
D33*
%TO.N,/Neutral*%
X56370000Y-96680000D02*
X54500000Y-96680000D01*
X67375000Y-131625000D02*
X67375000Y-131275000D01*
X55210000Y-120990000D02*
X57090000Y-120990000D01*
X54500000Y-96680000D02*
X51800000Y-99380000D01*
X51800000Y-117580000D02*
X55210000Y-120990000D01*
X51800000Y-99380000D02*
X51800000Y-117580000D01*
X67375000Y-131275000D02*
X57090000Y-120990000D01*
%TO.N,/Active*%
X63590000Y-103610000D02*
X63590000Y-90680000D01*
X67375000Y-76625000D02*
X56370000Y-87630000D01*
X57090000Y-105990000D02*
X61210000Y-105990000D01*
X61670000Y-88760000D02*
X56370000Y-88760000D01*
X56370000Y-87630000D02*
X56370000Y-88760000D01*
X61210000Y-105990000D02*
X63590000Y-103610000D01*
X63590000Y-90680000D02*
X61670000Y-88760000D01*
%TO.N,Net-(TR1-Pad2)*%
X67375000Y-123625000D02*
X71575000Y-119425000D01*
X71575000Y-119425000D02*
X71575000Y-88825000D01*
X71575000Y-88825000D02*
X67375000Y-84625000D01*
%TD*%
M02*
