%TF.GenerationSoftware,KiCad,Pcbnew,7.0.1*%
%TF.CreationDate,2023-03-27T20:51:40+10:00*%
%TF.ProjectId,RemoteHF,52656d6f-7465-4484-962e-6b696361645f,rev?*%
%TF.SameCoordinates,Original*%
%TF.FileFunction,Paste,Top*%
%TF.FilePolarity,Positive*%
%FSLAX46Y46*%
G04 Gerber Fmt 4.6, Leading zero omitted, Abs format (unit mm)*
G04 Created by KiCad (PCBNEW 7.0.1) date 2023-03-27 20:51:40*
%MOMM*%
%LPD*%
G01*
G04 APERTURE LIST*
G04 Aperture macros list*
%AMRoundRect*
0 Rectangle with rounded corners*
0 $1 Rounding radius*
0 $2 $3 $4 $5 $6 $7 $8 $9 X,Y pos of 4 corners*
0 Add a 4 corners polygon primitive as box body*
4,1,4,$2,$3,$4,$5,$6,$7,$8,$9,$2,$3,0*
0 Add four circle primitives for the rounded corners*
1,1,$1+$1,$2,$3*
1,1,$1+$1,$4,$5*
1,1,$1+$1,$6,$7*
1,1,$1+$1,$8,$9*
0 Add four rect primitives between the rounded corners*
20,1,$1+$1,$2,$3,$4,$5,0*
20,1,$1+$1,$4,$5,$6,$7,0*
20,1,$1+$1,$6,$7,$8,$9,0*
20,1,$1+$1,$8,$9,$2,$3,0*%
G04 Aperture macros list end*
%ADD10RoundRect,0.250000X-0.262500X-0.450000X0.262500X-0.450000X0.262500X0.450000X-0.262500X0.450000X0*%
%ADD11RoundRect,0.250000X0.450000X-0.262500X0.450000X0.262500X-0.450000X0.262500X-0.450000X-0.262500X0*%
%ADD12RoundRect,0.250000X-0.250000X-0.475000X0.250000X-0.475000X0.250000X0.475000X-0.250000X0.475000X0*%
%ADD13RoundRect,0.250000X-0.450000X0.262500X-0.450000X-0.262500X0.450000X-0.262500X0.450000X0.262500X0*%
%ADD14RoundRect,0.250000X0.262500X0.450000X-0.262500X0.450000X-0.262500X-0.450000X0.262500X-0.450000X0*%
%ADD15RoundRect,0.250000X-1.000000X1.950000X-1.000000X-1.950000X1.000000X-1.950000X1.000000X1.950000X0*%
%ADD16RoundRect,0.150000X-0.587500X-0.150000X0.587500X-0.150000X0.587500X0.150000X-0.587500X0.150000X0*%
%ADD17RoundRect,0.150000X0.150000X-0.850000X0.150000X0.850000X-0.150000X0.850000X-0.150000X-0.850000X0*%
%ADD18RoundRect,0.243750X0.243750X0.456250X-0.243750X0.456250X-0.243750X-0.456250X0.243750X-0.456250X0*%
%ADD19RoundRect,0.250000X0.300000X-0.300000X0.300000X0.300000X-0.300000X0.300000X-0.300000X-0.300000X0*%
%ADD20RoundRect,0.075000X0.650000X0.075000X-0.650000X0.075000X-0.650000X-0.075000X0.650000X-0.075000X0*%
%ADD21RoundRect,0.243750X-0.456250X0.243750X-0.456250X-0.243750X0.456250X-0.243750X0.456250X0.243750X0*%
%ADD22RoundRect,0.250000X0.250000X0.475000X-0.250000X0.475000X-0.250000X-0.475000X0.250000X-0.475000X0*%
%ADD23RoundRect,0.250000X-0.475000X0.250000X-0.475000X-0.250000X0.475000X-0.250000X0.475000X0.250000X0*%
%ADD24R,1.400000X0.300000*%
%ADD25RoundRect,0.250000X0.475000X-0.250000X0.475000X0.250000X-0.475000X0.250000X-0.475000X-0.250000X0*%
%ADD26RoundRect,0.168831X-2.331169X0.481169X-2.331169X-0.481169X2.331169X-0.481169X2.331169X0.481169X0*%
%ADD27RoundRect,0.150000X0.150000X-0.587500X0.150000X0.587500X-0.150000X0.587500X-0.150000X-0.587500X0*%
%ADD28RoundRect,0.250000X-0.300000X0.300000X-0.300000X-0.300000X0.300000X-0.300000X0.300000X0.300000X0*%
%ADD29RoundRect,0.150000X0.825000X0.150000X-0.825000X0.150000X-0.825000X-0.150000X0.825000X-0.150000X0*%
%ADD30RoundRect,0.150000X-0.825000X-0.150000X0.825000X-0.150000X0.825000X0.150000X-0.825000X0.150000X0*%
G04 APERTURE END LIST*
D10*
%TO.C,R21*%
X122912500Y-25400000D03*
X124737500Y-25400000D03*
%TD*%
D11*
%TO.C,R54*%
X169000000Y-137912500D03*
X169000000Y-136087500D03*
%TD*%
D12*
%TO.C,C10*%
X109540000Y-50165000D03*
X111440000Y-50165000D03*
%TD*%
D13*
%TO.C,R38*%
X118755000Y-132437500D03*
X118755000Y-134262500D03*
%TD*%
D10*
%TO.C,R14*%
X126087500Y-33655000D03*
X127912500Y-33655000D03*
%TD*%
D14*
%TO.C,R10*%
X113307500Y-60960000D03*
X111482500Y-60960000D03*
%TD*%
D10*
%TO.C,R26*%
X143867500Y-43180000D03*
X145692500Y-43180000D03*
%TD*%
D15*
%TO.C,C2*%
X52070000Y-135500000D03*
X52070000Y-143900000D03*
%TD*%
D10*
%TO.C,R42*%
X123547500Y-116840000D03*
X125372500Y-116840000D03*
%TD*%
D13*
%TO.C,R36*%
X119380000Y-109577500D03*
X119380000Y-111402500D03*
%TD*%
D10*
%TO.C,R45*%
X142597500Y-93980000D03*
X144422500Y-93980000D03*
%TD*%
%TO.C,R7*%
X111482500Y-69215000D03*
X113307500Y-69215000D03*
%TD*%
D16*
%TO.C,Q9*%
X123522500Y-98110000D03*
X123522500Y-100010000D03*
X125397500Y-99060000D03*
%TD*%
D14*
%TO.C,R15*%
X108862500Y-36195000D03*
X107037500Y-36195000D03*
%TD*%
D10*
%TO.C,R48*%
X142597500Y-128270000D03*
X144422500Y-128270000D03*
%TD*%
D17*
%TO.C,U3*%
X187748249Y-38500000D03*
X189018249Y-38500000D03*
X190288249Y-38500000D03*
X191558249Y-38500000D03*
X192828249Y-38500000D03*
X194098249Y-38500000D03*
X195368249Y-38500000D03*
X196638249Y-38500000D03*
X196638249Y-33500000D03*
X195368249Y-33500000D03*
X194098249Y-33500000D03*
X192828249Y-33500000D03*
X191558249Y-33500000D03*
X190288249Y-33500000D03*
X189018249Y-33500000D03*
X187748249Y-33500000D03*
%TD*%
D13*
%TO.C,R18*%
X119380000Y-63857500D03*
X119380000Y-65682500D03*
%TD*%
D18*
%TO.C,D2*%
X141907500Y-62230000D03*
X140032500Y-62230000D03*
%TD*%
D16*
%TO.C,Q17*%
X142572500Y-133670000D03*
X142572500Y-135570000D03*
X144447500Y-134620000D03*
%TD*%
D14*
%TO.C,R9*%
X113307500Y-57785000D03*
X111482500Y-57785000D03*
%TD*%
D16*
%TO.C,Q16*%
X142572500Y-122240000D03*
X142572500Y-124140000D03*
X144447500Y-123190000D03*
%TD*%
%TO.C,Q6*%
X123522500Y-63820000D03*
X123522500Y-65720000D03*
X125397500Y-64770000D03*
%TD*%
D13*
%TO.C,R27*%
X140407500Y-53697500D03*
X140407500Y-55522500D03*
%TD*%
D10*
%TO.C,R12*%
X113387500Y-53975000D03*
X115212500Y-53975000D03*
%TD*%
D12*
%TO.C,C4*%
X187243249Y-41990000D03*
X189143249Y-41990000D03*
%TD*%
D19*
%TO.C,D9*%
X148590000Y-114430000D03*
X148590000Y-111630000D03*
%TD*%
%TO.C,D11*%
X148590000Y-137290000D03*
X148590000Y-134490000D03*
%TD*%
D20*
%TO.C,U5*%
X110150000Y-47990000D03*
X110150000Y-47490000D03*
X110150000Y-46990000D03*
X110150000Y-46490000D03*
X110150000Y-45990000D03*
X105750000Y-45990000D03*
X105750000Y-46490000D03*
X105750000Y-46990000D03*
X105750000Y-47490000D03*
X105750000Y-47990000D03*
%TD*%
D19*
%TO.C,D8*%
X148590000Y-103000000D03*
X148590000Y-100200000D03*
%TD*%
D12*
%TO.C,C19*%
X147960000Y-66040000D03*
X149860000Y-66040000D03*
%TD*%
D18*
%TO.C,D1*%
X141907500Y-50800000D03*
X140032500Y-50800000D03*
%TD*%
D13*
%TO.C,R23*%
X143510000Y-28297500D03*
X143510000Y-30122500D03*
%TD*%
D10*
%TO.C,R30*%
X157837500Y-27940000D03*
X159662500Y-27940000D03*
%TD*%
D14*
%TO.C,R4*%
X141882500Y-76200000D03*
X140057500Y-76200000D03*
%TD*%
D18*
%TO.C,D4*%
X177937500Y-67000000D03*
X176062500Y-67000000D03*
%TD*%
D21*
%TO.C,D7*%
X169000000Y-140062500D03*
X169000000Y-141937500D03*
%TD*%
D12*
%TO.C,C18*%
X147960000Y-54610000D03*
X149860000Y-54610000D03*
%TD*%
D22*
%TO.C,C15*%
X159700000Y-38100000D03*
X157800000Y-38100000D03*
%TD*%
D13*
%TO.C,R17*%
X119380000Y-52427500D03*
X119380000Y-54252500D03*
%TD*%
D16*
%TO.C,Q5*%
X123522500Y-52390000D03*
X123522500Y-54290000D03*
X125397500Y-53340000D03*
%TD*%
D23*
%TO.C,C8*%
X184193249Y-39050000D03*
X184193249Y-40950000D03*
%TD*%
D10*
%TO.C,R13*%
X122277500Y-33655000D03*
X124102500Y-33655000D03*
%TD*%
D14*
%TO.C,R22*%
X124737500Y-27940000D03*
X122912500Y-27940000D03*
%TD*%
D24*
%TO.C,U6*%
X105750000Y-52340000D03*
X105750000Y-52840000D03*
X105750000Y-53340000D03*
X105750000Y-53840000D03*
X105750000Y-54340000D03*
X110150000Y-54340000D03*
X110150000Y-53840000D03*
X110150000Y-53340000D03*
X110150000Y-52840000D03*
X110150000Y-52340000D03*
%TD*%
D14*
%TO.C,R16*%
X105052500Y-36195000D03*
X103227500Y-36195000D03*
%TD*%
%TO.C,R52*%
X199912500Y-70000000D03*
X198087500Y-70000000D03*
%TD*%
D25*
%TO.C,C7*%
X184193249Y-32950000D03*
X184193249Y-31050000D03*
%TD*%
D13*
%TO.C,R35*%
X119380000Y-98147500D03*
X119380000Y-99972500D03*
%TD*%
D16*
%TO.C,Q18*%
X142572500Y-145100000D03*
X142572500Y-147000000D03*
X144447500Y-146050000D03*
%TD*%
%TO.C,Q1*%
X123522500Y-86680000D03*
X123522500Y-88580000D03*
X125397500Y-87630000D03*
%TD*%
D10*
%TO.C,R49*%
X142597500Y-139700000D03*
X144422500Y-139700000D03*
%TD*%
%TO.C,R20*%
X123547500Y-59690000D03*
X125372500Y-59690000D03*
%TD*%
%TO.C,R33*%
X143867500Y-50800000D03*
X145692500Y-50800000D03*
%TD*%
%TO.C,R43*%
X123905000Y-128270000D03*
X125730000Y-128270000D03*
%TD*%
D13*
%TO.C,R1*%
X119380000Y-86717500D03*
X119380000Y-88542500D03*
%TD*%
%TO.C,R37*%
X119380000Y-121007500D03*
X119380000Y-122832500D03*
%TD*%
D16*
%TO.C,Q13*%
X123522500Y-143830000D03*
X123522500Y-145730000D03*
X125397500Y-144780000D03*
%TD*%
D13*
%TO.C,R24*%
X143510000Y-32107500D03*
X143510000Y-33932500D03*
%TD*%
D14*
%TO.C,R25*%
X145692500Y-40640000D03*
X143867500Y-40640000D03*
%TD*%
D12*
%TO.C,C11*%
X107000000Y-43180000D03*
X108900000Y-43180000D03*
%TD*%
D10*
%TO.C,R47*%
X142597500Y-116840000D03*
X144422500Y-116840000D03*
%TD*%
D18*
%TO.C,D5*%
X199937500Y-67000000D03*
X198062500Y-67000000D03*
%TD*%
D15*
%TO.C,C3*%
X228600000Y-134230000D03*
X228600000Y-142630000D03*
%TD*%
D26*
%TO.C,GD3*%
X215000000Y-54250000D03*
X215000000Y-57750000D03*
%TD*%
D18*
%TO.C,D3*%
X156937500Y-67000000D03*
X155062500Y-67000000D03*
%TD*%
D14*
%TO.C,R51*%
X177912500Y-70000000D03*
X176087500Y-70000000D03*
%TD*%
D10*
%TO.C,R34*%
X143867500Y-62230000D03*
X145692500Y-62230000D03*
%TD*%
%TO.C,R41*%
X123547500Y-105410000D03*
X125372500Y-105410000D03*
%TD*%
%TO.C,R29*%
X157837500Y-30480000D03*
X159662500Y-30480000D03*
%TD*%
D27*
%TO.C,Q3*%
X111445000Y-66342500D03*
X113345000Y-66342500D03*
X112395000Y-64467500D03*
%TD*%
D10*
%TO.C,R19*%
X123547500Y-48260000D03*
X125372500Y-48260000D03*
%TD*%
D16*
%TO.C,Q11*%
X123522500Y-120970000D03*
X123522500Y-122870000D03*
X125397500Y-121920000D03*
%TD*%
D10*
%TO.C,R11*%
X113387500Y-46355000D03*
X115212500Y-46355000D03*
%TD*%
D15*
%TO.C,C1*%
X82550000Y-135500000D03*
X82550000Y-143900000D03*
%TD*%
D10*
%TO.C,R46*%
X142597500Y-105410000D03*
X144422500Y-105410000D03*
%TD*%
D25*
%TO.C,C9*%
X200193249Y-40950000D03*
X200193249Y-39050000D03*
%TD*%
D26*
%TO.C,GD2*%
X193000000Y-54250000D03*
X193000000Y-57750000D03*
%TD*%
D10*
%TO.C,R5*%
X142597500Y-87630000D03*
X144422500Y-87630000D03*
%TD*%
%TO.C,R44*%
X123547500Y-139700000D03*
X125372500Y-139700000D03*
%TD*%
%TO.C,R8*%
X106402500Y-69215000D03*
X108227500Y-69215000D03*
%TD*%
D16*
%TO.C,Q15*%
X142572500Y-110810000D03*
X142572500Y-112710000D03*
X144447500Y-111760000D03*
%TD*%
D28*
%TO.C,D12*%
X148590000Y-143380000D03*
X148590000Y-146180000D03*
%TD*%
D10*
%TO.C,R40*%
X123547500Y-93980000D03*
X125372500Y-93980000D03*
%TD*%
D19*
%TO.C,D10*%
X148590000Y-125860000D03*
X148590000Y-123060000D03*
%TD*%
D22*
%TO.C,C12*%
X108900000Y-40005000D03*
X107000000Y-40005000D03*
%TD*%
D29*
%TO.C,U4*%
X118045000Y-40640000D03*
X118045000Y-39370000D03*
X118045000Y-38100000D03*
X118045000Y-36830000D03*
X113095000Y-36830000D03*
X113095000Y-38100000D03*
X113095000Y-39370000D03*
X113095000Y-40640000D03*
%TD*%
D12*
%TO.C,C6*%
X191243249Y-42000000D03*
X193143249Y-42000000D03*
%TD*%
D13*
%TO.C,R2*%
X125095000Y-71477500D03*
X125095000Y-73302500D03*
%TD*%
D18*
%TO.C,D6*%
X220937500Y-67000000D03*
X219062500Y-67000000D03*
%TD*%
D27*
%TO.C,Q4*%
X106365000Y-66342500D03*
X108265000Y-66342500D03*
X107315000Y-64467500D03*
%TD*%
D10*
%TO.C,R31*%
X157837500Y-40640000D03*
X159662500Y-40640000D03*
%TD*%
D12*
%TO.C,C14*%
X122240000Y-36830000D03*
X124140000Y-36830000D03*
%TD*%
D16*
%TO.C,Q7*%
X143872500Y-53660000D03*
X143872500Y-55560000D03*
X145747500Y-54610000D03*
%TD*%
D22*
%TO.C,C17*%
X153350000Y-35560000D03*
X151450000Y-35560000D03*
%TD*%
D16*
%TO.C,Q14*%
X142572500Y-99380000D03*
X142572500Y-101280000D03*
X144447500Y-100330000D03*
%TD*%
%TO.C,Q8*%
X143842500Y-65090000D03*
X143842500Y-66990000D03*
X145717500Y-66040000D03*
%TD*%
D26*
%TO.C,GD1*%
X172000000Y-54250000D03*
X172000000Y-57750000D03*
%TD*%
D10*
%TO.C,R32*%
X157837500Y-43220000D03*
X159662500Y-43220000D03*
%TD*%
D14*
%TO.C,R50*%
X156912500Y-70000000D03*
X155087500Y-70000000D03*
%TD*%
D16*
%TO.C,Q12*%
X123522500Y-132400000D03*
X123522500Y-134300000D03*
X125397500Y-133350000D03*
%TD*%
D26*
%TO.C,GD4*%
X236000000Y-54000000D03*
X236000000Y-57500000D03*
%TD*%
D14*
%TO.C,R53*%
X220912500Y-70000000D03*
X219087500Y-70000000D03*
%TD*%
D30*
%TO.C,U7*%
X148655000Y-38735000D03*
X148655000Y-40005000D03*
X148655000Y-41275000D03*
X148655000Y-42545000D03*
X153605000Y-42545000D03*
X153605000Y-41275000D03*
X153605000Y-40005000D03*
X153605000Y-38735000D03*
%TD*%
D15*
%TO.C,C5*%
X198120000Y-134230000D03*
X198120000Y-142630000D03*
%TD*%
D13*
%TO.C,R28*%
X140325000Y-65127500D03*
X140325000Y-66952500D03*
%TD*%
D16*
%TO.C,Q10*%
X123522500Y-109540000D03*
X123522500Y-111440000D03*
X125397500Y-110490000D03*
%TD*%
D13*
%TO.C,R39*%
X119380000Y-143867500D03*
X119380000Y-145692500D03*
%TD*%
D14*
%TO.C,R3*%
X125372500Y-82550000D03*
X123547500Y-82550000D03*
%TD*%
M02*
