%TF.GenerationSoftware,KiCad,Pcbnew,7.0.1*%
%TF.CreationDate,2023-03-27T20:51:40+10:00*%
%TF.ProjectId,RemoteHF,52656d6f-7465-4484-962e-6b696361645f,rev?*%
%TF.SameCoordinates,Original*%
%TF.FileFunction,Soldermask,Bot*%
%TF.FilePolarity,Negative*%
%FSLAX46Y46*%
G04 Gerber Fmt 4.6, Leading zero omitted, Abs format (unit mm)*
G04 Created by KiCad (PCBNEW 7.0.1) date 2023-03-27 20:51:40*
%MOMM*%
%LPD*%
G01*
G04 APERTURE LIST*
G04 Aperture macros list*
%AMRoundRect*
0 Rectangle with rounded corners*
0 $1 Rounding radius*
0 $2 $3 $4 $5 $6 $7 $8 $9 X,Y pos of 4 corners*
0 Add a 4 corners polygon primitive as box body*
4,1,4,$2,$3,$4,$5,$6,$7,$8,$9,$2,$3,0*
0 Add four circle primitives for the rounded corners*
1,1,$1+$1,$2,$3*
1,1,$1+$1,$4,$5*
1,1,$1+$1,$6,$7*
1,1,$1+$1,$8,$9*
0 Add four rect primitives between the rounded corners*
20,1,$1+$1,$2,$3,$4,$5,0*
20,1,$1+$1,$4,$5,$6,$7,0*
20,1,$1+$1,$6,$7,$8,$9,0*
20,1,$1+$1,$8,$9,$2,$3,0*%
G04 Aperture macros list end*
%ADD10C,2.100000*%
%ADD11C,2.300000*%
%ADD12R,1.600000X1.600000*%
%ADD13O,1.600000X1.600000*%
%ADD14R,1.700000X1.700000*%
%ADD15O,1.700000X1.700000*%
%ADD16C,6.000000*%
%ADD17C,1.700000*%
%ADD18C,3.200000*%
%ADD19C,3.000000*%
%ADD20RoundRect,0.316092X-0.783908X-1.183908X0.783908X-1.183908X0.783908X1.183908X-0.783908X1.183908X0*%
%ADD21O,2.200000X3.000000*%
%ADD22C,1.600000*%
%ADD23O,2.000000X3.500000*%
%ADD24O,4.000000X2.000000*%
%ADD25C,4.000000*%
G04 APERTURE END LIST*
D10*
%TO.C,J8*%
X205935000Y-52000000D03*
D11*
X203395000Y-54540000D03*
X208475000Y-54540000D03*
X203395000Y-49460000D03*
X208475000Y-49460000D03*
%TD*%
D12*
%TO.C,U17*%
X129540000Y-105425000D03*
D13*
X129540000Y-107965000D03*
X129540000Y-110505000D03*
X137160000Y-110505000D03*
X137160000Y-107965000D03*
X137160000Y-105425000D03*
%TD*%
D10*
%TO.C,J10*%
X195000000Y-126000000D03*
D11*
X197540000Y-128540000D03*
X197540000Y-123460000D03*
X192460000Y-128540000D03*
X192460000Y-123460000D03*
%TD*%
D14*
%TO.C,J2*%
X97390000Y-98900000D03*
D15*
X99930000Y-98900000D03*
X97390000Y-96360000D03*
X99930000Y-96360000D03*
X97390000Y-93820000D03*
X99930000Y-93820000D03*
X97390000Y-91280000D03*
X99930000Y-91280000D03*
X97390000Y-88740000D03*
X99930000Y-88740000D03*
X97390000Y-86200000D03*
X99930000Y-86200000D03*
X97390000Y-83660000D03*
X99930000Y-83660000D03*
X97390000Y-81120000D03*
X99930000Y-81120000D03*
X97390000Y-78580000D03*
X99930000Y-78580000D03*
X97390000Y-76040000D03*
X99930000Y-76040000D03*
X97390000Y-73500000D03*
X99930000Y-73500000D03*
X97390000Y-70960000D03*
X99930000Y-70960000D03*
X97390000Y-68420000D03*
X99930000Y-68420000D03*
X97390000Y-65880000D03*
X99930000Y-65880000D03*
X97390000Y-63340000D03*
X99930000Y-63340000D03*
X97390000Y-60800000D03*
X99930000Y-60800000D03*
X97390000Y-58260000D03*
X99930000Y-58260000D03*
X97390000Y-55720000D03*
X99930000Y-55720000D03*
X97390000Y-53180000D03*
X99930000Y-53180000D03*
D16*
X49660000Y-103770000D03*
X98660000Y-103770000D03*
D17*
X97390000Y-50640000D03*
D16*
X49660000Y-45770000D03*
X98660000Y-45770000D03*
D15*
X99930000Y-50640000D03*
%TD*%
D18*
%TO.C,REF\u002A\u002A*%
X190500000Y-25400000D03*
%TD*%
D19*
%TO.C,K2*%
X176745000Y-106405000D03*
X176745000Y-74805000D03*
X184345000Y-126105000D03*
X184345000Y-61855000D03*
X191945000Y-112905000D03*
X191945000Y-74805000D03*
%TD*%
D18*
%TO.C,REF\u002A\u002A*%
X165150000Y-148500000D03*
%TD*%
D19*
%TO.C,K3*%
X198335000Y-106405000D03*
X198335000Y-74805000D03*
X205935000Y-126105000D03*
X205935000Y-61855000D03*
X213535000Y-112905000D03*
X213535000Y-74805000D03*
%TD*%
D10*
%TO.C,J9*%
X227525000Y-52000000D03*
D11*
X224985000Y-54540000D03*
X230065000Y-54540000D03*
X224985000Y-49460000D03*
X230065000Y-49460000D03*
%TD*%
D19*
%TO.C,K5*%
X179070000Y-131650000D03*
X185070000Y-145850000D03*
X173070000Y-145850000D03*
X173070000Y-133650000D03*
X185070000Y-133650000D03*
%TD*%
%TO.C,K1*%
X155155000Y-106405000D03*
X155155000Y-74805000D03*
X162755000Y-126105000D03*
X162755000Y-61855000D03*
X170355000Y-112905000D03*
X170355000Y-74805000D03*
%TD*%
D18*
%TO.C,REF\u002A\u002A*%
X237550000Y-148550000D03*
%TD*%
D12*
%TO.C,U2*%
X129550000Y-82565000D03*
D13*
X129550000Y-85105000D03*
X129550000Y-87645000D03*
X137170000Y-87645000D03*
X137170000Y-85105000D03*
X137170000Y-82565000D03*
%TD*%
D12*
%TO.C,U9*%
X137150000Y-30465000D03*
D13*
X137150000Y-27925000D03*
X137150000Y-25385000D03*
X129530000Y-25385000D03*
X129530000Y-27925000D03*
X129530000Y-30465000D03*
%TD*%
D12*
%TO.C,U13*%
X129550000Y-59705000D03*
D13*
X129550000Y-62245000D03*
X129550000Y-64785000D03*
X137170000Y-64785000D03*
X137170000Y-62245000D03*
X137170000Y-59705000D03*
%TD*%
D12*
%TO.C,U18*%
X129550000Y-116855000D03*
D13*
X129550000Y-119395000D03*
X129550000Y-121935000D03*
X137170000Y-121935000D03*
X137170000Y-119395000D03*
X137170000Y-116855000D03*
%TD*%
D20*
%TO.C,J3*%
X208360000Y-132720000D03*
D21*
X213360000Y-132720000D03*
X218360000Y-132720000D03*
%TD*%
D18*
%TO.C,REF\u002A\u002A*%
X41950000Y-148550000D03*
%TD*%
D12*
%TO.C,U11*%
X147330000Y-25415000D03*
D13*
X147330000Y-27955000D03*
X147330000Y-30495000D03*
X154950000Y-30495000D03*
X154950000Y-27955000D03*
X154950000Y-25415000D03*
%TD*%
D12*
%TO.C,J5*%
X171410000Y-29915000D03*
D22*
X174010000Y-29915000D03*
X169310000Y-29915000D03*
X176110000Y-29915000D03*
X169310000Y-32715000D03*
X176110000Y-32715000D03*
D23*
X179560000Y-27065000D03*
D24*
X172710000Y-26265000D03*
D23*
X165860000Y-27065000D03*
%TD*%
D20*
%TO.C,J1*%
X62310000Y-133990000D03*
D21*
X67310000Y-133990000D03*
X72310000Y-133990000D03*
%TD*%
D25*
%TO.C,J4*%
X228390000Y-30140331D03*
X203390000Y-30140331D03*
D12*
X210350000Y-31560331D03*
D22*
X213120000Y-31560331D03*
X215890000Y-31560331D03*
X218660000Y-31560331D03*
X221430000Y-31560331D03*
X211735000Y-28720331D03*
X214505000Y-28720331D03*
X217275000Y-28720331D03*
X220045000Y-28720331D03*
%TD*%
D12*
%TO.C,U16*%
X129550000Y-93995000D03*
D13*
X129550000Y-96535000D03*
X129550000Y-99075000D03*
X137170000Y-99075000D03*
X137170000Y-96535000D03*
X137170000Y-93995000D03*
%TD*%
D12*
%TO.C,U1*%
X137150000Y-76185000D03*
D13*
X137150000Y-73645000D03*
X137150000Y-71105000D03*
X129530000Y-71105000D03*
X129530000Y-73645000D03*
X129530000Y-76185000D03*
%TD*%
D18*
%TO.C,REF\u002A\u002A*%
X237550000Y-25400000D03*
%TD*%
D12*
%TO.C,U19*%
X129550000Y-128285000D03*
D13*
X129550000Y-130825000D03*
X129550000Y-133365000D03*
X137170000Y-133365000D03*
X137170000Y-130825000D03*
X137170000Y-128285000D03*
%TD*%
D12*
%TO.C,U8*%
X118735000Y-30465000D03*
D13*
X118735000Y-27925000D03*
X118735000Y-25385000D03*
X111115000Y-25385000D03*
X111115000Y-27925000D03*
X111115000Y-30465000D03*
%TD*%
D14*
%TO.C,J11*%
X216470000Y-38390000D03*
D15*
X216470000Y-40930000D03*
X213930000Y-38390000D03*
X213930000Y-40930000D03*
X211390000Y-38390000D03*
X211390000Y-40930000D03*
%TD*%
D12*
%TO.C,U10*%
X129550000Y-36845000D03*
D13*
X129550000Y-39385000D03*
X129550000Y-41925000D03*
X137170000Y-41925000D03*
X137170000Y-39385000D03*
X137170000Y-36845000D03*
%TD*%
D10*
%TO.C,J7*%
X184345000Y-52000000D03*
D11*
X181805000Y-54540000D03*
X186885000Y-54540000D03*
X181805000Y-49460000D03*
X186885000Y-49460000D03*
%TD*%
D12*
%TO.C,U12*%
X129550000Y-48275000D03*
D13*
X129550000Y-50815000D03*
X129550000Y-53355000D03*
X137170000Y-53355000D03*
X137170000Y-50815000D03*
X137170000Y-48275000D03*
%TD*%
D12*
%TO.C,U20*%
X129550000Y-139715000D03*
D13*
X129550000Y-142255000D03*
X129550000Y-144795000D03*
X137170000Y-144795000D03*
X137170000Y-142255000D03*
X137170000Y-139715000D03*
%TD*%
D18*
%TO.C,REF\u002A\u002A*%
X41900000Y-25350000D03*
%TD*%
D19*
%TO.C,K4*%
X219925000Y-106405000D03*
X219925000Y-74805000D03*
X227525000Y-126105000D03*
X227525000Y-61855000D03*
X235125000Y-112905000D03*
X235125000Y-74805000D03*
%TD*%
D10*
%TO.C,J6*%
X162755000Y-52000000D03*
D11*
X160215000Y-54540000D03*
X165295000Y-54540000D03*
X160215000Y-49460000D03*
X165295000Y-49460000D03*
%TD*%
M02*
