M48
; DRILL file {KiCad 7.0.1} date Mon Mar 27 20:51:46 2023
; FORMAT={-:-/ absolute / metric / decimal}
; #@! TF.CreationDate,2023-03-27T20:51:46+10:00
; #@! TF.GenerationSoftware,Kicad,Pcbnew,7.0.1
; #@! TF.FileFunction,Plated,1,2,PTH
FMAT,2
METRIC
; #@! TA.AperFunction,Plated,PTH,ViaDrill
T1C0.500
; #@! TA.AperFunction,Plated,PTH,ComponentDrill
T2C0.800
; #@! TA.AperFunction,Plated,PTH,ViaDrill
T3C1.000
; #@! TA.AperFunction,Plated,PTH,ComponentDrill
T4C1.000
; #@! TA.AperFunction,Plated,PTH,ComponentDrill
T5C1.300
; #@! TA.AperFunction,Plated,PTH,ComponentDrill
T6C1.500
; #@! TA.AperFunction,Plated,PTH,ComponentDrill
T7C1.700
; #@! TA.AperFunction,Plated,PTH,ComponentDrill
T8C3.000
; #@! TA.AperFunction,Plated,PTH,ComponentDrill
T9C3.200
%
G90
G05
T1
X90.17Y-139.7
X102.87Y-34.29
X103.483Y-86.978
X103.505Y-85.09
X105.41Y-41.275
X108.585Y-59.055
X108.585Y-60.5
X108.585Y-81.28
X109.22Y-34.29
X110.49Y-43.18
X111.76Y-52.07
X113.03Y-71.755
X116.483Y-86.718
X116.84Y-88.9
X116.84Y-100.33
X116.84Y-111.76
X116.84Y-123.19
X116.84Y-134.62
X116.84Y-146.05
X117.475Y-59.055
X117.475Y-60.455
X119.38Y-55.88
X119.38Y-67.31
X120.015Y-36.83
X120.65Y-71.755
X121.285Y-27.94
X121.92Y-48.26
X121.92Y-59.69
X121.92Y-82.55
X121.92Y-93.98
X121.92Y-105.41
X121.92Y-116.84
X121.92Y-128.27
X121.92Y-139.7
X125.095Y-74.93
X129.54Y-33.655
X139.7Y-57.15
X139.7Y-68.58
X140.32Y-73.645
X140.97Y-100.33
X140.97Y-111.76
X140.97Y-123.19
X140.97Y-134.62
X140.97Y-146.05
X146.05Y-34.29
X146.05Y-77.47
X146.05Y-87.63
X146.05Y-93.98
X146.05Y-105.41
X146.05Y-116.84
X146.05Y-128.27
X146.05Y-139.7
X147.32Y-44.45
X148.254Y-75.229
X149.86Y-35.56
X149.86Y-68.58
X151.0Y-126.0
X151.13Y-54.61
X154.0Y-126.0
X161.29Y-27.94
X182.0Y-31.0
X186.193Y-40.0
X189.193Y-31.0
X198.193Y-41.0
T2
X111.115Y-25.385
X111.115Y-27.925
X111.115Y-30.465
X118.735Y-25.385
X118.735Y-27.925
X118.735Y-30.465
X129.53Y-25.385
X129.53Y-27.925
X129.53Y-30.465
X129.53Y-71.105
X129.53Y-73.645
X129.53Y-76.185
X129.54Y-105.425
X129.54Y-107.965
X129.54Y-110.505
X129.55Y-36.845
X129.55Y-39.385
X129.55Y-41.925
X129.55Y-48.275
X129.55Y-50.815
X129.55Y-53.355
X129.55Y-59.705
X129.55Y-62.245
X129.55Y-64.785
X129.55Y-82.565
X129.55Y-85.105
X129.55Y-87.645
X129.55Y-93.995
X129.55Y-96.535
X129.55Y-99.075
X129.55Y-116.855
X129.55Y-119.395
X129.55Y-121.935
X129.55Y-128.285
X129.55Y-130.825
X129.55Y-133.365
X129.55Y-139.715
X129.55Y-142.255
X129.55Y-144.795
X137.15Y-25.385
X137.15Y-27.925
X137.15Y-30.465
X137.15Y-71.105
X137.15Y-73.645
X137.15Y-76.185
X137.16Y-105.425
X137.16Y-107.965
X137.16Y-110.505
X137.17Y-36.845
X137.17Y-39.385
X137.17Y-41.925
X137.17Y-48.275
X137.17Y-50.815
X137.17Y-53.355
X137.17Y-59.705
X137.17Y-62.245
X137.17Y-64.785
X137.17Y-82.565
X137.17Y-85.105
X137.17Y-87.645
X137.17Y-93.995
X137.17Y-96.535
X137.17Y-99.075
X137.17Y-116.855
X137.17Y-119.395
X137.17Y-121.935
X137.17Y-128.285
X137.17Y-130.825
X137.17Y-133.365
X137.17Y-139.715
X137.17Y-142.255
X137.17Y-144.795
X147.33Y-25.415
X147.33Y-27.955
X147.33Y-30.495
X154.95Y-25.415
X154.95Y-27.955
X154.95Y-30.495
X169.31Y-29.915
X169.31Y-32.715
X171.41Y-29.915
X174.01Y-29.915
X176.11Y-29.915
X176.11Y-32.715
T3
X52.07Y-148.59
X82.55Y-148.59
X170.0Y-50.5
X172.0Y-50.5
X174.0Y-50.5
X191.0Y-50.5
X193.0Y-50.5
X195.0Y-50.5
X198.12Y-147.32
X213.0Y-50.5
X215.0Y-50.5
X217.0Y-50.5
X228.6Y-147.32
X234.0Y-50.0
X236.0Y-50.0
X238.0Y-50.0
T4
X97.39Y-50.64
X97.39Y-53.18
X97.39Y-55.72
X97.39Y-58.26
X97.39Y-60.8
X97.39Y-63.34
X97.39Y-65.88
X97.39Y-68.42
X97.39Y-70.96
X97.39Y-73.5
X97.39Y-76.04
X97.39Y-78.58
X97.39Y-81.12
X97.39Y-83.66
X97.39Y-86.2
X97.39Y-88.74
X97.39Y-91.28
X97.39Y-93.82
X97.39Y-96.36
X97.39Y-98.9
X99.93Y-50.64
X99.93Y-53.18
X99.93Y-55.72
X99.93Y-58.26
X99.93Y-60.8
X99.93Y-63.34
X99.93Y-65.88
X99.93Y-68.42
X99.93Y-70.96
X99.93Y-73.5
X99.93Y-76.04
X99.93Y-78.58
X99.93Y-81.12
X99.93Y-83.66
X99.93Y-86.2
X99.93Y-88.74
X99.93Y-91.28
X99.93Y-93.82
X99.93Y-96.36
X99.93Y-98.9
X210.35Y-31.56
X211.39Y-38.39
X211.39Y-40.93
X211.735Y-28.72
X213.12Y-31.56
X213.93Y-38.39
X213.93Y-40.93
X214.505Y-28.72
X215.89Y-31.56
X216.47Y-38.39
X216.47Y-40.93
X217.275Y-28.72
X218.66Y-31.56
X220.045Y-28.72
X221.43Y-31.56
T5
X155.155Y-74.805
X155.155Y-106.405
X162.755Y-61.855
X162.755Y-126.105
X170.355Y-74.805
X170.355Y-112.905
X173.07Y-133.65
X173.07Y-145.85
X176.745Y-74.805
X176.745Y-106.405
X179.07Y-131.65
X184.345Y-61.855
X184.345Y-126.105
X185.07Y-133.65
X185.07Y-145.85
X191.945Y-74.805
X191.945Y-112.905
X198.335Y-74.805
X198.335Y-106.405
X205.935Y-61.855
X205.935Y-126.105
X213.535Y-74.805
X213.535Y-112.905
X219.925Y-74.805
X219.925Y-106.405
X227.525Y-61.855
X227.525Y-126.105
X235.125Y-74.805
X235.125Y-112.905
T6
X62.31Y-133.99
X67.31Y-133.99
X72.31Y-133.99
X162.755Y-52.0
X184.345Y-52.0
X195.0Y-126.0
X205.935Y-52.0
X208.36Y-132.72
X213.36Y-132.72
X218.36Y-132.72
X227.525Y-52.0
T7
X160.215Y-49.46
X160.215Y-54.54
X165.295Y-49.46
X165.295Y-54.54
X181.805Y-49.46
X181.805Y-54.54
X186.885Y-49.46
X186.885Y-54.54
X192.46Y-123.46
X192.46Y-128.54
X197.54Y-123.46
X197.54Y-128.54
X203.395Y-49.46
X203.395Y-54.54
X208.475Y-49.46
X208.475Y-54.54
X224.985Y-49.46
X224.985Y-54.54
X230.065Y-49.46
X230.065Y-54.54
T8
X49.66Y-45.77
X49.66Y-103.77
X98.66Y-45.77
X98.66Y-103.77
T9
X203.39Y-30.14
X228.39Y-30.14
T4
G00X165.86Y-27.815
M15
G01X165.86Y-26.315
M16
G05
G00X173.71Y-26.265
M15
G01X171.71Y-26.265
M16
G05
G00X179.56Y-27.815
M15
G01X179.56Y-26.315
M16
G05
T0
M30
